


<svg width="100%" height="100%" viewBox="0 0 33 21" version="1.1" xmlns="http://www.w3.org/2000/svg" xmlns:xlink="http://www.w3.org/1999/xlink" xml:space="preserve" xmlns:serif="http://www.serif.com/" style="fill-rule:evenodd;clip-rule:evenodd;stroke-linecap:round;stroke-linejoin:round;stroke-miterlimit:1.5;">
    <path d="M1.275,11.083c1.484,-2.368 3.867,-5.752 8.591,-8.263c4.267,-2.268 9.378,-2.597 10.538,-2.634c11.581,-0.375 11.745,9.075 11.758,9.983c0.149,2.891 -0.988,5.991 -2.709,6.365c-2.557,0.556 -5.645,0.675 -8.484,0.823c-0,-0 -0.485,-2.705 -3.147,-2.523c-3.078,0.211 -3.057,2.749 -3.057,2.749l-5.478,0.034c-3.169,-0.217 -6.251,-0.923 -9.112,-2.878c0.099,-1.076 0.424,-2.577 1.1,-3.656Z" style="fill:none;stroke:#fff;stroke-width:0.35px;"/>
    <path d="M17.894,15.314c1.542,0 2.794,1.197 2.794,2.671c-0,1.474 -1.252,2.67 -2.794,2.67c-1.542,0 -2.794,-1.196 -2.794,-2.67c0,-1.474 1.252,-2.671 2.794,-2.671Zm-0,1.335c0.771,0 1.397,0.599 1.397,1.336c-0,0.737 -0.626,1.335 -1.397,1.335c-0.771,-0 -1.397,-0.598 -1.397,-1.335c0,-0.737 0.626,-1.336 1.397,-1.336Z" style="fill:none;stroke:#fff;stroke-width:0.35px;"/>
    <path d="M2.115,11.044c0,-0 5.447,-9.844 18.308,-10.259c10.674,-0.344 11.12,9.305 11.12,9.305c-1.036,0.089 -1.533,0.62 -1.58,0.993c-0.099,0.788 0.64,1.232 1.291,1.241c-0.317,2.14 -0.972,3.047 -2.288,3.53c-1.696,0.623 -7.161,0.449 -7.161,0.449c-0,0 -0.552,-2.782 -3.965,-2.747c-2.843,0.03 -3.812,3.105 -3.812,3.105c-4.907,0.516 -9.249,-0.026 -12.765,-2.128c0.02,-0.421 0.158,-0.799 0.392,-1.139c0,-0 1.71,-0.079 1.75,-1.21c0.037,-1.045 -1.29,-1.14 -1.29,-1.14Z" style="fill:none;stroke:#fff;stroke-width:0.35px;"/>
    <path d="M21.571,4.473c0.03,-1.047 1.113,-1.89 2.442,-1.89c1.348,-0 2.443,0.867 2.443,1.936c0,0.061 -0.003,0.121 -0.01,0.181l0.332,9.521l-4.871,0.107l-0.354,-9.855l0.018,0Z" style="fill:none;stroke:#fff;stroke-width:0.35px;"/>
    <ellipse cx="24.049" cy="6.099" rx="1.518" ry="1.448" style="fill:none;stroke:#fff;stroke-width:0.35px;"/>
    <path d="M19.376,5.05c-0.004,-0.24 -0.203,-0.431 -0.443,-0.426c-2.548,-0.054 -5.118,-0.036 -7.745,0.152c-0.24,0.004 -0.431,0.203 -0.426,0.443c0.125,0.986 0.132,1.995 0.059,3.021c0.005,0.24 0.204,0.431 0.444,0.426c2.606,-0.18 5.177,-0.176 7.744,-0.152c0.24,-0.005 0.431,-0.203 0.427,-0.443c-0.06,-1.007 -0.081,-2.014 -0.06,-3.021Z" style="fill:none;stroke:#fff;stroke-width:0.35px;"/>
</svg>

