<?xml version="1.0" encoding="UTF-8" standalone="no"?>
<!DOCTYPE svg PUBLIC "-//W3C//DTD SVG 1.1//EN" "http://www.w3.org/Graphics/SVG/1.1/DTD/svg11.dtd">
<svg width="100%" height="100%" viewBox="0 0 504 801" version="1.1" xmlns="http://www.w3.org/2000/svg" xmlns:xlink="http://www.w3.org/1999/xlink" xml:space="preserve" xmlns:serif="http://www.serif.com/" style="fill-rule:evenodd;clip-rule:evenodd;stroke-linecap:round;stroke-linejoin:round;stroke-miterlimit:1.5;">
    <ellipse cx="252.116" cy="256.561" rx="250" ry="253.158" style="fill:#fff;stroke:#000;stroke-width:3px;"/>
    <g>
        <path d="M404.281,748.21c-0,-6.085 -4.94,-11.025 -11.025,-11.025l-279.968,0c-6.084,0 -11.024,4.94 -11.024,11.025c-0,6.085 4.94,11.024 11.024,11.024l279.968,0c6.085,0 11.025,-4.939 11.025,-11.024Z" style="fill:#fff;stroke:#000;stroke-width:3px;"/>
        <ellipse cx="188.069" cy="748.056" rx="43.861" ry="44.596" style="fill:#ffba00;stroke:#000;stroke-width:3px;"/>
        <text x="165.766px" y="761.206px" style="font-family:'Helvetica-Bold', 'Helvetica';font-weight:700;font-size:39.487px;">26</text>
        <path d="M23.869,736.007c0.536,6.045 0.755,26.796 -0.08,32.472c-0.102,0.692 0.696,1.578 1.396,1.569c7.249,-0.092 36.37,3.621 43.936,0.419c3.301,-1.398 2.725,-6.834 3.253,-7.863c0.391,-0.761 4.112,-3.069 4.368,-5.668c0.225,-2.274 -0.254,-3.63 -1.84,-5.342c-0.65,-0.701 3.649,-2.838 3.721,-5.337c0.06,-2.117 -2.398,-4.757 -2.211,-6.518c0.237,-2.231 2.585,-4.994 1.329,-7.579c-0.878,-1.808 -2.454,-4.303 -5.461,-5.156c-3.793,-1.077 -14.412,0.133 -17.583,-0.197c-0.761,-0.079 -1.63,-1.042 -1.444,-1.784c0.722,-2.872 4.912,-11.136 5.777,-15.447c0.822,-4.098 -1.395,-9.652 -3.687,-10.853c-1.81,-0.948 -4.814,-0.313 -5.973,1.369c-1.746,2.534 -0.168,11.25 -4.505,13.839c-7.252,4.33 -15.261,13.284 -15.672,18.282c-0.174,2.123 -5.513,1.672 -5.324,3.794Z" style="fill:#fff;stroke:#000;stroke-width:3px;"/>
        <path d="M480.364,759.608c-0.536,-6.045 -0.755,-26.797 0.08,-32.472c0.102,-0.692 -0.696,-1.578 -1.396,-1.569c-7.249,0.092 -36.37,-3.621 -43.936,-0.419c-3.301,1.398 -2.725,6.834 -3.253,7.863c-0.391,0.76 -4.112,3.069 -4.368,5.667c-0.225,2.275 0.254,3.631 1.84,5.343c0.65,0.701 -3.649,2.837 -3.721,5.337c-0.06,2.117 2.398,4.757 2.211,6.518c-0.237,2.231 -2.585,4.994 -1.329,7.579c0.878,1.807 2.454,4.303 5.46,5.156c3.794,1.076 14.413,-0.133 17.584,0.197c0.761,0.079 1.63,1.042 1.444,1.784c-0.722,2.871 -4.912,11.136 -5.777,15.447c-0.822,4.098 1.395,9.651 3.687,10.853c1.809,0.948 4.814,0.313 5.973,-1.369c1.746,-2.535 0.168,-11.25 4.505,-13.839c7.252,-4.33 15.261,-13.284 15.672,-18.282c0.174,-2.124 5.513,-1.672 5.324,-3.794Z" style="fill:#fff;stroke:#000;stroke-width:3px;"/>
    </g>
    <rect x="1.5" y="1.5" width="500.151" height="797.765" style="fill:none;stroke:#000;stroke-width:3px;"/>
    <g>
        <path d="M235.343,472.72c0,-23.895 8.383,-43.294 18.709,-43.294c10.325,-0 18.708,19.399 18.708,43.294c22.033,-11.947 44.112,-14.828 49.275,-6.43c5.162,8.399 -8.534,24.917 -30.566,36.865c22.032,11.947 35.728,28.465 30.566,36.864c-5.163,8.399 -27.242,5.518 -49.275,-6.43c0,23.895 -8.383,43.294 -18.708,43.294c-10.326,0 -18.709,-19.399 -18.709,-43.294c-22.032,11.948 -44.112,14.829 -49.274,6.43c-5.163,-8.399 8.533,-24.917 30.566,-36.864c-22.033,-11.948 -35.729,-28.466 -30.566,-36.865c5.162,-8.398 27.242,-5.517 49.274,6.43Z" style="fill:#fff;stroke:#000;stroke-width:2px;"/>
        <ellipse cx="254.361" cy="503.114" rx="20.438" ry="19.109" style="fill:#ffba00;stroke:#000;stroke-width:2px;"/>
    </g>
    <path d="M65.47,109.562c-0,-5.771 2.025,-10.457 4.519,-10.457c2.494,-0 4.519,4.686 4.519,10.457c5.322,-2.885 10.655,-3.581 11.902,-1.553c1.247,2.029 -2.061,6.019 -7.383,8.905c5.322,2.886 8.63,6.876 7.383,8.905c-1.247,2.028 -6.58,1.332 -11.902,-1.553c-0,5.771 -2.025,10.457 -4.519,10.457c-2.494,0 -4.519,-4.686 -4.519,-10.457c-5.322,2.885 -10.656,3.581 -11.903,1.553c-1.247,-2.029 2.062,-6.019 7.384,-8.905c-5.322,-2.886 -8.631,-6.876 -7.384,-8.905c1.247,-2.028 6.581,-1.332 11.903,1.553Z" style="fill:#fff;stroke:#000;stroke-width:2px;"/>
    <ellipse cx="70.151" cy="117.07" rx="4.937" ry="4.616" style="fill:#ffba00;stroke:#000;stroke-width:2px;"/>
</svg>
