<?xml version="1.0" encoding="UTF-8" standalone="no"?>
<!DOCTYPE svg PUBLIC "-//W3C//DTD SVG 1.1//EN" "http://www.w3.org/Graphics/SVG/1.1/DTD/svg11.dtd">
<svg width="100%" height="100%" viewBox="0 0 504 801" version="1.1" xmlns="http://www.w3.org/2000/svg" xmlns:xlink="http://www.w3.org/1999/xlink" xml:space="preserve" xmlns:serif="http://www.serif.com/" style="fill-rule:evenodd;clip-rule:evenodd;stroke-linecap:round;stroke-linejoin:round;stroke-miterlimit:1.5;">
    <rect x="1.5" y="1.5" width="500.151" height="797.765" style="fill:none;stroke:#000;stroke-width:3px;"/>
    <path d="M71.989,118.101c0.667,-2.367 2.823,-4.001 5.278,-4.001c2.455,-0 4.611,1.634 5.278,4.001l3.165,11.242l9.639,-6.574c2.029,-1.384 4.73,-1.248 6.611,0.333c1.881,1.581 2.483,4.221 1.475,6.463l-4.79,10.65l11.603,1.17c2.443,0.246 4.425,2.089 4.851,4.511c0.426,2.422 -0.807,4.832 -3.018,5.901l-10.504,5.074l8.138,8.367c1.713,1.761 2.049,4.449 0.821,6.579c-1.228,2.129 -3.719,3.182 -6.099,2.577l-11.303,-2.876l0.865,11.649c0.182,2.452 -1.286,4.727 -3.593,5.568c-2.307,0.841 -4.892,0.044 -6.326,-1.952l-6.813,-9.48l-6.813,9.48c-1.435,1.996 -4.019,2.793 -6.326,1.952c-2.307,-0.841 -3.775,-3.116 -3.593,-5.568l0.864,-11.649l-11.302,2.876c-2.38,0.605 -4.871,-0.448 -6.099,-2.577c-1.228,-2.13 -0.892,-4.818 0.821,-6.579l8.137,-8.367l-10.503,-5.074c-2.212,-1.069 -3.445,-3.479 -3.018,-5.901c0.426,-2.422 2.408,-4.265 4.851,-4.511l11.603,-1.17l-4.79,-10.65c-1.009,-2.242 -0.406,-4.882 1.475,-6.463c1.881,-1.581 4.581,-1.717 6.611,-0.333l9.639,6.574l3.165,-11.242Z" style="fill:#ffba00;stroke:#000;stroke-width:3px;"/>
    <ellipse cx="242.779" cy="540.926" rx="19.479" ry="19.443" style="fill:#ffba00;stroke:#000;stroke-width:3px;"/>
    <path d="M334.362,502.494l0,13.073c0,10.187 -8.271,18.458 -18.458,18.458l-51.48,-0c-2.124,-9.814 -11.187,-17.198 -22.032,-17.198c-10.845,0 -19.908,7.384 -22.032,17.198l-11.921,-0c-5.559,-0 -10.073,-4.514 -10.073,-10.073l0,-20.144c0,-5.56 4.514,-10.073 10.073,-10.073l25.7,0l0,-15.084c0,-10.187 8.271,-18.458 18.458,-18.458l63.307,-0c7.237,-0 13.507,4.174 16.532,10.245l-27.236,-0c-4.423,-0 -8.014,3.591 -8.014,8.014l0,16.028c0,4.423 3.591,8.014 8.014,8.014l29.162,0Z" style="fill:#fff;stroke:#000;stroke-width:3px;"/>
</svg>
