<?xml version="1.0" encoding="UTF-8" standalone="no"?>
<!DOCTYPE svg PUBLIC "-//W3C//DTD SVG 1.1//EN" "http://www.w3.org/Graphics/SVG/1.1/DTD/svg11.dtd">
<svg width="100%" height="100%" viewBox="0 0 504 801" version="1.1" xmlns="http://www.w3.org/2000/svg" xmlns:xlink="http://www.w3.org/1999/xlink" xml:space="preserve" xmlns:serif="http://www.serif.com/" style="fill-rule:evenodd;clip-rule:evenodd;stroke-linecap:round;stroke-linejoin:round;stroke-miterlimit:1.5;">
    <rect x="1.5" y="1.5" width="500.151" height="797.765" style="fill:none;stroke:#000;stroke-width:3px;"/>
    <g>
        <path d="M232.558,449.836l-54.296,98.412c0,18.105 16.992,32.804 37.922,32.804l82.056,-0c20.93,-0 37.922,-14.699 37.922,-32.804l-55.069,-98.412l-0,-15.029c-0,-5.793 -5.437,-10.496 -12.134,-10.496l-24.267,-0c-6.697,-0 -12.134,4.703 -12.134,10.496l0,15.029Z" style="fill:#fff;stroke:#000;stroke-width:2px;"/>
        <path d="M336.162,548.248c-15.464,-2.65 -33.579,2.812 -49.518,1.587c-35.38,-2.719 -69.644,-8.947 -108.382,-1.587c0,18.105 16.992,32.804 37.922,32.804l82.056,-0c20.93,-0 37.922,-14.699 37.922,-32.804Z" style="fill:#ffba00;stroke:#000;stroke-width:2px;"/>
    </g>
    <path d="M47.668,134.267c-3.24,13.615 -2.171,56.622 5.633,72.867c6.926,14.416 32.485,14.728 41.193,24.602c8.016,9.09 8.534,36.287 11.053,34.641c2.52,-1.647 8.988,-31.791 4.064,-44.521c-4.923,-12.73 -28.091,-17.442 -33.604,-31.86c-6.145,-16.069 1.46,-55.266 -3.263,-64.554c-4.016,-7.898 -23.024,0.204 -25.076,8.825Z" style="fill:none;"/>
    <clipPath id="_clip1">
        <path d="M47.668,134.267c-3.24,13.615 -2.171,56.622 5.633,72.867c6.926,14.416 32.485,14.728 41.193,24.602c8.016,9.09 8.534,36.287 11.053,34.641c2.52,-1.647 8.988,-31.791 4.064,-44.521c-4.923,-12.73 -28.091,-17.442 -33.604,-31.86c-6.145,-16.069 1.46,-55.266 -3.263,-64.554c-4.016,-7.898 -23.024,0.204 -25.076,8.825Z"/>
    </clipPath>
    <g clip-path="url(#_clip1)">
        <path d="M47.999,133.277c-0.564,13.074 -2.171,56.622 5.633,72.867c6.926,14.416 32.485,14.728 41.193,24.602c8.016,9.09 9.932,34.899 11.053,34.641c1.121,-0.258 2.834,-26.377 -4.329,-36.189c-7.613,-10.428 -27.782,-17.67 -36.117,-27.987c-11.105,-13.746 -9.342,-58.583 -8.414,-73.51c0.22,-3.528 -8.866,2.045 -9.019,5.576Z" style="fill:#ffba00;"/>
    </g>
    <path d="M47.668,134.267c-3.24,13.615 -2.171,56.622 5.633,72.867c6.926,14.416 32.485,14.728 41.193,24.602c8.016,9.09 8.534,36.287 11.053,34.641c2.52,-1.647 8.988,-31.791 4.064,-44.521c-4.923,-12.73 -28.091,-17.442 -33.604,-31.86c-6.145,-16.069 1.46,-55.266 -3.263,-64.554c-4.016,-7.898 -23.024,0.204 -25.076,8.825Z" style="fill:none;stroke:#000;stroke-width:2px;"/>
</svg>
