<?xml version="1.0" encoding="UTF-8" standalone="no"?>
<!DOCTYPE svg PUBLIC "-//W3C//DTD SVG 1.1//EN" "http://www.w3.org/Graphics/SVG/1.1/DTD/svg11.dtd">
<svg width="100%" height="100%" viewBox="0 0 1165 642" version="1.1" xmlns="http://www.w3.org/2000/svg" xmlns:xlink="http://www.w3.org/1999/xlink" xml:space="preserve" xmlns:serif="http://www.serif.com/" style="fill-rule:evenodd;clip-rule:evenodd;stroke-linejoin:round;stroke-miterlimit:2;">
    <g transform="matrix(1,0,0,1,0,-0.391642)">
        <g transform="matrix(4.16667,0,0,4.16667,0,0)">
            <path d="M43.275,96.518C45.257,98.518 46.25,101.535 46.25,105.569L46.25,130.07L36.75,130.07L36.75,107.117C36.75,105.218 36.391,103.819 35.674,102.918C34.958,102.018 33.95,101.569 32.65,101.569C31.216,101.569 30.066,102.069 29.2,103.069C28.333,104.069 27.9,105.585 27.9,107.617L27.9,130.07L18.4,130.07L18.4,107.117C18.4,103.418 17.033,101.569 14.299,101.569C12.833,101.569 11.667,102.069 10.799,103.069C9.932,104.069 9.5,105.585 9.5,107.617L9.5,130.07L0,130.07L0,93.968L9.049,93.968L9.049,96.819C10.049,95.718 11.241,94.893 12.625,94.343C14.007,93.794 15.516,93.518 17.15,93.518C19.049,93.518 20.75,93.868 22.25,94.569C23.75,95.268 24.966,96.336 25.9,97.768C26.966,96.402 28.316,95.352 29.95,94.618C31.583,93.885 33.366,93.518 35.299,93.518C38.632,93.518 41.292,94.518 43.275,96.518Z" style="fill:white;fill-rule:nonzero;"/>
        </g>
        <g transform="matrix(4.16667,0,0,4.16667,0,0)">
            <path d="M82.504,73.967L82.504,130.07L73.455,130.07L73.455,127.168C72.455,128.268 71.254,129.102 69.855,129.669C68.455,130.236 66.971,130.518 65.405,130.518C61.905,130.518 59.113,129.486 57.03,127.418C54.946,125.352 53.905,122.252 53.905,118.117L53.905,73.967L63.405,73.967L63.405,116.569C63.405,118.602 63.788,120.084 64.554,121.018C65.321,121.951 66.437,122.418 67.905,122.418C69.405,122.418 70.629,121.893 71.58,120.842C72.53,119.793 73.004,118.186 73.004,116.018L73.004,73.967L82.504,73.967Z" style="fill:white;fill-rule:nonzero;"/>
        </g>
        <g transform="matrix(4.16667,0,0,4.16667,0,0)">
            <path d="M124.96,144.725C123.893,145.875 122.542,146.45 120.909,146.45C119.242,146.45 117.876,145.875 116.81,144.725C115.742,143.575 115.21,141.985 115.21,139.95C115.21,137.95 115.742,136.384 116.81,135.25C117.876,134.117 119.242,133.551 120.909,133.551C122.576,133.551 123.935,134.117 124.984,135.25C126.034,136.384 126.56,137.95 126.56,139.95C126.56,141.985 126.026,143.575 124.96,144.725ZM135.657,10.944C135.657,9.778 135.933,8.895 136.482,8.295C137.032,7.694 137.808,7.395 138.808,7.395C139.773,7.395 140.724,7.662 141.657,8.194L144.008,1.495C143.273,1.028 142.34,0.678 141.207,0.444C140.074,0.212 138.907,0.094 137.707,0.094C134.141,0.094 131.365,1.061 129.382,2.995C127.398,4.928 126.407,7.545 126.407,10.844L126.407,93.919L126.409,93.919L126.409,128.801C124.643,126.934 122.143,126 118.909,126C118.858,126 118.811,126.009 118.76,126.009L118.76,85.568C118.76,81.535 117.734,78.517 115.685,76.517C113.635,74.517 110.926,73.517 107.56,73.517C105.826,73.517 104.226,73.81 102.76,74.392C101.292,74.976 100.025,75.818 98.959,76.918L98.959,73.967L89.909,73.967L89.909,130.068L99.409,130.068L99.409,87.967C99.409,85.835 99.9,84.234 100.885,83.168C101.867,82.101 103.176,81.568 104.81,81.568C107.775,81.568 109.26,83.418 109.26,87.117L109.26,129.965C108.53,130.736 107.882,131.596 107.335,132.575C106.151,134.693 105.56,137.151 105.56,139.95C105.56,142.75 106.151,145.217 107.335,147.35C108.518,149.485 110.126,151.125 112.159,152.276C114.192,153.426 116.442,154 118.909,154C122.442,154 125.093,152.95 126.859,150.85L126.859,153.551L135.909,153.551L135.909,87.825L135.907,87.825L135.907,18.645L142.107,18.645L142.107,11.545L135.657,11.545L135.657,10.944Z" style="fill:white;fill-rule:nonzero;"/>
        </g>
        <g transform="matrix(4.16667,0,0,4.16667,0,0)">
            <path d="M161.213,121.243C162.279,120.094 162.813,118.503 162.813,116.469C162.813,114.469 162.279,112.903 161.213,111.769C160.146,110.636 158.779,110.07 157.113,110.07C155.445,110.07 154.079,110.636 153.013,111.769C151.945,112.903 151.413,114.469 151.413,116.469C151.413,118.503 151.945,120.094 153.013,121.243C154.079,122.394 155.445,122.969 157.113,122.969C158.779,122.969 160.146,122.394 161.213,121.243ZM172.163,102.969L172.163,130.07L163.113,130.07L163.113,127.368C161.346,129.469 158.68,130.519 155.113,130.519C152.646,130.519 150.404,129.945 148.388,128.794C146.371,127.644 144.771,126.003 143.588,123.868C142.404,121.736 141.813,119.269 141.813,116.469C141.813,113.669 142.404,111.211 143.588,109.094C144.771,106.978 146.371,105.353 148.388,104.219C150.404,103.086 152.646,102.519 155.113,102.519C158.313,102.519 160.829,103.452 162.663,105.32L162.663,102.969L172.163,102.969Z" style="fill:white;fill-rule:nonzero;"/>
        </g>
        <g transform="matrix(4.16667,0,0,4.16667,0,0)">
            <path d="M172.164,28.312L172.164,94.413L163.114,94.413L163.114,91.512C162.114,92.612 160.914,93.446 159.515,94.012C158.114,94.579 156.631,94.862 155.064,94.862C151.564,94.862 148.772,93.829 146.689,91.762C144.605,89.696 143.564,86.596 143.564,82.462L143.564,28.312L153.064,28.312L153.064,80.913C153.064,82.946 153.447,84.429 154.214,85.362C154.98,86.296 156.097,86.762 157.564,86.762C159.064,86.762 160.289,86.237 161.239,85.187C162.189,84.137 162.664,82.53 162.664,80.362L162.664,28.312L172.164,28.312Z" style="fill:white;fill-rule:nonzero;"/>
        </g>
        <g transform="matrix(4.16667,0,0,4.16667,0,0)">
            <path d="M231.725,68.312L231.725,94.413L222.675,94.413L222.675,91.512C221.675,92.612 220.475,93.446 219.075,94.012C217.675,94.579 216.191,94.862 214.625,94.862C211.125,94.862 208.333,93.829 206.25,91.762C204.166,89.696 203.125,86.596 203.125,82.462L203.125,68.312L212.625,68.312L212.625,80.913C212.625,82.946 213.008,84.429 213.774,85.362C214.541,86.296 215.657,86.762 217.125,86.762C218.625,86.762 219.85,86.237 220.8,85.187C221.75,84.137 222.225,82.53 222.225,80.362L222.225,68.312L231.725,68.312Z" style="fill:white;fill-rule:nonzero;"/>
        </g>
        <g transform="matrix(4.16667,0,0,4.16667,0,0)">
            <path d="M252.205,68.936C250.655,69.553 249.396,70.477 248.43,71.71L248.43,68.311L239.38,68.311L239.38,94.413L248.88,94.413L248.88,83.11C248.88,80.844 249.455,79.161 250.605,78.061C251.755,76.96 253.347,76.411 255.38,76.411C255.946,76.411 256.663,76.46 257.53,76.561L257.53,68.01C255.53,68.01 253.755,68.319 252.205,68.936Z" style="fill:white;fill-rule:nonzero;"/>
        </g>
        <g transform="matrix(4.16667,0,0,4.16667,0,0)">
            <path d="M205.596,100.449C203.546,98.45 200.837,97.45 197.471,97.45C195.737,97.45 194.137,97.743 192.671,98.325C191.401,98.83 190.291,99.541 189.322,100.432L189.322,75.413L195.472,75.413L195.472,68.312L189.322,68.312L189.322,28.338L179.822,28.338L179.822,97.9L179.82,97.9L179.82,146.45L189.32,146.45L189.32,124.414L189.322,124.412L189.322,111.88C189.325,109.758 189.815,108.162 190.796,107.1C191.778,106.033 193.087,105.5 194.721,105.5C197.687,105.5 199.171,107.35 199.171,111.049L199.171,146.45L208.671,146.45L208.671,109.5C208.671,105.467 207.646,102.449 205.596,100.449Z" style="fill:white;fill-rule:nonzero;"/>
        </g>
        <g transform="matrix(4.16667,0,0,4.16667,0,0)">
            <path d="M267.776,88.8C266.771,88.8 265.907,89.064 265.185,89.593C264.463,90.122 263.973,90.825 263.715,91.701L272.226,93.365C272.123,91.894 271.672,90.767 270.872,89.98C270.073,89.193 269.041,88.8 267.776,88.8ZM266.888,99.633C269.261,99.633 270.847,98.796 271.646,97.118L256.673,94.256C256.673,92.037 257.177,90.122 258.183,88.509C259.187,86.898 260.536,85.673 262.225,84.834C263.915,83.997 265.779,83.577 267.816,83.577C270.008,83.577 271.988,84.041 273.755,84.97C275.521,85.898 276.908,87.181 277.914,88.819C278.92,90.458 279.423,92.307 279.423,94.371C279.423,96.461 278.913,98.331 277.895,99.981C276.876,101.631 275.438,102.92 273.58,103.849C271.724,104.778 269.57,105.242 267.119,105.242C263.174,105.242 260.207,104.107 258.221,101.837L262.051,97.814C262.8,98.46 263.541,98.924 264.275,99.207C265.011,99.491 265.882,99.633 266.888,99.633Z" style="fill:white;fill-rule:nonzero;"/>
        </g>
        <g transform="matrix(4.16667,0,0,4.16667,0,0)">
            <path d="M227.38,110.524C226.346,111.541 225.763,112.998 225.63,114.899L236.63,112.748C236.296,111.615 235.662,110.707 234.729,110.024C233.796,109.34 232.68,108.998 231.38,108.998C229.746,108.998 228.412,109.507 227.38,110.524ZM235.904,122.448C236.854,122.082 237.813,121.483 238.779,120.649L243.729,125.848C241.162,128.782 237.329,130.249 232.229,130.249C229.063,130.249 226.279,129.649 223.88,128.448C221.479,127.248 219.621,125.582 218.305,123.448C216.987,121.316 216.329,118.899 216.329,116.198C216.329,113.532 216.979,111.141 218.279,109.024C219.579,106.907 221.371,105.248 223.654,104.049C225.938,102.848 228.496,102.248 231.329,102.248C233.962,102.248 236.371,102.791 238.555,103.873C240.737,104.957 242.479,106.541 243.779,108.623C245.079,110.707 245.729,113.182 245.729,116.049L226.38,119.748C227.412,121.916 229.462,122.998 232.529,122.998C233.829,122.998 234.954,122.816 235.904,122.448Z" style="fill:white;fill-rule:nonzero;"/>
        </g>
    </g>
</svg>
