
<svg width="100%" height="100%" viewBox="0 0 232 67" version="1.1" xmlns="http://www.w3.org/2000/svg" style="fill-rule:evenodd;clip-rule:evenodd;stroke-linecap:round;stroke-linejoin:round;stroke-miterlimit:1.5;">
    <g>
        <path d="M33.481,2.542l7.296,23.494l23.632,-0l-19.122,14.52l7.306,23.494l-19.112,-14.52l-19.123,14.52l7.307,-23.494l-19.123,-14.52l23.633,-0l7.306,-23.494Z" style="fill:#00ff7b;stroke:#00ff7b;stroke-width:5.08px;"/>
    </g>
    <g>
        <path d="M115.721,2.542l7.296,23.494l23.632,-0l-19.122,14.52l7.306,23.494l-19.112,-14.52l-19.123,14.52l7.307,-23.494l-19.123,-14.52l23.633,-0l7.306,-23.494Z" style="fill:#00ff7b;stroke:#00ff7b;stroke-width:5.08px;"/>
    </g>
    <g>
        <path d="M197.971,2.542l7.296,23.494l23.632,-0l-19.122,14.52l7.306,23.494l-19.112,-14.52l-19.123,14.52l7.307,-23.494l-19.123,-14.52l23.633,-0l7.306,-23.494Z" style="fill:none;stroke:#00ff7b;stroke-width:5.08px;"/>
    </g>
</svg>
