<svg id="Layer_2" xmlns="http://www.w3.org/2000/svg" viewBox="0 0 174.35 326.48"><defs><style>.cls-1{fill:#fff;}.cls-2{fill:#00fe7e;}.cls-3{fill:#8150e8;}</style></defs><g id="Layer_1-2"><g><path class="cls-1" d="M0,124.82l13.73,170.33c0,17.3,32.88,31.33,73.44,31.33s73.44-14.02,73.44-31.33l13.73-170.33H0Z"/><ellipse class="cls-1" cx="87.18" cy="124.82" rx="87.18" ry="33.99"/><ellipse class="cls-3" cx="87.18" cy="129.36" rx="81.03" ry="29.45"/></g><path class="cls-2" d="M106.6,14.99c-.02-.33-.07-.65-.26-.95h0c-.16-.31-.41-.52-.68-.7-.02-.02-.05-.05-.07-.07L83.12,.28c-.65-.38-1.46-.38-2.12,0l-22.48,12.99-.07,.07c-.28,.18-.53,.39-.7,.7-.17,.3-.24,.63-.26,.95,0,.04-.02,.06-.02,.1v25.96c0,.74,.4,1.45,1.05,1.82l22.48,12.97s.06,.01,.1,.04c.3,.14,.61,.24,.96,.24s.66-.09,.95-.24c.03-.03,.07-.01,.11-.04l22.48-12.97c.64-.37,1.04-1.07,1.04-1.82V15.09s-.02-.06-.02-.1Z"/><path class="cls-2" d="M151.5,94.08l-6.25-25.2s-.04-.05-.05-.09c-.1-.31-.23-.62-.48-.86h0c-.23-.26-.52-.41-.83-.52-.03-.02-.06-.03-.09-.05l-24.94-7.19c-.72-.21-1.51-.01-2.05,.51l-18.69,18.02-.05,.09c-.23,.24-.43,.51-.51,.85-.09,.33-.08,.67-.02,.99,0,.04,0,.07,0,.1l6.25,25.2c.18,.72,.73,1.31,1.46,1.51l24.94,7.18s.06,0,.1,.01c.32,.07,.65,.09,.99,0,.34-.08,.62-.25,.86-.46,.02-.03,.07-.03,.1-.06l18.69-18c.53-.51,.75-1.29,.57-2.01Z"/><path class="cls-2" d="M78.12,105.46h0c-.07-.34-.24-.61-.45-.86-.02-.03-.03-.06-.05-.09l-17.91-18.78c-.51-.54-1.3-.77-2.03-.6l-25.22,6.14-.09,.05c-.32,.1-.62,.22-.87,.47-.24,.24-.41,.53-.51,.84-.01,.04-.04,.05-.05,.09l-7.3,24.91c-.21,.71-.02,1.5,.5,2.04l17.92,18.77s.06,.03,.08,.06c.24,.22,.51,.4,.85,.5,.34,.1,.66,.1,.98,.04,.04-.02,.07,0,.12,0l25.22-6.13c.72-.18,1.3-.74,1.51-1.45l7.3-24.91s0-.06,0-.1c.07-.32,.12-.65,.02-.99Z"/></g></svg>