<svg width="100%" height="100%" viewBox="0 0 184 157" version="1.1" xmlns="http://www.w3.org/2000/svg" style="fill-rule:evenodd;clip-rule:evenodd;stroke-linejoin:round;stroke-miterlimit:2;">
    <g>
        <path d="M56.356,56.067c-2.825,4.451 0.431,10.334 5.693,10.334l59.409,-0.01c5.064,0 8.395,-5.494 5.858,-10.012l-29.701,-52.947c-2.552,-4.553 -9.157,-4.595 -11.731,-0.01l-29.529,52.643l0.001,0.002Zm4.998,53.004l60.795,0l7.784,-17.47l53.568,0l-0,65.236l-183.501,-0l-0,-65.236l53.571,0l7.783,17.47Zm-13.109,-9.214l-39.987,0l-0,48.726l166.991,0l0,-48.726l-39.982,0l-7.782,17.47l-71.456,0l-7.784,-17.47Zm-45.251,-11.352l31.909,-46.936l26.04,0l-7.243,12.916c-4.051,6.49 0.713,15.012 8.35,15.012l59.409,-0.01c7.462,0 12.225,-8.085 8.553,-14.621l-7.46,-13.298l26.049,-0l31.91,46.936l-52.572,-0l-7.784,17.471l-56.802,-0l-7.78,-17.471l-52.579,-0l0,0.001Zm88.76,-36.311c2.05,-0 3.702,1.66 3.702,3.709c-0,2.043 -1.65,3.702 -3.702,3.702c-2.051,-0 -3.699,-1.658 -3.699,-3.702c-0,-2.049 1.647,-3.709 3.699,-3.709Zm-2.88,-2.751l-1.437,-26.926c-0.461,-8.543 9.096,-8.536 8.636,0l-1.437,26.926l-5.762,-0Z" style="fill:#00ff7b;"/>
    </g>
</svg>
