<svg id="Layer_2" xmlns="http://www.w3.org/2000/svg" viewBox="0 0 237.52 237.52"><defs><style>.cls-1{fill:#fff;}.cls-2{fill:#00fe7e;}.cls-3{fill:#8150e8;}</style></defs><g id="Layer_1-2"><g><path class="cls-2" d="M223.76,63.27c-14.72-27.85-39.89-48.71-69.99-58C123.67-4.01,91.12-.96,63.27,13.76,35.42,28.48,14.56,53.65,5.28,83.75c-9.28,30.1-6.23,62.65,8.48,90.5,14.72,27.85,39.89,48.71,69.99,58,30.1,9.28,62.65,6.23,90.5-8.48,27.85-14.72,48.71-39.89,58-69.99,9.28-30.1,6.23-62.65-8.48-90.5Z"/><circle class="cls-1" cx="149.33" cy="84.81" r="65.47"/><path class="cls-3" d="M159.63,45.64c-.46-4.43,.38-8.9,2.42-12.86-11.35-.9-22.54,3.11-30.74,11.02-8.2,7.91-12.61,18.95-12.12,30.32,.49,11.38,5.83,22,14.67,29.18,8.84,7.17,20.34,10.22,31.57,8.35,11.23-1.86,21.13-8.45,27.18-18.1,6.05-9.65,7.67-21.42,4.46-32.35-4.32,3.51-9.77,5.33-15.33,5.13-5.56-.2-10.87-2.4-14.93-6.21-4.06-3.8-6.61-8.95-7.17-14.49h0Z"/></g></g></svg>