<svg id="Layer_2" xmlns="http://www.w3.org/2000/svg" viewBox="0 0 226.34 231.35"><defs><style>.cls-1{fill:#fff;}.cls-2{fill:#00fe7e;}.cls-3{fill:#8150e8;}</style></defs><g id="Layer_1-2"><path class="cls-1" d="M220.74,120.93c-.01-29.27-11.66-57.34-32.36-78.03-20.71-20.69-48.79-32.3-78.06-32.29-29.27,.01-57.34,11.66-78.03,32.36C11.6,63.69-.01,91.76,0,121.04c.01,29.27,11.66,57.34,32.36,78.03,20.71,20.69,48.79,32.3,78.06,32.29,29.27-.01,57.34-11.66,78.03-32.36,20.69-20.71,32.3-48.79,32.29-78.06Z"/><path class="cls-2" d="M226.34,110.31c-.01-29.27-11.66-57.34-32.36-78.03C173.26,11.6,145.19-.01,115.91,0c-29.27,.01-57.34,11.66-78.03,32.36C17.2,53.07,5.59,81.15,5.6,110.42c.01,29.27,11.66,57.34,32.36,78.03,20.71,20.69,48.79,32.3,78.06,32.29,29.27-.01,57.34-11.66,78.03-32.36,20.69-20.71,32.3-48.79,32.29-78.06Z"/><rect class="cls-1" x="106.28" y="8.18" width="10.75" height="220.73" transform="translate(-45.3 161.96) rotate(-62.17)"/><path class="cls-2" d="M226.34,110.31c-.01-29.27-11.66-57.34-32.36-78.03C173.26,11.6,145.19-.01,115.91,0c-29.27,.01-57.34,11.66-78.03,32.36C17.2,53.07,5.59,81.15,5.6,110.42c.01,29.27,11.66,57.34,32.36,78.03,20.71,20.69,48.79,32.3,78.06,32.29,29.27-.01,57.34-11.66,78.03-32.36,20.69-20.71,32.3-48.79,32.29-78.06Z"/><g><path class="cls-3" d="M176.27,54.26c-15.14-19.93-38.12-31.35-63.06-31.35-23.29,0-45.32,10.25-60.44,28.1-1.48,1.77-1.27,4.4,.49,5.88,1.74,1.48,4.4,1.27,5.88-.49,13.53-15.97,33.22-25.13,54.07-25.13,22.32,0,42.88,10.22,56.41,28.05,.83,1.09,2.08,1.64,3.33,1.64,.88,0,1.77-.29,2.52-.86,1.85-1.38,2.21-4.01,.81-5.83h0Z"/><path class="cls-3" d="M48.74,63.59c-2.03-1.07-4.55-.31-5.65,1.72-6.01,11.21-9.19,23.94-9.19,36.84v51.15c0,2.32,1.87,4.16,4.16,4.16s4.16-1.87,4.16-4.16v-51.15c0-11.55,2.84-22.92,8.17-32.91,1.12-2.03,.36-4.55-1.67-5.65h0Z"/><path class="cls-3" d="M184.11,153.23c0,2.32,1.87,4.16,4.16,4.16s4.16-1.87,4.16-4.16v-51.07c0-11.79-2.53-23.08-7.5-33.59-1.01-2.08-3.49-2.97-5.57-1.98-2.08,.99-2.97,3.46-1.98,5.57,4.45,9.37,6.69,19.46,6.69,30v51.07h.03Z"/><path class="cls-3" d="M161,61.83c-11.99-14.13-29.43-22.24-47.82-22.24-3.93,0-7.81,.36-11.55,1.07-2.26,.44-3.75,2.63-3.3,4.89,.44,2.26,2.68,3.75,4.89,3.3,3.23-.62,6.58-.94,9.99-.94,15.92,0,31.04,7.03,41.5,19.33,1.46,1.69,2.76,3.43,4.01,5.39,5.72,8.74,8.74,18.94,8.74,29.5v69.34c0,2.32,1.87,4.16,4.16,4.16s4.16-1.87,4.16-4.16V102.16c0-12.18-3.49-23.96-10.1-34.03-1.48-2.32-3.02-4.4-4.68-6.3h0Z"/><path class="cls-3" d="M89.69,53.35c2.08-.99,2.97-3.49,1.98-5.57-1.01-2.08-3.51-2.97-5.57-1.98-21.57,10.28-35.51,32.39-35.51,56.33v69.44c0,2.32,1.87,4.16,4.16,4.16s4.16-1.87,4.16-4.16V102.15c.02-20.74,12.1-39.91,30.78-48.81h0Z"/><path class="cls-3" d="M152.13,78.03c-8.43-13.63-23-21.75-38.92-21.75-25.32,0-45.9,20.58-45.9,45.9v16.1c0,2.32,1.87,4.16,4.16,4.16s4.16-1.87,4.16-4.16v-16.1c0-20.71,16.83-37.54,37.54-37.54,13.03,0,24.92,6.66,31.82,17.8,1.22,1.98,3.8,2.55,5.75,1.35,2-1.22,2.6-3.8,1.38-5.75h0Z"/><path class="cls-3" d="M71.45,127.7c-2.32,0-4.16,1.87-4.16,4.16v50.73c0,2.32,1.87,4.16,4.16,4.16s4.16-1.87,4.16-4.16v-50.73c.03-2.32-1.85-4.16-4.16-4.16h0Z"/><path class="cls-3" d="M153.2,89.72c-2.26,.49-3.69,2.71-3.2,4.97,.49,2.26,.73,4.76,.73,7.47v80.37c0,2.32,1.87,4.16,4.16,4.16s4.16-1.87,4.16-4.16V102.15c0-3.28-.31-6.4-.94-9.24-.47-2.24-2.63-3.69-4.92-3.2h0Z"/><path class="cls-3" d="M135.01,82.88c-9.91-11.34-28.41-12.96-40.3-3.33-1.79,1.46-2.08,4.09-.62,5.88,1.46,1.79,4.09,2.08,5.85,.62,8.64-6.95,21.67-5.83,28.83,2.37,1.72,1.93,3.12,4.29,4.06,6.89,.81,2.08,1.22,4.4,1.22,6.84v87.03c0,2.32,1.87,4.16,4.16,4.16s4.16-1.87,4.16-4.16V102.15c0-3.49-.6-6.79-1.75-9.76-1.25-3.51-3.22-6.82-5.62-9.52h0Z"/><path class="cls-3" d="M89.74,92.32c-2.26-.52-4.5,.91-5,3.15-.52,2.29-.78,4.48-.78,6.69v87.03c0,2.32,1.87,4.16,4.16,4.16s4.16-1.87,4.16-4.16V102.16c0-1.56,.18-3.15,.57-4.84,.55-2.24-.88-4.48-3.12-5h0Z"/><path class="cls-3" d="M121.53,145.14c-2.32,0-4.16,1.87-4.16,4.16v42.98c0,2.32,1.87,4.16,4.16,4.16s4.16-1.87,4.16-4.16v-42.98c0-2.32-1.87-4.16-4.16-4.16Z"/><path class="cls-3" d="M113.18,89.64c-6.89,0-12.52,5.62-12.52,12.52v90.12c0,2.32,1.87,4.16,4.16,4.16s4.16-1.87,4.16-4.16V102.16c0-2.29,1.87-4.16,4.16-4.16s4.16,1.87,4.16,4.16v27.87c0,2.32,1.87,4.16,4.16,4.16s4.16-1.87,4.16-4.16v-27.87c.05-6.89-5.57-12.52-12.46-12.52h0Z"/></g></g></svg>