<svg width="100%" height="100%" viewBox="0 0 766 1345" version="1.1" xmlns="http://www.w3.org/2000/svg" style="fill-rule:evenodd;clip-rule:evenodd;stroke-linecap:round;stroke-linejoin:round;stroke-miterlimit:1.5;">
    <g>
        <path d="M583.719,710.978c0,-16.248 -9.892,-35.146 -22.082,-42.184l-535.212,-309.005c-12.186,-7.035 -22.08,0.439 -22.08,16.687l0,610.128c0,16.248 9.894,35.147 22.08,42.182l535.212,309.004c12.19,7.039 22.082,-0.436 22.082,-16.685l0,-610.127Z" style="fill:none;stroke:#00fe7e;stroke-width:34px;"/>
    </g>
    <g>
        <path d="M754.967,1235.58c3.996,-3.025 6.47,-8.953 6.47,-17.077l0,-610.127c0,-16.248 -9.892,-35.146 -22.082,-42.184l-154.779,-89.362" style="fill:none;stroke:#00fe7e;stroke-width:34px;"/>
    </g>
    <g>
        <path d="M480.476,416.725l-208.656,-120.467" style="fill:none;stroke:#00fe7e;stroke-width:34px;"/>
    </g>
    <g>
        <path d="M276.604,136.194c-3.115,10.571 -4.784,22.679 -4.784,36.201l-0,203.397" style="fill:none;stroke:#00fe7e;stroke-width:34px;"/>
    </g>
    <g>
        <path d="M167.963,168.167c3.07,-123.111 118.681,-204.126 224.635,-142.953c105.953,61.172 191.979,210.167 191.979,332.511l0,119.095" style="fill:none;stroke:#00fe7e;stroke-width:34px;"/>
    </g>
    <g>
        <path d="M584.577,476.82l0,8.361" style="fill:none;stroke:#00fe7e;stroke-width:34px;"/>
    </g>
    <g>
        <path d="M167.721,375.264l-0,-206.957" style="fill:none;stroke:#00fe7e;stroke-width:34px;"/>
    </g>
    <g>
        <path d="M480.477,485.485l-0,-130.411c-0,-76.971 -54.122,-170.713 -120.781,-209.199c-66.659,-38.485 -120.778,-7.236 -120.778,69.735l-0,39.763" style="fill:none;stroke:#00fe7e;stroke-width:34px;"/>
    </g>
    <g>
        <path d="M278.719,817.318c-24.855,-22.123 -43.157,-58.94 -43.157,-90.081c-0,-37.265 26.2,-52.39 58.47,-33.759c32.272,18.633 58.471,64.01 58.471,101.274c-0,31.142 -18.3,46.827 -43.155,40.25l-0,178.184l-30.629,-17.684l-0,-178.184Z" style="fill:none;stroke:#00fe7e;stroke-width:34px;"/>
    </g>
    <path d="M167.72,268.83l-155.604,89.84" style="fill:none;stroke:#00fe7e;stroke-width:34px;"/>
    <g>
        <path d="M754.797,1235.78l-176.315,101.8" style="fill:none;stroke:#00fe7e;stroke-width:34px;"/>
    </g>
    <path d="M278.721,817.32l71.87,-41.5" style="fill:none;stroke:#00fe7e;stroke-width:34px;"/>
    <path d="M309.341,835l41.47,-23.94" style="fill:none;stroke:#00fe7e;stroke-width:34px;"/>
    <path d="M278.721,995.5l30.51,-17.62" style="fill:none;stroke:#00fe7e;stroke-width:34px;"/>
    <g>
        <path d="M271.932,375.855c-0,14.63 -23.287,26.51 -51.97,26.51c-28.684,0 -51.971,-11.88 -51.971,-26.51" style="fill:none;stroke:#00fe7e;stroke-width:34px;"/>
    </g>
    <g>
        <path d="M271.82,363.755c3.31,3.686 5.156,7.789 5.156,12.101c-0,16.05 -25.547,29.083 -57.014,29.083c-31.468,-0 -57.016,-13.033 -57.016,-29.083c0,-4.147 1.704,-8.086 4.774,-11.662" style="fill:none;stroke:#00fe7e;stroke-width:8.7px;"/>
    </g>
    <g>
        <path d="M489.904,523.519c23.045,-13.306 60.588,-13.235 83.784,0.157c23.195,13.392 23.317,35.067 0.272,48.373c-23.046,13.305 -60.588,13.235 -83.784,-0.158c-23.196,-13.392 -23.318,-35.067 -0.272,-48.372Z" style="fill:none;stroke:#00fe7e;stroke-width:8.7px;"/>
    </g>
    <g>
        <path d="M584.535,485.415c0,14.63 -23.287,26.51 -51.97,26.51c-28.684,0 -51.971,-11.88 -51.971,-26.51" style="fill:none;stroke:#00fe7e;stroke-width:34px;"/>
    </g>
</svg>
