<svg width="100%" height="100%" viewBox="0 0 533 469" style="fill-rule:evenodd;clip-rule:evenodd;stroke-linecap:round;stroke-linejoin:round;stroke-miterlimit:1.5;">
    <g transform="matrix(1,0,0,1,-5321,-2434)">
        <g id="Artboard4" transform="matrix(1,0,0,1,-0.0333926,0)">
            <rect x="5321.03" y="2434" width="532" height="468.238" style="fill:none;"/>
            <g transform="matrix(1,0,0,1,5045.58,-722.983)">
                <g id="noun-spam-2866206.svg" transform="matrix(0.361016,0,0,0.361016,529.049,3433.38)">
                    <g transform="matrix(1,0,0,1,-350,-350)">
                        <g>
                            <path d="M251.96,218.09C244.136,230.418 253.155,246.715 267.73,246.715L432.29,246.688C446.317,246.688 455.544,231.469 448.517,218.954L366.247,72.294C359.177,59.681 340.88,59.564 333.751,72.266L251.958,218.086L251.96,218.09ZM265.804,364.91L434.204,364.91L455.766,316.519L604.146,316.519L604.146,497.219L95.856,497.219L95.856,316.519L244.246,316.519L265.804,364.91ZM229.493,339.387L118.73,339.387L118.73,474.357L581.29,474.357L581.29,339.387L470.54,339.387L448.985,387.778L251.055,387.778L229.493,339.387ZM104.15,307.942L192.537,177.932L264.666,177.932L244.604,213.709C233.381,231.686 246.577,255.291 267.733,255.291L432.293,255.264C452.961,255.264 466.156,232.869 455.984,214.764L435.32,177.928L507.476,177.928L595.863,307.938L450.243,307.938L428.681,356.333L271.341,356.333L249.79,307.938L104.15,307.938L104.15,307.942ZM350.01,207.362C355.69,207.362 360.264,211.96 360.264,217.635C360.264,223.295 355.694,227.889 350.01,227.889C344.33,227.889 339.764,223.299 339.764,217.635C339.764,211.959 344.327,207.362 350.01,207.362ZM342.033,199.741L338.053,125.159C336.776,101.495 363.248,101.514 361.975,125.159L357.994,199.741L342.033,199.741Z" style="fill:rgb(0,255,123);"/>
                        </g>
                    </g>
                </g>
                <g transform="matrix(1,0,0,1,-2204,476.754)">
                    <g transform="matrix(0.540865,0,0,0.783819,1147.27,2159.89)">
                        <rect x="2653.77" y="793.943" width="554.667" height="382.741" style="fill:none;stroke:rgb(34,215,150);stroke-width:5.26px;"/>
                    </g>
                    <g transform="matrix(0.558894,0,0,0.809946,1094.43,2134.15)">
                        <rect x="2653.77" y="793.943" width="554.667" height="382.741" style="fill:none;stroke:rgb(34,215,150);stroke-width:5.09px;"/>
                    </g>
                    <g transform="matrix(0.585937,0,0,0.849137,1015.16,2095.53)">
                        <rect x="2653.77" y="793.943" width="554.667" height="382.741" style="fill:none;stroke:rgb(34,215,150);stroke-width:9.4px;"/>
                    </g>
                </g>
            </g>
        </g>
    </g>
</svg>
