
<svg width="100%" height="100%" viewBox="0 0 158 158" version="1.1" xmlns="http://www.w3.org/2000/svg"  style="fill-rule:evenodd;clip-rule:evenodd;stroke-linejoin:round;stroke-miterlimit:2;">
    <g id="noun-compression-1099400.svg">
        <g>
            <g>
                <path d="M7.042,14.405l7.359,-7.36l11.655,11.655l4.387,-4.386l1.507,17.639l-17.639,-1.507l4.386,-4.386l-11.655,-11.655Z" style="fill:#00ff7b;fill-rule:nonzero;"/>
                <path d="M150.905,14.405l-7.361,-7.36l-11.654,11.654l-4.388,-4.386l-1.507,17.639l17.639,-1.507l-4.386,-4.387l11.657,-11.653Z" style="fill:#00ff7b;fill-rule:nonzero;"/>
                <path d="M7.042,143.543l7.359,7.36l11.655,-11.655l4.387,4.386l1.507,-17.639l-17.639,1.507l4.386,4.386l-11.655,11.655Z" style="fill:#00ff7b;fill-rule:nonzero;"/>
                <path d="M150.905,143.543l-7.36,7.36l-11.655,-11.655l-4.386,4.386l-1.507,-17.639l17.639,1.507l-4.386,4.386l11.655,11.655Z" style="fill:#00ff7b;fill-rule:nonzero;"/>
                <path d="M78.973,-0l-78.973,78.973l78.973,78.974l78.974,-78.974l-78.974,-78.973Zm0.014,4.429l74.529,74.53l-74.557,74.557l-74.53,-74.529l74.558,-74.558Z" style="fill:#00ff7b;fill-rule:nonzero;"/>
                <path d="M78.973,5.1l-73.874,73.874l73.874,73.872l73.872,-73.872l-73.872,-73.874Zm0,4.086l69.788,69.788l-69.788,69.788l-69.788,-69.788l69.788,-69.788Z" style="fill:#00ff7b;fill-rule:nonzero;"/>
                <path d="M78.986,10.215l-68.773,68.772l68.745,68.744l68.772,-68.772l-68.744,-68.744Zm-0.014,3.743l65.015,65.015l-65.015,65.015l-65.015,-65.015l65.015,-65.015Z" style="fill:#00ff7b;fill-rule:nonzero;"/>
                <path d="M78.973,15.328l-63.645,63.645l63.645,63.646l63.646,-63.646l-63.646,-63.645Zm0,3.401l60.246,60.245l-60.246,60.245l-60.245,-60.245l60.245,-60.245Z" style="fill:#00ff7b;fill-rule:nonzero;"/>
                <path d="M78.973,20.429l-58.543,58.544l58.543,58.543l58.544,-58.543l-58.544,-58.544Zm0,3.072l55.473,55.472l-55.473,55.472l-55.475,-55.472l55.475,-55.472Z" style="fill:#00ff7b;fill-rule:nonzero;"/>
                <path d="M78.973,25.528l-53.445,53.445l53.445,53.445l53.445,-53.445l-53.445,-53.445Zm0.014,2.729l50.702,50.703l-50.73,50.731l-50.703,-50.703l50.731,-50.731Z" style="fill:#00ff7b;fill-rule:nonzero;"/>
                <path d="M78.973,56.159l-22.815,22.815l22.815,22.814l22.815,-22.814l-22.815,-22.815Zm0,0.712l22.101,22.101l-22.101,22.101l-22.101,-22.101l22.101,-22.101Z" style="fill:#00ff7b;fill-rule:nonzero;"/>
                <path d="M78.986,30.643l-48.343,48.343l48.318,48.318l48.343,-48.343l-48.318,-48.318Zm-0,2.386l45.93,45.93l-45.958,45.958l-45.93,-45.93l45.958,-45.958Z" style="fill:#00ff7b;fill-rule:nonzero;"/>
                <path d="M78.973,35.757l-43.216,43.216l43.216,43.216l43.216,-43.216l-43.216,-43.216Zm0,2.03l41.189,41.188l-41.189,41.189l-41.188,-41.189l41.188,-41.188Z" style="fill:#00ff7b;fill-rule:nonzero;"/>
                <path d="M78.973,40.859l-38.114,38.114l38.114,38.114l38.114,-38.114l-38.114,-38.114Zm0,1.701l36.416,36.415l-36.416,36.416l-36.415,-36.416l36.415,-36.415Z" style="fill:#00ff7b;fill-rule:nonzero;"/>
                <path d="M78.973,45.958l-33.015,33.015l33.015,33.015l33.015,-33.015l-33.015,-33.015Zm0,1.371l31.646,31.646l-31.646,31.642l-31.642,-31.645l31.642,-31.643Z" style="fill:#00ff7b;fill-rule:nonzero;"/>
                <path d="M78.986,51.073l-27.915,27.914l27.888,27.888l27.914,-27.915l-27.887,-27.887Zm-0.014,1.028l26.873,26.873l-26.873,26.872l-26.873,-26.872l26.873,-26.873Z" style="fill:#00ff7b;fill-rule:nonzero;"/>
            </g>
        </g>
    </g>
</svg>
