<?xml version="1.0" encoding="UTF-8" standalone="no"?>
<!DOCTYPE svg PUBLIC "-//W3C//DTD SVG 1.1//EN" "http://www.w3.org/Graphics/SVG/1.1/DTD/svg11.dtd">
<svg width="100%" height="100%" viewBox="0 0 1154 749" version="1.1" xmlns="http://www.w3.org/2000/svg" xmlns:xlink="http://www.w3.org/1999/xlink" xml:space="preserve" xmlns:serif="http://www.serif.com/" style="fill-rule:evenodd;clip-rule:evenodd;stroke-linecap:round;stroke-linejoin:round;stroke-miterlimit:1.5;">
    <rect id="Artboard2" x="0" y="0" width="1153.2" height="748.925" style="fill:none;"/>
    <g>
        <ellipse cx="139.146" cy="209.569" rx="113.961" ry="115.4" style="fill:#fff;stroke:#000;stroke-width:2px;"/>
        <g>
            <g>
                <ellipse cx="128.386" cy="316.985" rx="21.178" ry="21.201" style="fill:#fff;stroke:#000;stroke-width:1px;"/>
                <path d="M139.747,338.411c-3.495,1.877 -7.501,2.943 -11.759,2.943c-13.589,0 -24.622,-10.868 -24.622,-24.255c-0,-13.388 11.033,-24.256 24.622,-24.256c13.589,-0 24.622,10.868 24.622,24.256c0,5.603 -1.933,10.766 -5.178,14.875c0.163,0.122 0.313,0.265 0.447,0.43l26.481,32.593c0.882,1.086 0.717,2.684 -0.369,3.566l-3.936,3.198c-1.086,0.882 -2.684,0.717 -3.567,-0.369l-26.48,-32.593c-0.101,-0.123 -0.188,-0.253 -0.261,-0.388Zm-11.522,-42.349c11.727,-0 21.248,9.432 21.248,21.051c-0,11.618 -9.521,21.051 -21.248,21.051c-11.727,0 -21.248,-9.433 -21.248,-21.051c0,-11.619 9.521,-21.051 21.248,-21.051Z" style="fill:#fff;stroke:#000;stroke-width:2px;"/>
                <ellipse cx="150.656" cy="300.057" rx="1.364" ry="1.338" style="fill:#fff;stroke:#000;stroke-width:2px;"/>
                <ellipse cx="143.931" cy="289.225" rx="1.558" ry="1.597" style="fill:#fff;stroke:#000;stroke-width:2px;"/>
                <ellipse cx="145.903" cy="295.273" rx="1.922" ry="1.974" style="fill:#fff;stroke:#000;stroke-width:2px;"/>
                <ellipse cx="139.538" cy="292.596" rx="1.364" ry="1.285" style="fill:#fff;stroke:#000;stroke-width:2px;"/>
                <ellipse cx="149.388" cy="290.786" rx="1.364" ry="1.338" style="fill:#fff;stroke:#000;stroke-width:2px;"/>
                <ellipse cx="135.267" cy="319.339" rx="2.519" ry="2.582" style="fill:#fff;stroke:#000;stroke-width:2px;"/>
                <ellipse cx="140.503" cy="328.674" rx="3.106" ry="3.19" style="fill:#fff;stroke:#000;stroke-width:2px;"/>
                <ellipse cx="130.56" cy="326.002" rx="2.205" ry="2.077" style="fill:#fff;stroke:#000;stroke-width:2px;"/>
                <ellipse cx="143.268" cy="319.166" rx="2.205" ry="2.163" style="fill:#fff;stroke:#000;stroke-width:2px;"/>
                <ellipse cx="131.807" cy="299.722" rx="2.519" ry="2.582" style="fill:#fff;stroke:#000;stroke-width:2px;"/>
                <ellipse cx="137.043" cy="309.057" rx="3.106" ry="3.19" style="fill:#fff;stroke:#000;stroke-width:2px;"/>
                <ellipse cx="152.962" cy="295.153" rx="1.678" ry="1.638" style="fill:#fff;stroke:#000;stroke-width:2px;"/>
                <ellipse cx="128.19" cy="306.721" rx="2.205" ry="2.077" style="fill:#fff;stroke:#000;stroke-width:2px;"/>
                <path d="M113.762,313.584c0.64,-1.234 2.186,-1.704 3.451,-1.048c1.266,0.655 1.773,2.19 1.134,3.424c-0.64,1.234 -2.186,1.704 -3.451,1.048c-1.265,-0.655 -1.773,-2.189 -1.134,-3.424Z" style="fill:#fff;stroke:#000;stroke-width:2px;"/>
                <path d="M124.002,313.83c0.788,-1.522 2.698,-2.1 4.261,-1.29c1.563,0.81 2.192,2.703 1.404,4.225c-0.789,1.522 -2.699,2.1 -4.262,1.29c-1.563,-0.81 -2.192,-2.703 -1.403,-4.225Z" style="fill:#fff;stroke:#000;stroke-width:2px;"/>
                <path d="M117.961,321.062c0.56,-1.081 1.841,-1.53 2.859,-1.003c1.017,0.528 1.389,1.833 0.829,2.914c-0.56,1.08 -1.841,1.53 -2.859,1.002c-1.017,-0.527 -1.389,-1.833 -0.829,-2.913Z" style="fill:#fff;stroke:#000;stroke-width:2px;"/>
                <path d="M117.662,306.594c0.56,-1.081 1.875,-1.513 2.935,-0.963c1.06,0.549 1.465,1.872 0.905,2.953c-0.56,1.081 -1.875,1.512 -2.935,0.963c-1.06,-0.549 -1.465,-1.873 -0.905,-2.953Z" style="fill:#fff;stroke:#000;stroke-width:2px;"/>
            </g>
        </g>
        <ellipse cx="151.872" cy="184.473" rx="5.391" ry="5.461" style="fill:#ffba00;stroke:#000;stroke-width:2px;"/>
        <ellipse cx="87.822" cy="222.504" rx="5.391" ry="5.461" style="fill:#ffba00;stroke:#000;stroke-width:2px;"/>
        <ellipse cx="135.579" cy="257.747" rx="5.391" ry="5.461" style="fill:#ffba00;stroke:#000;stroke-width:2px;"/>
        <ellipse cx="119.216" cy="161.961" rx="5.391" ry="5.461" style="fill:#ffba00;stroke:#000;stroke-width:2px;"/>
        <ellipse cx="208.677" cy="232.188" rx="5.391" ry="5.461" style="fill:#ffba00;stroke:#000;stroke-width:2px;"/>
        <ellipse cx="143.298" cy="226.454" rx="5.391" ry="5.461" style="fill:#ffba00;stroke:#000;stroke-width:2px;"/>
        <ellipse cx="182.618" cy="162.836" rx="5.391" ry="5.461" style="fill:#ffba00;stroke:#000;stroke-width:2px;"/>
        <ellipse cx="71.501" cy="177.356" rx="5.391" ry="5.461" style="fill:#ffba00;stroke:#000;stroke-width:2px;"/>
        <g transform="matrix(1,0,0,1,-863.371,-528.045)">
            <text x="910.86px" y="578.776px" style="font-family:'Helvetica';font-size:18px;">Particulate matter (</text>
            <text x="1062.91px" y="578.776px" style="font-family:'Helvetica-Bold', 'Helvetica';font-weight:700;font-size:18px;">2.5</text>
            <text x="1087.93px" y="578.776px" style="font-family:'Helvetica';font-size:18px;">)</text>
        </g>
        <g transform="matrix(1,0,0,1,-878.225,-63.9354)">
            <text x="910.86px" y="578.776px" style="font-family:'Helvetica';font-size:14px;">Particles smaller than 2.5 microns.</text>
            <text x="910.86px" y="596.776px" style="font-family:'Helvetica';font-size:14px;">Includes</text>
            <text x="966.895px" y="596.776px" style="font-family:'Helvetica-Bold', 'Helvetica';font-weight:700;font-size:14px;">smoke</text>
            <text x="1011.25px" y="596.776px" style="font-family:'Helvetica';font-size:14px;">, i</text>
            <text x="1022.14px" y="596.776px" style="font-family:'Helvetica-Bold', 'Helvetica';font-weight:700;font-size:14px;">ndustrial</text>
            <text x="910.86px" y="614.776px" style="font-family:'Helvetica-Bold', 'Helvetica';font-weight:700;font-size:14px;">emissions</text>
            <text x="983.226px" y="614.776px" style="font-family:'Helvetica';font-size:14px;">and burning</text>
            <text x="1061.07px" y="614.776px" style="font-family:'Helvetica-Bold', 'Helvetica';font-weight:700;font-size:14px;">candles</text>
            <text x="1113.2px" y="614.776px" style="font-family:'Helvetica';font-size:14px;">.</text>
        </g>
        <g>
            <path d="M208.509,433.684c0,-2.774 -2.251,-5.025 -5.025,-5.025l-127.622,-0c-2.773,-0 -5.025,2.251 -5.025,5.025c-0,2.774 2.252,5.026 5.025,5.026l127.622,-0c2.774,-0 5.025,-2.252 5.025,-5.026Z" style="fill:#fff;stroke:#000;stroke-width:2px;"/>
            <ellipse cx="109.951" cy="433.614" rx="19.994" ry="20.329" style="fill:#ffba00;stroke:#000;stroke-width:2px;"/>
            <text x="99.784px" y="439.608px" style="font-family:'Helvetica-Bold', 'Helvetica';font-weight:700;font-size:18px;">26</text>
            <path d="M35.101,428.121c0.245,2.756 0.344,12.215 -0.036,14.802c-0.047,0.316 0.317,0.72 0.636,0.716c3.304,-0.042 16.579,1.65 20.028,0.191c1.505,-0.637 1.242,-3.115 1.483,-3.585c0.178,-0.346 1.874,-1.398 1.991,-2.583c0.102,-1.037 -0.116,-1.655 -0.839,-2.435c-0.296,-0.32 1.663,-1.294 1.696,-2.433c0.028,-0.965 -1.093,-2.169 -1.008,-2.971c0.108,-1.017 1.179,-2.277 0.606,-3.455c-0.4,-0.824 -1.118,-1.962 -2.489,-2.351c-1.729,-0.49 -6.57,0.061 -8.015,-0.089c-0.347,-0.036 -0.743,-0.475 -0.658,-0.813c0.329,-1.31 2.239,-5.077 2.633,-7.042c0.375,-1.868 -0.636,-4.4 -1.681,-4.947c-0.825,-0.432 -2.194,-0.143 -2.723,0.624c-0.796,1.155 -0.076,5.128 -2.053,6.308c-3.306,1.974 -6.957,6.056 -7.144,8.334c-0.08,0.968 -2.513,0.762 -2.427,1.729Z" style="fill:#fff;stroke:#000;stroke-width:2px;"/>
            <path d="M243.191,438.88c-0.244,-2.756 -0.344,-12.215 0.037,-14.802c0.046,-0.316 -0.318,-0.72 -0.637,-0.716c-3.304,0.042 -16.578,-1.65 -20.027,-0.19c-1.505,0.636 -1.242,3.115 -1.483,3.584c-0.178,0.346 -1.875,1.399 -1.992,2.583c-0.102,1.037 0.116,1.655 0.839,2.435c0.296,0.32 -1.663,1.294 -1.696,2.433c-0.027,0.966 1.093,2.169 1.008,2.972c-0.108,1.017 -1.178,2.276 -0.606,3.454c0.4,0.824 1.119,1.962 2.489,2.351c1.729,0.49 6.57,-0.061 8.016,0.09c0.346,0.036 0.743,0.474 0.658,0.813c-0.329,1.309 -2.239,5.076 -2.634,7.041c-0.374,1.868 0.636,4.4 1.681,4.947c0.825,0.433 2.195,0.143 2.723,-0.623c0.796,-1.156 0.076,-5.129 2.053,-6.309c3.306,-1.974 6.957,-6.056 7.144,-8.334c0.08,-0.968 2.513,-0.762 2.427,-1.729Z" style="fill:#fff;stroke:#000;stroke-width:2px;"/>
        </g>
    </g>
    <g>
        <ellipse cx="718.35" cy="215.135" rx="113.961" ry="115.4" style="fill:#fff;stroke:#000;stroke-width:2px;"/>
        <g>
            <path d="M703.578,307.22l-29.126,51.693c0,9.51 9.115,17.232 20.342,17.232l44.016,-0c11.227,-0 20.342,-7.722 20.342,-17.232l-29.54,-51.693l0,-7.895c0,-3.043 -2.916,-5.513 -6.508,-5.513l-13.018,-0c-3.592,-0 -6.508,2.47 -6.508,5.513l-0,7.895Z" style="fill:#fff;stroke:#000;stroke-width:2px;"/>
            <path d="M759.152,358.913c-8.295,-1.392 -18.012,1.477 -26.562,0.834c-18.978,-1.428 -37.358,-4.7 -58.138,-0.834c0,9.51 9.115,17.232 20.342,17.232l44.016,-0c11.227,-0 20.342,-7.722 20.342,-17.232Z" style="fill:#ffba00;stroke:#000;stroke-width:2px;"/>
        </g>
        <path d="M621.802,194.091c-1.363,5.731 -0.913,23.831 2.371,30.667c2.915,6.068 13.672,6.199 17.336,10.354c3.374,3.826 3.592,15.272 4.652,14.579c1.061,-0.693 3.783,-13.379 1.711,-18.737c-2.072,-5.357 -11.823,-7.341 -14.143,-13.408c-2.586,-6.763 0.615,-23.26 -1.373,-27.169c-1.69,-3.324 -9.69,0.086 -10.554,3.714Z" style="fill:none;"/>
        <clipPath id="_clip1">
            <path d="M621.802,194.091c-1.363,5.731 -0.913,23.831 2.371,30.667c2.915,6.068 13.672,6.199 17.336,10.354c3.374,3.826 3.592,15.272 4.652,14.579c1.061,-0.693 3.783,-13.379 1.711,-18.737c-2.072,-5.357 -11.823,-7.341 -14.143,-13.408c-2.586,-6.763 0.615,-23.26 -1.373,-27.169c-1.69,-3.324 -9.69,0.086 -10.554,3.714Z"/>
        </clipPath>
        <g clip-path="url(#_clip1)">
            <path d="M621.942,193.675c-0.238,5.502 -0.914,23.83 2.37,30.667c2.915,6.067 13.672,6.198 17.337,10.354c3.374,3.826 4.18,14.687 4.652,14.579c0.471,-0.109 1.192,-11.101 -1.822,-15.231c-3.204,-4.389 -11.693,-7.436 -15.201,-11.778c-4.673,-5.786 -3.931,-24.656 -3.541,-30.938c0.093,-1.485 -3.731,0.861 -3.795,2.347Z" style="fill:#ffba00;"/>
        </g>
        <path d="M621.802,194.091c-1.363,5.731 -0.913,23.831 2.371,30.667c2.915,6.068 13.672,6.199 17.336,10.354c3.374,3.826 3.592,15.272 4.652,14.579c1.061,-0.693 3.783,-13.379 1.711,-18.737c-2.072,-5.357 -11.823,-7.341 -14.143,-13.408c-2.586,-6.763 0.615,-23.26 -1.373,-27.169c-1.69,-3.324 -9.69,0.086 -10.554,3.714Z" style="fill:none;stroke:#000;stroke-width:2px;"/>
        <path d="M661.578,186.99c-1.363,5.73 -0.913,23.83 2.371,30.667c2.915,6.067 13.672,6.198 17.336,10.354c3.374,3.826 3.592,15.272 4.652,14.579c1.061,-0.693 3.783,-13.38 1.711,-18.737c-2.072,-5.358 -11.823,-7.341 -14.143,-13.409c-2.586,-6.763 0.615,-23.259 -1.373,-27.168c-1.69,-3.324 -9.69,0.086 -10.554,3.714Z" style="fill:none;"/>
        <clipPath id="_clip2">
            <path d="M661.578,186.99c-1.363,5.73 -0.913,23.83 2.371,30.667c2.915,6.067 13.672,6.198 17.336,10.354c3.374,3.826 3.592,15.272 4.652,14.579c1.061,-0.693 3.783,-13.38 1.711,-18.737c-2.072,-5.358 -11.823,-7.341 -14.143,-13.409c-2.586,-6.763 0.615,-23.259 -1.373,-27.168c-1.69,-3.324 -9.69,0.086 -10.554,3.714Z"/>
        </clipPath>
        <g clip-path="url(#_clip2)">
            <path d="M661.718,186.573c-0.238,5.502 -0.914,23.83 2.37,30.667c2.915,6.067 13.672,6.199 17.337,10.354c3.374,3.826 4.18,14.688 4.652,14.579c0.471,-0.108 1.192,-11.101 -1.822,-15.23c-3.204,-4.389 -11.693,-7.437 -15.201,-11.779c-4.673,-5.785 -3.931,-24.655 -3.541,-30.938c0.093,-1.484 -3.731,0.861 -3.795,2.347Z" style="fill:#ffba00;"/>
        </g>
        <path d="M661.578,186.99c-1.363,5.73 -0.913,23.83 2.371,30.667c2.915,6.067 13.672,6.198 17.336,10.354c3.374,3.826 3.592,15.272 4.652,14.579c1.061,-0.693 3.783,-13.38 1.711,-18.737c-2.072,-5.358 -11.823,-7.341 -14.143,-13.409c-2.586,-6.763 0.615,-23.259 -1.373,-27.168c-1.69,-3.324 -9.69,0.086 -10.554,3.714Z" style="fill:none;stroke:#000;stroke-width:2px;"/>
        <path d="M684.611,143.155c-1.364,5.73 -0.914,23.83 2.371,30.667c2.914,6.067 13.671,6.199 17.336,10.354c3.374,3.826 3.592,15.272 4.652,14.579c1.06,-0.693 3.782,-13.379 1.71,-18.737c-2.072,-5.357 -11.822,-7.341 -14.142,-13.409c-2.586,-6.762 0.614,-23.259 -1.374,-27.168c-1.69,-3.324 -9.69,0.086 -10.553,3.714Z" style="fill:none;"/>
        <clipPath id="_clip3">
            <path d="M684.611,143.155c-1.364,5.73 -0.914,23.83 2.371,30.667c2.914,6.067 13.671,6.199 17.336,10.354c3.374,3.826 3.592,15.272 4.652,14.579c1.06,-0.693 3.782,-13.379 1.71,-18.737c-2.072,-5.357 -11.822,-7.341 -14.142,-13.409c-2.586,-6.762 0.614,-23.259 -1.374,-27.168c-1.69,-3.324 -9.69,0.086 -10.553,3.714Z"/>
        </clipPath>
        <g clip-path="url(#_clip3)">
            <path d="M684.75,142.739c-0.237,5.502 -0.913,23.83 2.371,30.667c2.915,6.067 13.672,6.198 17.336,10.354c3.374,3.825 4.181,14.687 4.652,14.578c0.472,-0.108 1.193,-11.1 -1.822,-15.23c-3.204,-4.389 -11.692,-7.436 -15.2,-11.778c-4.674,-5.786 -3.932,-24.656 -3.541,-30.938c0.092,-1.485 -3.732,0.86 -3.796,2.347Z" style="fill:#ffba00;"/>
        </g>
        <path d="M684.611,143.155c-1.364,5.73 -0.914,23.83 2.371,30.667c2.914,6.067 13.671,6.199 17.336,10.354c3.374,3.826 3.592,15.272 4.652,14.579c1.06,-0.693 3.782,-13.379 1.71,-18.737c-2.072,-5.357 -11.822,-7.341 -14.142,-13.409c-2.586,-6.762 0.614,-23.259 -1.374,-27.168c-1.69,-3.324 -9.69,0.086 -10.553,3.714Z" style="fill:none;stroke:#000;stroke-width:2px;"/>
        <path d="M712.469,216.992c-1.364,5.731 -0.914,23.831 2.371,30.667c2.914,6.068 13.671,6.199 17.336,10.354c3.374,3.826 3.592,15.272 4.652,14.579c1.06,-0.693 3.783,-13.379 1.71,-18.737c-2.072,-5.357 -11.822,-7.34 -14.142,-13.408c-2.586,-6.763 0.614,-23.259 -1.373,-27.169c-1.691,-3.324 -9.69,0.086 -10.554,3.714Z" style="fill:none;"/>
        <clipPath id="_clip4">
            <path d="M712.469,216.992c-1.364,5.731 -0.914,23.831 2.371,30.667c2.914,6.068 13.671,6.199 17.336,10.354c3.374,3.826 3.592,15.272 4.652,14.579c1.06,-0.693 3.783,-13.379 1.71,-18.737c-2.072,-5.357 -11.822,-7.34 -14.142,-13.408c-2.586,-6.763 0.614,-23.259 -1.373,-27.169c-1.691,-3.324 -9.69,0.086 -10.554,3.714Z"/>
        </clipPath>
        <g clip-path="url(#_clip4)">
            <path d="M712.608,216.576c-0.237,5.502 -0.913,23.83 2.371,30.667c2.915,6.067 13.672,6.198 17.336,10.354c3.374,3.826 4.181,14.687 4.652,14.579c0.472,-0.109 1.193,-11.101 -1.822,-15.231c-3.204,-4.388 -11.692,-7.436 -15.2,-11.778c-4.674,-5.786 -3.932,-24.656 -3.541,-30.938c0.092,-1.485 -3.731,0.861 -3.796,2.347Z" style="fill:#ffba00;"/>
        </g>
        <path d="M712.469,216.992c-1.364,5.731 -0.914,23.831 2.371,30.667c2.914,6.068 13.671,6.199 17.336,10.354c3.374,3.826 3.592,15.272 4.652,14.579c1.06,-0.693 3.783,-13.379 1.71,-18.737c-2.072,-5.357 -11.822,-7.34 -14.142,-13.408c-2.586,-6.763 0.614,-23.259 -1.373,-27.169c-1.691,-3.324 -9.69,0.086 -10.554,3.714Z" style="fill:none;stroke:#000;stroke-width:2px;"/>
        <g transform="matrix(1,0,0,1,-313.103,-64.4145)">
            <text x="910.86px" y="578.776px" style="font-family:'Helvetica-Bold', 'Helvetica';font-weight:700;font-size:14px;">Odours</text>
            <text x="964.529px" y="578.776px" style="font-family:'Helvetica';font-size:14px;">that may be harmful. Includes</text>
            <text x="910.86px" y="596.776px" style="font-family:'Helvetica-Bold', 'Helvetica';font-weight:700;font-size:14px;">cooking</text>
            <text x="964.529px" y="596.776px" style="font-family:'Helvetica';font-size:14px;">, burning</text>
            <text x="1022.9px" y="596.776px" style="font-family:'Helvetica-Bold', 'Helvetica';font-weight:700;font-size:14px;">fuel</text>
            <text x="1047.79px" y="596.776px" style="font-family:'Helvetica';font-size:14px;">,</text>
            <text x="1055.57px" y="596.776px" style="font-family:'Helvetica-Bold', 'Helvetica';font-weight:700;font-size:14px;">perfume</text>
            <text x="1114.69px" y="596.776px" style="font-family:'Helvetica';font-size:14px;">and</text>
            <text x="910.86px" y="614.776px" style="font-family:'Helvetica-Bold', 'Helvetica';font-weight:700;font-size:14px;">cleaning products</text>
        </g>
        <text x="607.88px" y="51.091px" style="font-family:'Helvetica';font-size:18px;">Volatile organic compounds</text>
        <g>
            <path d="M787.713,434.281c0,-2.773 -2.252,-5.025 -5.025,-5.025l-127.622,-0c-2.774,-0 -5.025,2.252 -5.025,5.025c-0,2.774 2.251,5.026 5.025,5.026l127.622,-0c2.773,-0 5.025,-2.252 5.025,-5.026Z" style="fill:#fff;stroke:#000;stroke-width:2px;"/>
            <ellipse cx="689.155" cy="434.211" rx="19.994" ry="20.329" style="fill:#ffba00;stroke:#000;stroke-width:2px;"/>
            <text x="678.988px" y="440.206px" style="font-family:'Helvetica-Bold', 'Helvetica';font-weight:700;font-size:18px;">26</text>
            <path d="M614.305,428.719c0.244,2.755 0.344,12.215 -0.037,14.802c-0.046,0.315 0.318,0.719 0.637,0.715c3.304,-0.042 16.579,1.651 20.028,0.191c1.505,-0.637 1.242,-3.115 1.483,-3.584c0.178,-0.347 1.874,-1.399 1.991,-2.584c0.102,-1.037 -0.116,-1.655 -0.839,-2.435c-0.296,-0.32 1.663,-1.294 1.696,-2.433c0.028,-0.965 -1.093,-2.168 -1.008,-2.971c0.108,-1.017 1.179,-2.277 0.606,-3.455c-0.4,-0.824 -1.119,-1.961 -2.489,-2.35c-1.729,-0.491 -6.57,0.06 -8.015,-0.09c-0.347,-0.036 -0.744,-0.475 -0.659,-0.813c0.33,-1.309 2.24,-5.076 2.634,-7.042c0.375,-1.868 -0.636,-4.399 -1.681,-4.947c-0.825,-0.432 -2.195,-0.143 -2.723,0.624c-0.796,1.155 -0.076,5.128 -2.053,6.309c-3.306,1.973 -6.957,6.055 -7.144,8.333c-0.08,0.968 -2.513,0.762 -2.427,1.73Z" style="fill:#fff;stroke:#000;stroke-width:2px;"/>
            <path d="M822.395,439.477c-0.244,-2.755 -0.344,-12.215 0.037,-14.802c0.046,-0.316 -0.318,-0.719 -0.637,-0.715c-3.304,0.042 -16.579,-1.651 -20.028,-0.191c-1.505,0.637 -1.242,3.115 -1.483,3.584c-0.178,0.347 -1.874,1.399 -1.991,2.583c-0.102,1.037 0.116,1.655 0.839,2.436c0.296,0.319 -1.663,1.293 -1.696,2.433c-0.028,0.965 1.093,2.168 1.008,2.971c-0.108,1.017 -1.178,2.276 -0.606,3.455c0.4,0.824 1.119,1.961 2.489,2.35c1.729,0.491 6.57,-0.061 8.015,0.09c0.347,0.036 0.744,0.475 0.659,0.813c-0.33,1.309 -2.239,5.076 -2.634,7.041c-0.375,1.868 0.636,4.4 1.681,4.948c0.825,0.432 2.195,0.143 2.723,-0.624c0.796,-1.156 0.076,-5.129 2.053,-6.309c3.306,-1.974 6.957,-6.055 7.144,-8.334c0.08,-0.967 2.513,-0.762 2.427,-1.729Z" style="fill:#fff;stroke:#000;stroke-width:2px;"/>
        </g>
    </g>
    <g>
        <ellipse cx="1007.14" cy="207.587" rx="113.961" ry="115.4" style="fill:#fff;stroke:#000;stroke-width:2px;"/>
        <ellipse cx="991.551" cy="363.314" rx="16.5" ry="16.47" style="fill:#fff;stroke:#000;stroke-width:2px;"/>
        <path d="M1064.74,330.917l-0,11.074c-0,8.63 -7.006,15.636 -15.636,15.636l-43.608,-0c-1.799,-8.314 -9.477,-14.568 -18.663,-14.568c-9.187,-0 -16.864,6.254 -18.663,14.568l-10.099,-0c-4.709,-0 -8.532,-3.823 -8.532,-8.533l0,-17.064c0,-4.709 3.823,-8.532 8.532,-8.532l21.771,-0l0,-12.778c0,-8.63 7.006,-15.636 15.636,-15.636l53.626,0c6.131,0 11.442,3.536 14.004,8.679l-23.071,-0c-3.746,-0 -6.788,3.042 -6.788,6.788l-0,13.578c-0,3.747 3.042,6.788 6.788,6.788l24.703,0Z" style="fill:#fff;stroke:#000;stroke-width:2px;"/>
        <path d="M967.569,204.391c0.247,-0.839 1.046,-1.419 1.955,-1.419c0.909,-0 1.707,0.58 1.954,1.419l1.172,3.989l3.569,-2.332c0.752,-0.491 1.752,-0.443 2.449,0.118c0.696,0.56 0.919,1.497 0.546,2.293l-1.774,3.778l4.297,0.415c0.904,0.087 1.638,0.741 1.796,1.6c0.158,0.86 -0.299,1.715 -1.118,2.094l-3.889,1.8l3.013,2.968c0.635,0.625 0.759,1.579 0.304,2.334c-0.454,0.756 -1.377,1.129 -2.258,0.915l-4.186,-1.02l0.321,4.132c0.067,0.87 -0.477,1.677 -1.331,1.976c-0.854,0.298 -1.811,0.015 -2.342,-0.693l-2.523,-3.363l-2.523,3.363c-0.531,0.708 -1.488,0.991 -2.343,0.693c-0.854,-0.299 -1.397,-1.106 -1.33,-1.976l0.32,-4.132l-4.185,1.02c-0.882,0.214 -1.804,-0.159 -2.259,-0.915c-0.454,-0.755 -0.33,-1.709 0.304,-2.334l3.014,-2.968l-3.89,-1.8c-0.819,-0.379 -1.275,-1.234 -1.117,-2.094c0.157,-0.859 0.891,-1.513 1.796,-1.6l4.296,-0.415l-1.773,-3.778c-0.374,-0.796 -0.151,-1.733 0.546,-2.293c0.696,-0.561 1.696,-0.609 2.448,-0.118l3.569,2.332l1.172,-3.989Z" style="fill:#ffba00;stroke:#000;stroke-width:2px;"/>
        <path d="M992.736,175.696c0.247,-0.84 1.045,-1.42 1.954,-1.42c0.91,0 1.708,0.58 1.955,1.42l1.172,3.989l3.569,-2.333c0.752,-0.491 1.752,-0.443 2.448,0.118c0.697,0.561 0.92,1.498 0.546,2.293l-1.773,3.779l4.296,0.415c0.905,0.087 1.639,0.741 1.797,1.6c0.157,0.859 -0.299,1.714 -1.118,2.094l-3.89,1.8l3.014,2.968c0.634,0.625 0.758,1.578 0.304,2.334c-0.455,0.756 -1.377,1.129 -2.259,0.914l-4.185,-1.02l0.32,4.133c0.068,0.87 -0.476,1.677 -1.33,1.975c-0.855,0.299 -1.812,0.016 -2.343,-0.692l-2.523,-3.363l-2.522,3.363c-0.532,0.708 -1.489,0.991 -2.343,0.692c-0.854,-0.298 -1.398,-1.105 -1.33,-1.975l0.32,-4.133l-4.186,1.02c-0.881,0.215 -1.803,-0.158 -2.258,-0.914c-0.455,-0.756 -0.33,-1.709 0.304,-2.334l3.013,-2.968l-3.889,-1.8c-0.819,-0.38 -1.276,-1.235 -1.118,-2.094c0.158,-0.859 0.892,-1.513 1.797,-1.6l4.296,-0.415l-1.774,-3.779c-0.373,-0.795 -0.15,-1.732 0.547,-2.293c0.696,-0.561 1.696,-0.609 2.448,-0.118l3.569,2.333l1.172,-3.989Z" style="fill:#ffba00;stroke:#000;stroke-width:2px;"/>
        <path d="M929.934,154.998c0.247,-0.839 1.045,-1.419 1.954,-1.419c0.909,-0 1.708,0.58 1.955,1.419l1.172,3.989l3.569,-2.333c0.752,-0.491 1.752,-0.443 2.448,0.118c0.697,0.561 0.92,1.498 0.546,2.293l-1.773,3.779l4.296,0.415c0.905,0.087 1.639,0.741 1.796,1.6c0.158,0.859 -0.298,1.715 -1.117,2.094l-3.89,1.8l3.014,2.968c0.634,0.625 0.758,1.579 0.304,2.334c-0.455,0.756 -1.377,1.129 -2.259,0.914l-4.185,-1.02l0.32,4.133c0.068,0.87 -0.476,1.677 -1.33,1.975c-0.855,0.299 -1.812,0.016 -2.343,-0.692l-2.523,-3.363l-2.523,3.363c-0.531,0.708 -1.488,0.991 -2.342,0.692c-0.854,-0.298 -1.398,-1.105 -1.331,-1.975l0.321,-4.133l-4.186,1.02c-0.881,0.215 -1.804,-0.158 -2.258,-0.914c-0.455,-0.755 -0.331,-1.709 0.304,-2.334l3.013,-2.968l-3.889,-1.8c-0.819,-0.379 -1.276,-1.235 -1.118,-2.094c0.158,-0.859 0.892,-1.513 1.796,-1.6l4.297,-0.415l-1.774,-3.779c-0.373,-0.795 -0.15,-1.732 0.546,-2.293c0.697,-0.561 1.697,-0.609 2.449,-0.118l3.569,2.333l1.172,-3.989Z" style="fill:#ffba00;stroke:#000;stroke-width:2px;"/>
        <path d="M1068.56,234.093c0.247,-0.839 1.045,-1.419 1.954,-1.419c0.91,-0 1.708,0.58 1.955,1.419l1.172,3.989l3.569,-2.333c0.752,-0.491 1.752,-0.442 2.448,0.118c0.697,0.561 0.92,1.498 0.546,2.293l-1.773,3.779l4.296,0.415c0.905,0.087 1.639,0.741 1.797,1.6c0.157,0.859 -0.299,1.715 -1.118,2.094l-3.889,1.8l3.013,2.968c0.634,0.625 0.758,1.579 0.304,2.334c-0.455,0.756 -1.377,1.129 -2.259,0.915l-4.185,-1.021l0.32,4.133c0.068,0.87 -0.476,1.677 -1.33,1.975c-0.855,0.299 -1.812,0.016 -2.343,-0.692l-2.523,-3.363l-2.522,3.363c-0.532,0.708 -1.489,0.991 -2.343,0.692c-0.854,-0.298 -1.398,-1.105 -1.33,-1.975l0.32,-4.133l-4.186,1.021c-0.881,0.214 -1.803,-0.159 -2.258,-0.915c-0.455,-0.755 -0.33,-1.709 0.304,-2.334l3.013,-2.968l-3.889,-1.8c-0.819,-0.379 -1.276,-1.235 -1.118,-2.094c0.158,-0.859 0.892,-1.513 1.797,-1.6l4.296,-0.415l-1.774,-3.779c-0.373,-0.795 -0.15,-1.732 0.547,-2.293c0.696,-0.56 1.696,-0.609 2.448,-0.118l3.569,2.333l1.172,-3.989Z" style="fill:#ffba00;stroke:#000;stroke-width:2px;"/>
        <path d="M948.008,344.691c0.31,-0.109 0.662,0.007 0.862,0.285c0.199,0.277 0.197,0.648 -0.005,0.907l-0.96,1.232l1.494,0.577c0.314,0.122 0.519,0.438 0.5,0.773c-0.018,0.335 -0.255,0.609 -0.579,0.669l-1.542,0.287l0.815,1.402c0.172,0.295 0.133,0.662 -0.094,0.899c-0.228,0.236 -0.589,0.284 -0.884,0.118l-1.402,-0.792l-0.245,1.569c-0.051,0.331 -0.315,0.578 -0.645,0.605c-0.33,0.027 -0.646,-0.173 -0.774,-0.489l-0.606,-1.5l-1.191,1.003c-0.25,0.211 -0.616,0.222 -0.894,0.027c-0.278,-0.195 -0.401,-0.549 -0.302,-0.866l0.473,-1.507l-1.579,-0.032c-0.332,-0.007 -0.628,-0.237 -0.724,-0.563c-0.097,-0.326 0.03,-0.669 0.311,-0.839l1.33,-0.808l-1.228,-1.053c-0.259,-0.222 -0.347,-0.585 -0.216,-0.89c0.131,-0.304 0.449,-0.475 0.779,-0.419l1.565,0.269l-0.303,-1.581c-0.064,-0.333 0.097,-0.66 0.394,-0.8c0.297,-0.14 0.657,-0.059 0.882,0.197l1.068,1.22l0.764,-1.369c0.161,-0.288 0.496,-0.425 0.819,-0.336c0.324,0.09 0.558,0.384 0.573,0.721l0.071,1.6l1.473,-0.516Z" style="fill:#fff;stroke:#000;stroke-width:1px;"/>
        <path d="M937.572,348.271c0.218,-0.072 0.472,0.021 0.621,0.229c0.149,0.207 0.157,0.478 0.019,0.662l-0.654,0.875l1.079,0.459c0.228,0.096 0.381,0.331 0.376,0.576c-0.005,0.244 -0.167,0.438 -0.397,0.474l-1.092,0.172l0.616,1.043c0.129,0.219 0.111,0.486 -0.046,0.653c-0.156,0.167 -0.413,0.194 -0.627,0.065l-1.02,-0.613l-0.136,1.14c-0.029,0.24 -0.211,0.414 -0.445,0.425c-0.235,0.012 -0.466,-0.142 -0.564,-0.375l-0.47,-1.11l-0.824,0.703c-0.174,0.148 -0.434,0.147 -0.638,-0.002c-0.203,-0.15 -0.3,-0.411 -0.236,-0.64l0.3,-1.088l-1.127,-0.063c-0.237,-0.013 -0.454,-0.188 -0.531,-0.428c-0.076,-0.24 0.006,-0.487 0.202,-0.605l0.929,-0.557l-0.902,-0.799c-0.19,-0.168 -0.262,-0.435 -0.176,-0.654c0.086,-0.219 0.309,-0.336 0.545,-0.287l1.124,0.235l-0.255,-1.161c-0.054,-0.245 0.053,-0.48 0.261,-0.575c0.208,-0.095 0.467,-0.027 0.634,0.166l0.792,0.916l0.511,-0.98c0.108,-0.207 0.343,-0.299 0.576,-0.225c0.234,0.073 0.408,0.294 0.427,0.54l0.089,1.17l1.039,-0.341Z" style="fill:#fff;stroke:#000;stroke-width:1px;"/>
        <path d="M938.721,339.776c0.218,-0.072 0.472,0.022 0.621,0.229c0.149,0.208 0.157,0.478 0.019,0.662l-0.654,0.876l1.079,0.458c0.228,0.097 0.381,0.332 0.376,0.576c-0.005,0.245 -0.167,0.438 -0.397,0.475l-1.092,0.171l0.615,1.043c0.13,0.22 0.112,0.487 -0.045,0.654c-0.156,0.167 -0.413,0.193 -0.627,0.064l-1.02,-0.612l-0.136,1.14c-0.029,0.239 -0.211,0.413 -0.446,0.425c-0.234,0.011 -0.465,-0.142 -0.564,-0.376l-0.469,-1.11l-0.824,0.703c-0.174,0.148 -0.434,0.148 -0.638,-0.002c-0.203,-0.149 -0.3,-0.41 -0.236,-0.639l0.3,-1.089l-1.127,-0.062c-0.237,-0.013 -0.454,-0.188 -0.531,-0.429c-0.076,-0.24 0.006,-0.487 0.202,-0.604l0.929,-0.557l-0.902,-0.799c-0.19,-0.168 -0.262,-0.436 -0.176,-0.655c0.086,-0.218 0.309,-0.335 0.545,-0.286l1.124,0.234l-0.255,-1.161c-0.054,-0.245 0.053,-0.479 0.261,-0.574c0.208,-0.095 0.467,-0.027 0.634,0.166l0.792,0.916l0.511,-0.981c0.108,-0.206 0.343,-0.298 0.576,-0.225c0.234,0.074 0.408,0.294 0.426,0.541l0.09,1.169l1.039,-0.341Z" style="fill:#fff;stroke:#000;stroke-width:1px;"/>
        <path d="M942.305,356.031c0.218,-0.072 0.472,0.022 0.621,0.229c0.149,0.208 0.157,0.478 0.019,0.662l-0.654,0.876l1.079,0.458c0.228,0.097 0.381,0.332 0.376,0.576c-0.005,0.245 -0.167,0.438 -0.397,0.474l-1.092,0.172l0.615,1.043c0.13,0.22 0.111,0.487 -0.045,0.654c-0.157,0.167 -0.413,0.193 -0.627,0.064l-1.02,-0.612l-0.136,1.139c-0.029,0.24 -0.211,0.414 -0.446,0.426c-0.234,0.011 -0.465,-0.142 -0.564,-0.376l-0.469,-1.11l-0.824,0.703c-0.174,0.148 -0.434,0.147 -0.638,-0.002c-0.203,-0.149 -0.3,-0.41 -0.236,-0.64l0.3,-1.088l-1.127,-0.062c-0.237,-0.013 -0.454,-0.188 -0.531,-0.429c-0.076,-0.24 0.006,-0.487 0.202,-0.604l0.929,-0.557l-0.902,-0.799c-0.19,-0.168 -0.262,-0.436 -0.176,-0.655c0.086,-0.218 0.309,-0.336 0.545,-0.286l1.124,0.234l-0.255,-1.161c-0.054,-0.245 0.053,-0.479 0.261,-0.574c0.208,-0.095 0.467,-0.028 0.634,0.165l0.792,0.917l0.511,-0.981c0.108,-0.206 0.343,-0.298 0.576,-0.225c0.233,0.073 0.408,0.294 0.426,0.54l0.09,1.17l1.039,-0.341Z" style="fill:#fff;stroke:#000;stroke-width:1px;"/>
        <path d="M933.425,356.293c0.219,-0.071 0.473,0.022 0.622,0.229c0.148,0.208 0.156,0.478 0.018,0.663l-0.654,0.875l1.08,0.458c0.227,0.097 0.381,0.332 0.376,0.576c-0.005,0.245 -0.168,0.439 -0.398,0.475l-1.092,0.171l0.616,1.043c0.129,0.22 0.111,0.487 -0.046,0.654c-0.156,0.167 -0.412,0.193 -0.627,0.064l-1.019,-0.612l-0.137,1.14c-0.028,0.24 -0.21,0.413 -0.445,0.425c-0.235,0.011 -0.465,-0.142 -0.564,-0.376l-0.469,-1.11l-0.825,0.704c-0.174,0.148 -0.434,0.147 -0.637,-0.003c-0.204,-0.149 -0.3,-0.41 -0.237,-0.639l0.3,-1.088l-1.127,-0.063c-0.237,-0.013 -0.454,-0.188 -0.53,-0.428c-0.077,-0.241 0.005,-0.488 0.201,-0.605l0.929,-0.557l-0.902,-0.799c-0.19,-0.168 -0.262,-0.435 -0.176,-0.654c0.086,-0.219 0.309,-0.336 0.546,-0.287l1.123,0.235l-0.255,-1.162c-0.054,-0.244 0.053,-0.479 0.261,-0.574c0.209,-0.095 0.468,-0.027 0.634,0.166l0.792,0.916l0.512,-0.98c0.107,-0.207 0.343,-0.299 0.576,-0.226c0.233,0.074 0.407,0.294 0.426,0.541l0.09,1.169l1.038,-0.341Z" style="fill:#fff;stroke:#000;stroke-width:1px;"/>
        <path d="M928.937,346.814c0.266,-0.083 0.582,0.043 0.773,0.309c0.191,0.265 0.209,0.605 0.046,0.831l-0.776,1.076l1.346,0.613c0.283,0.129 0.481,0.429 0.483,0.736c0.002,0.306 -0.191,0.544 -0.473,0.581l-1.34,0.178l0.795,1.33c0.167,0.28 0.154,0.615 -0.033,0.819c-0.187,0.204 -0.502,0.228 -0.771,0.059l-1.277,-0.804l-0.128,1.426c-0.027,0.3 -0.246,0.512 -0.534,0.518c-0.289,0.007 -0.578,-0.194 -0.708,-0.49l-0.616,-1.41l-0.992,0.854c-0.209,0.18 -0.529,0.17 -0.785,-0.024c-0.256,-0.195 -0.384,-0.526 -0.314,-0.811l0.333,-1.356l-1.391,-0.117c-0.292,-0.025 -0.565,-0.252 -0.668,-0.556c-0.103,-0.304 -0.01,-0.611 0.227,-0.752l1.126,-0.667l-1.139,-1.034c-0.24,-0.217 -0.338,-0.555 -0.239,-0.827c0.098,-0.272 0.368,-0.411 0.661,-0.341l1.392,0.333l-0.354,-1.466c-0.075,-0.309 0.049,-0.6 0.302,-0.712c0.253,-0.112 0.575,-0.018 0.787,0.23l1.007,1.178l0.596,-1.213c0.125,-0.256 0.412,-0.363 0.702,-0.263c0.289,0.1 0.511,0.383 0.543,0.693l0.151,1.471l1.268,-0.392Z" style="fill:#fff;stroke:#000;stroke-width:1px;"/>
        <path d="M948.641,354.293c0.218,-0.072 0.472,0.022 0.621,0.229c0.149,0.207 0.157,0.478 0.019,0.662l-0.655,0.875l1.08,0.459c0.228,0.096 0.381,0.332 0.376,0.576c-0.005,0.244 -0.167,0.438 -0.397,0.474l-1.092,0.172l0.615,1.043c0.13,0.219 0.111,0.486 -0.045,0.653c-0.157,0.167 -0.413,0.194 -0.627,0.065l-1.02,-0.613l-0.136,1.14c-0.029,0.24 -0.211,0.414 -0.446,0.425c-0.235,0.012 -0.465,-0.141 -0.564,-0.375l-0.469,-1.11l-0.824,0.703c-0.174,0.148 -0.434,0.147 -0.638,-0.002c-0.203,-0.149 -0.3,-0.411 -0.236,-0.64l0.3,-1.088l-1.127,-0.062c-0.237,-0.014 -0.454,-0.189 -0.531,-0.429c-0.076,-0.24 0.006,-0.487 0.201,-0.605l0.93,-0.557l-0.902,-0.799c-0.19,-0.168 -0.262,-0.435 -0.176,-0.654c0.086,-0.219 0.309,-0.336 0.545,-0.286l1.124,0.234l-0.255,-1.161c-0.054,-0.245 0.053,-0.479 0.261,-0.574c0.208,-0.095 0.467,-0.028 0.634,0.165l0.792,0.917l0.511,-0.981c0.108,-0.206 0.343,-0.298 0.576,-0.225c0.233,0.073 0.407,0.294 0.426,0.54l0.09,1.17l1.039,-0.341Z" style="fill:#fff;stroke:#000;stroke-width:1px;"/>
        <g transform="matrix(1,0,0,1,-8.3499,-64.1634)">
            <text x="910.86px" y="578.776px" style="font-family:'Helvetica';font-size:14px;">Gases released by</text>
            <text x="1031.48px" y="578.776px" style="font-family:'Helvetica-Bold', 'Helvetica';font-weight:700;font-size:14px;">combustion.</text>
            <text x="910.86px" y="596.776px" style="font-family:'Helvetica';font-size:14px;">Include</text>
            <text x="959.895px" y="596.776px" style="font-family:'Helvetica-Bold', 'Helvetica';font-weight:700;font-size:14px;">cooking gas</text>
            <text x="1045.47px" y="596.776px" style="font-family:'Helvetica';font-size:14px;">and</text>
            <text x="1072.71px" y="596.776px" style="font-family:'Helvetica-Bold', 'Helvetica';font-weight:700;font-size:14px;">vehicle</text>
            <text x="910.86px" y="614.776px" style="font-family:'Helvetica-Bold', 'Helvetica';font-weight:700;font-size:14px;">emissions.</text>
        </g>
        <text x="940.308px" y="53.629px" style="font-family:'Helvetica';font-size:18px;">Nitrogen Dioxide</text>
        <g>
            <path d="M1076.5,436.819c-0,-2.773 -2.252,-5.025 -5.026,-5.025l-127.621,-0c-2.774,-0 -5.026,2.252 -5.026,5.025c0,2.774 2.252,5.026 5.026,5.026l127.621,-0c2.774,-0 5.026,-2.252 5.026,-5.026Z" style="fill:#fff;stroke:#000;stroke-width:2px;"/>
            <ellipse cx="977.94" cy="436.749" rx="19.994" ry="20.329" style="fill:#ffba00;stroke:#000;stroke-width:2px;"/>
            <text x="967.773px" y="442.744px" style="font-family:'Helvetica-Bold', 'Helvetica';font-weight:700;font-size:18px;">26</text>
            <path d="M903.09,431.257c0.245,2.755 0.344,12.215 -0.036,14.802c-0.046,0.315 0.317,0.719 0.636,0.715c3.305,-0.042 16.579,1.651 20.028,0.191c1.505,-0.637 1.242,-3.115 1.483,-3.584c0.178,-0.347 1.874,-1.399 1.991,-2.584c0.103,-1.037 -0.116,-1.655 -0.839,-2.435c-0.296,-0.32 1.664,-1.294 1.696,-2.433c0.028,-0.965 -1.092,-2.169 -1.007,-2.971c0.108,-1.017 1.178,-2.277 0.606,-3.455c-0.401,-0.824 -1.119,-1.961 -2.49,-2.35c-1.729,-0.491 -6.569,0.06 -8.015,-0.09c-0.347,-0.036 -0.743,-0.475 -0.658,-0.813c0.329,-1.309 2.239,-5.077 2.633,-7.042c0.375,-1.868 -0.636,-4.399 -1.681,-4.947c-0.824,-0.432 -2.194,-0.143 -2.722,0.624c-0.796,1.155 -0.077,5.128 -2.054,6.309c-3.305,1.973 -6.956,6.055 -7.144,8.333c-0.079,0.968 -2.513,0.762 -2.427,1.73Z" style="fill:#fff;stroke:#000;stroke-width:2px;"/>
            <path d="M1111.18,442.015c-0.245,-2.755 -0.344,-12.215 0.036,-14.802c0.047,-0.316 -0.317,-0.719 -0.636,-0.715c-3.305,0.042 -16.579,-1.651 -20.028,-0.191c-1.505,0.637 -1.242,3.115 -1.483,3.584c-0.178,0.347 -1.874,1.399 -1.991,2.583c-0.103,1.037 0.116,1.655 0.839,2.436c0.296,0.319 -1.664,1.293 -1.696,2.432c-0.028,0.966 1.092,2.169 1.007,2.972c-0.107,1.017 -1.178,2.276 -0.606,3.455c0.401,0.824 1.119,1.961 2.49,2.35c1.729,0.491 6.569,-0.061 8.015,0.09c0.347,0.036 0.743,0.475 0.658,0.813c-0.329,1.309 -2.239,5.076 -2.633,7.041c-0.375,1.868 0.636,4.4 1.681,4.948c0.824,0.432 2.194,0.142 2.722,-0.624c0.796,-1.156 0.077,-5.129 2.054,-6.309c3.306,-1.974 6.956,-6.055 7.144,-8.334c0.079,-0.967 2.513,-0.762 2.427,-1.729Z" style="fill:#fff;stroke:#000;stroke-width:2px;"/>
        </g>
    </g>
    <g>
        <ellipse cx="425.675" cy="213.503" rx="113.961" ry="115.4" style="fill:#fff;stroke:#000;stroke-width:2px;"/>
        <path d="M364.371,170.296c-0,-7.589 2.662,-13.75 5.942,-13.75c3.279,-0 5.942,6.161 5.942,13.75c6.997,-3.795 14.01,-4.71 15.649,-2.042c1.64,2.667 -2.71,7.914 -9.707,11.708c6.997,3.795 11.347,9.041 9.707,11.708c-1.639,2.668 -8.652,1.753 -15.649,-2.042c-0,7.589 -2.663,13.751 -5.942,13.751c-3.28,-0 -5.942,-6.162 -5.942,-13.751c-6.998,3.795 -14.01,4.71 -15.65,2.042c-1.64,-2.667 2.71,-7.913 9.708,-11.708c-6.998,-3.794 -11.348,-9.041 -9.708,-11.708c1.64,-2.668 8.652,-1.753 15.65,2.042Z" style="fill:#fff;stroke:#000;stroke-width:2px;"/>
        <ellipse cx="370.526" cy="180.168" rx="6.491" ry="6.069" style="fill:#ffba00;stroke:#000;stroke-width:2px;"/>
        <path d="M348.359,216.659c0,-7.589 2.663,-13.75 5.942,-13.75c3.279,-0 5.942,6.161 5.942,13.75c6.998,-3.794 14.01,-4.709 15.65,-2.042c1.639,2.668 -2.711,7.914 -9.708,11.708c6.997,3.795 11.347,9.041 9.708,11.709c-1.64,2.667 -8.652,1.752 -15.65,-2.042c-0,7.589 -2.663,13.75 -5.942,13.75c-3.279,-0 -5.942,-6.161 -5.942,-13.75c-6.998,3.794 -14.01,4.709 -15.65,2.042c-1.639,-2.668 2.711,-7.914 9.708,-11.709c-6.997,-3.794 -11.347,-9.04 -9.708,-11.708c1.64,-2.667 8.652,-1.752 15.65,2.042Z" style="fill:#fff;stroke:#000;stroke-width:2px;"/>
        <ellipse cx="354.514" cy="226.531" rx="6.491" ry="6.069" style="fill:#ffba00;stroke:#000;stroke-width:2px;"/>
        <path d="M406.707,218.312c-0,-7.589 2.662,-13.751 5.942,-13.751c3.279,0 5.942,6.162 5.942,13.751c6.997,-3.795 14.01,-4.71 15.649,-2.043c1.64,2.668 -2.71,7.914 -9.708,11.709c6.998,3.794 11.348,9.041 9.708,11.708c-1.639,2.667 -8.652,1.752 -15.649,-2.042c-0,7.589 -2.663,13.75 -5.942,13.75c-3.28,0 -5.942,-6.161 -5.942,-13.75c-6.998,3.794 -14.01,4.709 -15.65,2.042c-1.64,-2.667 2.71,-7.914 9.708,-11.708c-6.998,-3.795 -11.348,-9.041 -9.708,-11.709c1.64,-2.667 8.652,-1.752 15.65,2.043Z" style="fill:#fff;stroke:#000;stroke-width:2px;"/>
        <ellipse cx="412.862" cy="228.183" rx="6.491" ry="6.069" style="fill:#ffba00;stroke:#000;stroke-width:2px;"/>
        <path d="M377.929,258.847c0,-7.589 2.663,-13.751 5.942,-13.751c3.28,0 5.942,6.162 5.942,13.751c6.998,-3.795 14.01,-4.71 15.65,-2.042c1.64,2.667 -2.71,7.913 -9.708,11.708c6.998,3.794 11.348,9.041 9.708,11.708c-1.64,2.668 -8.652,1.753 -15.65,-2.042c0,7.589 -2.662,13.75 -5.942,13.75c-3.279,0 -5.942,-6.161 -5.942,-13.75c-6.997,3.795 -14.01,4.71 -15.649,2.042c-1.64,-2.667 2.71,-7.914 9.708,-11.708c-6.998,-3.795 -11.348,-9.041 -9.708,-11.708c1.639,-2.668 8.652,-1.753 15.649,2.042Z" style="fill:#fff;stroke:#000;stroke-width:2px;"/>
        <ellipse cx="384.085" cy="268.718" rx="6.491" ry="6.069" style="fill:#ffba00;stroke:#000;stroke-width:2px;"/>
        <g>
            <path d="M415.586,321.333c0,-12.885 4.521,-23.346 10.089,-23.346c5.568,0 10.088,10.461 10.088,23.346c11.881,-6.442 23.787,-7.996 26.571,-3.467c2.784,4.529 -4.601,13.436 -16.482,19.879c11.881,6.442 19.266,15.35 16.482,19.879c-2.784,4.529 -14.69,2.975 -26.571,-3.467c0,12.885 -4.52,23.346 -10.088,23.346c-5.568,-0 -10.089,-10.461 -10.089,-23.346c-11.881,6.442 -23.787,7.996 -26.571,3.467c-2.784,-4.529 4.602,-13.437 16.483,-19.879c-11.881,-6.443 -19.267,-15.35 -16.483,-19.879c2.784,-4.529 14.69,-2.975 26.571,3.467Z" style="fill:#fff;stroke:#000;stroke-width:2px;"/>
            <ellipse cx="425.842" cy="337.723" rx="11.021" ry="10.305" style="fill:#ffba00;stroke:#000;stroke-width:2px;"/>
        </g>
        <g transform="matrix(1,0,0,1,-589.792,-63.9115)">
            <text x="910.86px" y="578.776px" style="font-family:'Helvetica';font-size:14px;">Particles smaller than 10 microns.</text>
            <text x="910.86px" y="596.776px" style="font-family:'Helvetica';font-size:14px;">Includes</text>
            <text x="966.895px" y="596.776px" style="font-family:'Helvetica-Bold', 'Helvetica';font-weight:700;font-size:14px;">pollen</text>
            <text x="1012px" y="596.776px" style="font-family:'Helvetica';font-size:14px;">and other</text>
            <text x="910.86px" y="614.776px" style="font-family:'Helvetica-Bold', 'Helvetica';font-weight:700;font-size:14px;">allergens</text>
        </g>
        <g transform="matrix(1,0,0,1,-574.342,-528.021)">
            <text x="910.86px" y="578.776px" style="font-family:'Helvetica';font-size:18px;">Particulate matter (</text>
            <text x="1062.91px" y="578.776px" style="font-family:'Helvetica-Bold', 'Helvetica';font-weight:700;font-size:18px;">10</text>
            <text x="1082.93px" y="578.776px" style="font-family:'Helvetica';font-size:18px;">)</text>
        </g>
        <g>
            <path d="M495.038,433.708c0,-2.774 -2.252,-5.025 -5.025,-5.025l-127.622,-0c-2.774,-0 -5.026,2.251 -5.026,5.025c0,2.774 2.252,5.025 5.026,5.025l127.622,0c2.773,0 5.025,-2.251 5.025,-5.025Z" style="fill:#fff;stroke:#000;stroke-width:2px;"/>
            <ellipse cx="425.037" cy="433.239" rx="19.994" ry="20.329" style="fill:#ffba00;stroke:#000;stroke-width:2px;"/>
            <text x="414.792px" y="438.405px" style="font-family:'Helvetica-Bold', 'Helvetica';font-weight:700;font-size:18px;">32</text>
            <path d="M321.63,428.145c0.244,2.756 0.344,12.215 -0.037,14.802c-0.046,0.316 0.318,0.72 0.637,0.716c3.304,-0.042 16.578,1.65 20.027,0.191c1.505,-0.637 1.242,-3.115 1.483,-3.585c0.178,-0.346 1.875,-1.398 1.992,-2.583c0.102,-1.037 -0.116,-1.655 -0.839,-2.435c-0.296,-0.32 1.663,-1.294 1.696,-2.433c0.028,-0.965 -1.093,-2.169 -1.008,-2.971c0.108,-1.017 1.178,-2.277 0.606,-3.455c-0.4,-0.824 -1.119,-1.962 -2.489,-2.351c-1.729,-0.49 -6.57,0.061 -8.016,-0.089c-0.346,-0.037 -0.743,-0.475 -0.658,-0.814c0.329,-1.309 2.239,-5.076 2.634,-7.041c0.375,-1.868 -0.636,-4.4 -1.681,-4.947c-0.825,-0.433 -2.195,-0.143 -2.723,0.624c-0.796,1.155 -0.076,5.128 -2.053,6.308c-3.306,1.974 -6.957,6.056 -7.144,8.334c-0.08,0.968 -2.513,0.762 -2.427,1.729Z" style="fill:#fff;stroke:#000;stroke-width:2px;"/>
            <path d="M529.72,438.904c-0.244,-2.756 -0.344,-12.215 0.036,-14.802c0.047,-0.316 -0.317,-0.72 -0.636,-0.716c-3.304,0.042 -16.579,-1.65 -20.028,-0.191c-1.505,0.637 -1.242,3.116 -1.483,3.585c-0.178,0.346 -1.874,1.398 -1.991,2.583c-0.102,1.037 0.116,1.655 0.839,2.435c0.296,0.32 -1.663,1.294 -1.696,2.433c-0.028,0.965 1.093,2.169 1.008,2.971c-0.108,1.017 -1.179,2.277 -0.606,3.455c0.4,0.824 1.118,1.962 2.489,2.351c1.729,0.49 6.57,-0.061 8.015,0.089c0.347,0.037 0.744,0.475 0.658,0.814c-0.329,1.309 -2.239,5.076 -2.633,7.041c-0.375,1.868 0.636,4.4 1.681,4.947c0.825,0.433 2.194,0.143 2.723,-0.624c0.796,-1.155 0.076,-5.128 2.053,-6.308c3.306,-1.974 6.957,-6.056 7.144,-8.334c0.08,-0.968 2.513,-0.762 2.427,-1.729Z" style="fill:#fff;stroke:#000;stroke-width:2px;"/>
        </g>
    </g>
    <text x="305.668px" y="675.477px" style="font-family:'Helvetica-Bold', 'Helvetica';font-weight:700;font-size:48px;">overall air quality: good</text>
</svg>
