<?xml version="1.0" encoding="UTF-8" standalone="no"?>
<!DOCTYPE svg PUBLIC "-//W3C//DTD SVG 1.1//EN" "http://www.w3.org/Graphics/SVG/1.1/DTD/svg11.dtd">
<svg width="100%" height="100%" viewBox="0 0 503 797" version="1.1" xmlns="http://www.w3.org/2000/svg" xmlns:xlink="http://www.w3.org/1999/xlink" xml:space="preserve" xmlns:serif="http://www.serif.com/" style="fill-rule:evenodd;clip-rule:evenodd;stroke-linecap:round;stroke-linejoin:round;stroke-miterlimit:1.5;">
    <ellipse cx="251.5" cy="254.658" rx="250" ry="253.158" style="fill:#fff;stroke:#000;stroke-width:3px;"/>
    <g>
        <g>
            <ellipse cx="227.895" cy="490.3" rx="46.458" ry="46.51" style="fill:#fff;stroke:#000;stroke-width:3px;"/>
            <path d="M252.818,537.302c-7.667,4.118 -16.456,6.458 -25.796,6.458c-29.812,0 -54.015,-23.843 -54.015,-53.211c-0,-29.367 24.203,-53.21 54.015,-53.21c29.811,-0 54.015,23.843 54.015,53.21c-0,12.294 -4.241,23.619 -11.36,32.633c0.357,0.267 0.686,0.582 0.98,0.944l58.092,71.499c1.935,2.382 1.573,5.888 -0.81,7.824l-8.634,7.015c-2.382,1.936 -5.888,1.573 -7.824,-0.81l-58.091,-71.499c-0.221,-0.271 -0.411,-0.557 -0.572,-0.853Zm-25.277,-92.902c25.726,-0 46.612,20.693 46.612,46.181c0,25.488 -20.886,46.181 -46.612,46.181c-25.725,-0 -46.611,-20.693 -46.611,-46.181c-0,-25.488 20.886,-46.181 46.611,-46.181Z" style="fill:#fff;stroke:#000;stroke-width:3px;"/>
            <ellipse cx="276.748" cy="453.165" rx="2.993" ry="2.936" style="fill:#fff;stroke:#000;stroke-width:3px;"/>
            <ellipse cx="261.998" cy="429.403" rx="3.419" ry="3.504" style="fill:#fff;stroke:#000;stroke-width:3px;"/>
            <ellipse cx="266.324" cy="442.669" rx="4.216" ry="4.33" style="fill:#fff;stroke:#000;stroke-width:3px;"/>
            <ellipse cx="252.359" cy="436.797" rx="2.993" ry="2.819" style="fill:#fff;stroke:#000;stroke-width:3px;"/>
            <ellipse cx="273.967" cy="432.826" rx="2.993" ry="2.936" style="fill:#fff;stroke:#000;stroke-width:3px;"/>
            <ellipse cx="242.99" cy="495.464" rx="5.525" ry="5.664" style="fill:#fff;stroke:#000;stroke-width:3px;"/>
            <ellipse cx="254.477" cy="515.942" rx="6.814" ry="6.999" style="fill:#fff;stroke:#000;stroke-width:3px;"/>
            <ellipse cx="232.664" cy="510.081" rx="4.838" ry="4.556" style="fill:#fff;stroke:#000;stroke-width:3px;"/>
            <ellipse cx="260.542" cy="495.084" rx="4.838" ry="4.745" style="fill:#fff;stroke:#000;stroke-width:3px;"/>
            <ellipse cx="235.4" cy="452.43" rx="5.525" ry="5.664" style="fill:#fff;stroke:#000;stroke-width:3px;"/>
            <ellipse cx="246.886" cy="472.908" rx="6.814" ry="6.999" style="fill:#fff;stroke:#000;stroke-width:3px;"/>
            <ellipse cx="281.807" cy="442.406" rx="3.682" ry="3.593" style="fill:#fff;stroke:#000;stroke-width:3px;"/>
            <ellipse cx="227.466" cy="467.785" rx="4.838" ry="4.556" style="fill:#fff;stroke:#000;stroke-width:3px;"/>
            <path d="M195.815,482.84c1.403,-2.708 4.795,-3.738 7.57,-2.3c2.776,1.438 3.89,4.804 2.487,7.511c-1.403,2.708 -4.796,3.739 -7.571,2.3c-2.775,-1.438 -3.889,-4.804 -2.486,-7.511Z" style="fill:#fff;stroke:#000;stroke-width:3px;"/>
            <path d="M218.277,483.378c1.73,-3.339 5.919,-4.607 9.348,-2.829c3.43,1.777 4.81,5.93 3.079,9.269c-1.73,3.339 -5.919,4.607 -9.348,2.83c-3.43,-1.777 -4.81,-5.931 -3.079,-9.27Z" style="fill:#fff;stroke:#000;stroke-width:3px;"/>
            <path d="M205.025,499.243c1.229,-2.371 4.039,-3.356 6.272,-2.199c2.232,1.157 3.047,4.021 1.819,6.392c-1.229,2.37 -4.039,3.356 -6.271,2.199c-2.233,-1.157 -3.048,-4.021 -1.82,-6.392Z" style="fill:#fff;stroke:#000;stroke-width:3px;"/>
            <path d="M204.368,467.504c1.229,-2.371 4.114,-3.317 6.439,-2.112c2.325,1.205 3.216,4.108 1.987,6.478c-1.228,2.371 -4.114,3.318 -6.439,2.113c-2.325,-1.205 -3.215,-4.108 -1.987,-6.479Z" style="fill:#fff;stroke:#000;stroke-width:3px;"/>
        </g>
    </g>
    <ellipse cx="279.418" cy="199.604" rx="11.826" ry="11.98" style="fill:#ffba00;stroke:#000;stroke-width:3px;"/>
    <ellipse cx="138.907" cy="283.035" rx="11.826" ry="11.98" style="fill:#ffba00;stroke:#000;stroke-width:3px;"/>
    <ellipse cx="243.675" cy="360.347" rx="11.826" ry="11.98" style="fill:#ffba00;stroke:#000;stroke-width:3px;"/>
    <ellipse cx="207.779" cy="150.22" rx="11.826" ry="11.98" style="fill:#ffba00;stroke:#000;stroke-width:3px;"/>
    <ellipse cx="404.032" cy="304.278" rx="11.826" ry="11.98" style="fill:#ffba00;stroke:#000;stroke-width:3px;"/>
    <ellipse cx="260.608" cy="291.698" rx="11.826" ry="11.98" style="fill:#ffba00;stroke:#000;stroke-width:3px;"/>
    <ellipse cx="346.867" cy="152.139" rx="11.826" ry="11.98" style="fill:#ffba00;stroke:#000;stroke-width:3px;"/>
    <ellipse cx="103.105" cy="183.991" rx="11.826" ry="11.98" style="fill:#ffba00;stroke:#000;stroke-width:3px;"/>
    <g>
        <path d="M403.664,746.307c0,-6.085 -4.939,-11.025 -11.024,-11.025l-279.968,0c-6.085,0 -11.025,4.94 -11.025,11.025c0,6.084 4.94,11.024 11.025,11.024l279.968,0c6.085,0 11.024,-4.94 11.024,-11.024Z" style="fill:#fff;stroke:#000;stroke-width:3px;"/>
        <ellipse cx="187.453" cy="746.153" rx="43.861" ry="44.596" style="fill:#ffba00;stroke:#000;stroke-width:3px;"/>
        <text x="165.149px" y="759.303px" style="font-family:'Helvetica-Bold', 'Helvetica';font-weight:700;font-size:39.487px;">26</text>
        <path d="M23.252,734.104c0.537,6.045 0.755,26.796 -0.079,32.472c-0.102,0.692 0.696,1.578 1.396,1.569c7.249,-0.092 36.369,3.621 43.935,0.419c3.302,-1.398 2.725,-6.834 3.254,-7.864c0.39,-0.76 4.111,-3.068 4.368,-5.667c0.225,-2.275 -0.255,-3.63 -1.841,-5.342c-0.649,-0.701 3.649,-2.838 3.721,-5.337c0.061,-2.117 -2.397,-4.757 -2.211,-6.518c0.237,-2.231 2.585,-4.994 1.33,-7.579c-0.879,-1.808 -2.454,-4.303 -5.461,-5.156c-3.793,-1.077 -14.412,0.133 -17.583,-0.197c-0.761,-0.079 -1.631,-1.042 -1.444,-1.784c0.722,-2.872 4.912,-11.136 5.777,-15.447c0.822,-4.098 -1.396,-9.652 -3.688,-10.853c-1.809,-0.948 -4.814,-0.313 -5.973,1.369c-1.746,2.534 -0.167,11.25 -4.504,13.839c-7.252,4.33 -15.261,13.284 -15.672,18.282c-0.175,2.123 -5.513,1.672 -5.325,3.794Z" style="fill:#fff;stroke:#000;stroke-width:3px;"/>
        <path d="M479.748,757.705c-0.537,-6.045 -0.755,-26.797 0.079,-32.472c0.102,-0.693 -0.696,-1.578 -1.396,-1.569c-7.249,0.092 -36.369,-3.621 -43.935,-0.419c-3.302,1.397 -2.725,6.834 -3.254,7.863c-0.39,0.76 -4.111,3.068 -4.368,5.667c-0.225,2.275 0.255,3.631 1.841,5.342c0.649,0.702 -3.649,2.838 -3.721,5.338c-0.061,2.117 2.397,4.757 2.211,6.518c-0.237,2.231 -2.585,4.994 -1.33,7.579c0.879,1.807 2.454,4.303 5.461,5.156c3.793,1.076 14.412,-0.133 17.583,0.197c0.761,0.079 1.631,1.042 1.444,1.784c-0.722,2.871 -4.912,11.136 -5.777,15.447c-0.822,4.097 1.396,9.651 3.688,10.853c1.809,0.948 4.814,0.313 5.973,-1.369c1.746,-2.535 0.167,-11.25 4.504,-13.839c7.252,-4.33 15.261,-13.285 15.672,-18.283c0.175,-2.123 5.513,-1.671 5.325,-3.793Z" style="fill:#fff;stroke:#000;stroke-width:3px;"/>
    </g>
</svg>
