<?xml version="1.0" encoding="UTF-8" standalone="no"?>
<!DOCTYPE svg PUBLIC "-//W3C//DTD SVG 1.1//EN" "http://www.w3.org/Graphics/SVG/1.1/DTD/svg11.dtd">
<svg width="100%" height="100%" viewBox="0 0 504 801" version="1.1" xmlns="http://www.w3.org/2000/svg" xmlns:xlink="http://www.w3.org/1999/xlink" xml:space="preserve" xmlns:serif="http://www.serif.com/" style="fill-rule:evenodd;clip-rule:evenodd;stroke-linecap:round;stroke-linejoin:round;stroke-miterlimit:1.5;">
    <rect x="1.5" y="1.5" width="500.151" height="797.765" style="fill:none;stroke:#000;stroke-width:3px;"/>
    <ellipse cx="240.833" cy="557.678" rx="27.448" ry="27.398" style="fill:#ffba00;stroke:#000;stroke-width:3px;"/>
    <path d="M369.883,503.524l0,18.42c0,14.355 -11.654,26.009 -26.009,26.009l-72.54,0c-2.993,-13.829 -15.764,-24.232 -31.045,-24.232c-15.282,-0 -28.053,10.403 -31.046,24.232l-16.798,0c-7.833,0 -14.193,-6.359 -14.193,-14.193l0,-28.386c0,-7.833 6.36,-14.193 14.193,-14.193l36.215,0l-0,-21.255c-0,-14.354 11.654,-26.009 26.009,-26.009l89.205,0c10.198,0 19.033,5.882 23.295,14.436l-38.377,0c-6.233,0 -11.293,5.06 -11.293,11.293l0,22.585c0,6.233 5.06,11.293 11.293,11.293l41.091,-0Z" style="fill:#fff;stroke:#000;stroke-width:3px;"/>
</svg>
