<?xml version="1.0" encoding="UTF-8" standalone="no"?>
<!DOCTYPE svg PUBLIC "-//W3C//DTD SVG 1.1//EN" "http://www.w3.org/Graphics/SVG/1.1/DTD/svg11.dtd">
<svg width="100%" height="100%" viewBox="0 0 200 200" version="1.1" xmlns="http://www.w3.org/2000/svg" xmlns:xlink="http://www.w3.org/1999/xlink" xml:space="preserve" xmlns:serif="http://www.serif.com/" style="fill-rule:evenodd;clip-rule:evenodd;stroke-linecap:round;stroke-linejoin:round;stroke-miterlimit:1.5;">
    <path d="M7.727,103.533C16.721,89.182 31.164,68.673 59.794,53.455C85.655,39.709 116.63,37.715 123.661,37.491C193.848,35.218 194.842,92.491 194.921,97.994C195.824,115.515 188.933,134.303 178.503,136.57C163.006,139.939 144.291,140.661 127.085,141.558C127.085,141.558 124.145,125.164 108.012,126.267C89.358,127.545 89.485,142.927 89.485,142.927L56.285,143.133C37.079,141.818 18.4,137.539 1.061,125.691C1.661,119.17 3.63,110.073 7.727,103.533Z" style="fill:none;stroke:black;stroke-width:2.12px;"/>
    <path d="M108.448,129.176C117.794,129.176 125.382,136.43 125.382,145.364C125.382,154.297 117.794,161.545 108.448,161.545C99.103,161.545 91.515,154.297 91.515,145.364C91.515,136.43 99.103,129.176 108.448,129.176ZM108.448,137.267C113.121,137.267 116.915,140.897 116.915,145.364C116.915,149.83 113.121,153.455 108.448,153.455C103.776,153.455 99.982,149.83 99.982,145.364C99.982,140.897 103.776,137.267 108.448,137.267Z" style="fill:none;stroke:black;stroke-width:2.12px;"/>
    <path d="M12.818,103.297C12.818,103.297 45.83,43.636 123.776,41.121C188.467,39.036 191.17,97.515 191.17,97.515C184.891,98.055 181.879,101.273 181.594,103.533C180.994,108.309 185.473,111 189.418,111.055C187.497,124.024 183.527,129.521 175.552,132.448C165.273,136.224 132.152,135.17 132.152,135.17C132.152,135.17 128.806,118.309 108.121,118.521C90.891,118.703 85.018,137.339 85.018,137.339C55.279,140.467 28.964,137.182 7.655,124.442C7.776,121.891 8.612,119.6 10.03,117.539C10.03,117.539 20.394,117.061 20.636,110.206C20.861,103.873 12.818,103.297 12.818,103.297Z" style="fill:none;stroke:black;stroke-width:2.12px;"/>
    <path d="M130.733,63.473C130.915,57.127 137.479,52.018 145.533,52.018C153.703,52.018 160.339,57.273 160.339,63.752C160.339,64.121 160.321,64.485 160.279,64.848L162.291,122.552L132.77,123.2L130.624,63.473L130.733,63.473Z" style="fill:none;stroke:black;stroke-width:2.12px;"/>
    <ellipse cx="145.752" cy="73.327" rx="9.2" ry="8.776" style="fill:none;stroke:black;stroke-width:2.12px;"/>
    <path d="M117.43,66.97C117.406,65.515 116.2,64.358 114.745,64.388C99.303,64.061 83.727,64.17 67.806,65.309C66.352,65.333 65.194,66.539 65.224,67.994C65.982,73.97 66.024,80.085 65.582,86.303C65.612,87.758 66.818,88.915 68.273,88.885C84.067,87.794 99.648,87.818 115.206,87.964C116.661,87.933 117.818,86.733 117.794,85.279C117.43,79.176 117.303,73.073 117.43,66.97Z" style="fill:none;stroke:black;stroke-width:2.12px;"/>
</svg>
