<svg width="100%" height="100%" viewBox="0 0 252 514" version="1.1" xmlns="http://www.w3.org/2000/svg" style="fill-rule:evenodd;clip-rule:evenodd;stroke-linejoin:round;stroke-miterlimit:2;">
    <g id="Footprint" transform="matrix(1,0,0,0.857143,-346.513,-148.347)">
        <g transform="matrix(1.22892,0,0,1.22892,102.203,131.773)">
            <path d="M389.99,249.45C398.467,218.97 409.314,181.88 396.162,150.774C383.682,121.278 341.533,119.231 317.842,123.563C272.666,131.872 210.102,174.731 217.893,236.923C223.487,281.599 261.788,333.177 260.487,372.793C259.366,406.551 239.561,443.461 249.51,476.673C263.276,522.587 330.526,537.939 356.31,497.275C392.275,440.541 358.56,366.135 366.451,303.225C368.599,286.163 385.443,265.795 389.994,249.459L389.99,249.45ZM289.43,268.466C272.696,263.509 224.414,242.314 279.121,171.884C308.719,191.954 320.113,209.618 322.219,224.22C308.078,229.286 298.328,239.138 299.551,256.962C291.844,238.634 285.793,213.282 283.192,197.474C281.887,215.943 284.614,248.783 289.43,268.466ZM316.383,278.587C322.141,267.368 329.559,257.255 338.945,248.712C327.425,255.083 317.183,263.173 308.375,272.9C304.293,261.584 295.832,224.763 359.07,226.791C360.914,284.619 330.289,282.486 316.382,278.588L316.383,278.587Z" style="fill:rgb(0,255,123);fill-rule:nonzero;"/>
        </g>
        <g transform="matrix(1.22892,0,0,1.22892,102.203,131.773)">
            <path d="M373.11,106.81C388.88,107.755 402.567,92.154 403.669,71.955C404.782,51.756 392.896,34.607 377.146,33.646C361.361,32.701 347.677,48.302 346.564,68.513C345.459,88.712 357.349,105.841 373.111,106.81L373.11,106.81Z" style="fill:rgb(0,255,123);fill-rule:nonzero;"/>
        </g>
        <g transform="matrix(1.22892,0,0,1.22892,102.203,131.773)">
            <path d="M316.67,102.39C327.647,103.038 337.178,92.175 337.955,78.101C338.721,64.027 330.436,52.081 319.459,51.421C308.479,50.761 298.947,61.624 298.174,75.71C297.408,89.761 305.701,101.722 316.67,102.39Z" style="fill:rgb(0,255,123);fill-rule:nonzero;"/>
        </g>
        <g transform="matrix(1.22892,0,0,1.22892,102.203,131.773)">
            <path d="M273.39,117.37C283.542,117.979 292.347,107.952 293.062,94.952C293.785,81.96 286.14,70.917 275.988,70.288C265.828,69.683 257.027,79.745 256.32,92.733C255.593,105.737 263.242,116.776 273.39,117.37Z" style="fill:rgb(0,255,123);fill-rule:nonzero;"/>
        </g>
        <g transform="matrix(1.22892,0,0,1.22892,102.203,131.773)">
            <path d="M241.68,137.63C249.973,136.985 256.078,127.853 255.309,117.224C254.547,106.611 247.211,98.497 238.911,99.158C230.622,99.83 224.532,108.97 225.29,119.599C226.028,130.185 233.364,138.283 241.681,137.63L241.68,137.63Z" style="fill:rgb(0,255,123);fill-rule:nonzero;"/>
        </g>
        <g transform="matrix(1.22892,0,0,1.22892,102.203,131.773)">
            <path d="M216.96,163.46C224.569,161.636 229.046,152.261 226.921,142.526C224.812,132.753 216.909,126.292 209.296,128.116C201.667,129.921 197.21,139.3 199.327,149.065C201.444,158.811 209.327,165.268 216.96,163.46Z" style="fill:rgb(0,255,123);fill-rule:nonzero;"/>
        </g>
    </g>
</svg>
