<svg width="100%" height="100%" viewBox="0 0 1307 607" version="1.1" xmlns="http://www.w3.org/2000/svg" style="fill-rule:evenodd;clip-rule:evenodd;stroke-linecap:round;stroke-linejoin:round;stroke-miterlimit:1.5;">
    <g transform="matrix(1,0,0,1,7.47109,0)">
        <g transform="matrix(0.827545,0,0,0.885157,75.5,0)">
            <g transform="matrix(1.12957,0,0,1,-89.8163,0)">
                <rect x="0" y="0" width="1388.39" height="684.827" style="fill:none;"/>
            </g>
        </g>
        <g transform="matrix(0.827545,0,0,0.885157,75.5,0)">
            <g transform="matrix(2.38527e-17,0.36419,-0.86728,4.96491e-17,2843.03,-2482.45)">
                <path d="M7591.73,1768.48L7591.73,1859.19L7281.02,1719.63L7591.73,1580.07L7591.73,1670.79L8397.49,1670.79L8397.49,1768.48L7591.73,1768.48Z" style="fill:white;stroke:white;stroke-width:5.99px;"/>
            </g>
        </g>
        <g transform="matrix(0.827545,0,0,0.885157,75.5,0)">
            <g transform="matrix(2.38527e-17,-0.36419,0.86728,4.96491e-17,-1468.61,3227.39)">
                <path d="M7591.73,1768.48L7591.73,1859.19L7281.02,1719.63L7591.73,1580.07L7591.73,1670.79L8397.49,1670.79L8397.49,1768.48L7591.73,1768.48Z" style="fill:white;stroke:white;stroke-width:5.99px;"/>
            </g>
        </g>
        <g transform="matrix(0.827545,0,0,0.885157,75.5,0)">
            <g transform="matrix(0.984014,0.568806,-5.46236e-17,1.13761,256.746,-910.721)">
                <path d="M316.205,1015.48C316.289,1015.44 316.371,1015.39 316.449,1015.34C317.013,1014.96 317.592,1014.41 318.157,1013.66C318.238,1013.55 318.309,1013.44 318.369,1013.32C318.776,1012.5 318.993,1011.59 318.993,1010.57L318.993,960.612C318.993,959.764 318.794,958.911 318.369,958.063C318.309,957.942 318.237,957.826 318.156,957.718C317.592,956.966 317.012,956.417 316.449,956.041C316.372,955.989 316.291,955.942 316.208,955.9C315.393,955.492 314.48,955.276 313.463,955.276L201.388,955.276C200.371,955.276 199.458,955.492 198.644,955.9C197.684,956.381 196.963,957.102 196.483,958.062" style="fill:none;stroke:rgb(0,254,126);stroke-width:2.2px;stroke-linecap:butt;stroke-miterlimit:2;"/>
            </g>
        </g>
        <g transform="matrix(0.827545,0,0,0.885157,75.5,0)">
            <g transform="matrix(0.333985,0,0,0.334389,-437.81,-526.649)">
                <path d="M3014.86,2842.8L3008.31,2846.59" style="fill:none;stroke:rgb(0,254,126);stroke-width:9.32px;"/>
            </g>
        </g>
        <g transform="matrix(0.827545,0,0,0.885157,75.5,0)">
            <g transform="matrix(0.333985,0,0,0.334389,-437.81,-526.649)">
                <path d="M2661.31,2442.18L2654.41,2446.17" style="fill:none;stroke:rgb(0,254,126);stroke-width:9.32px;"/>
            </g>
        </g>
        <g transform="matrix(0.827545,0,0,0.885157,75.5,0)">
            <g transform="matrix(0.333985,0,0,0.334389,-437.81,-526.649)">
                <path d="M2832,3192.31L2838.97,3188.29" style="fill:none;stroke:rgb(0,254,126);stroke-width:9.32px;"/>
            </g>
        </g>
        <g transform="matrix(0.827545,0,0,0.885157,75.5,0)">
            <g transform="matrix(0.333985,0,0,0.334389,-437.81,-526.649)">
                <path d="M2879.97,3125.31C2883.74,3118.59 2887.32,3114.2 2887.32,3114.2" style="fill:none;stroke:rgb(0,254,126);stroke-width:9.32px;"/>
            </g>
        </g>
        <g transform="matrix(0.827545,0,0,0.885157,75.5,0)">
            <g transform="matrix(0.333985,0,0,0.334389,-437.81,-526.649)">
                <path d="M2654.09,2393.15C2656.44,2393.19 2659.07,2394.01 2661.99,2395.7L3013.58,2598.69C3016.58,2600.42 3019.27,2602.71 3021.67,2605.48C3021.92,2605.76 3022.15,2606.06 3022.38,2606.37C3024.04,2608.61 3025.75,2611.46 3027.41,2614.98C3027.65,2615.49 3027.86,2616 3028.04,2616.51C3029.29,2620.12 3029.88,2623.36 3029.88,2626.25L3029.88,2849.66C3029.88,2853.04 3029.27,2855.72 3028.12,2857.78L3028.3,2857.78C3028.55,2857.78 3028.79,2857.76 3029.02,2857.71C3030.68,2857.39 3032.39,2856.51 3034.05,2854.91C3034.29,2854.68 3034.5,2854.41 3034.68,2854.1C3035.87,2852.02 3036.51,2849.29 3036.51,2845.83L3036.51,2622.42C3036.51,2619.53 3035.93,2616.29 3034.68,2612.68C3034.5,2612.17 3034.29,2611.65 3034.05,2611.15C3032.38,2607.63 3030.68,2604.78 3029.02,2602.54C3028.79,2602.23 3028.55,2601.93 3028.31,2601.65C3025.91,2598.88 3023.22,2596.59 3020.22,2594.86L2668.63,2391.87C2665.63,2390.13 2662.94,2389.32 2660.54,2389.32C2657.72,2389.32 2655.59,2390.55 2654.18,2393L2654.09,2393.15Z" style="fill:none;stroke:rgb(0,254,126);stroke-width:9.32px;stroke-linecap:butt;stroke-miterlimit:2;"/>
            </g>
        </g>
        <g transform="matrix(0.827545,0,0,0.885157,75.5,0)">
            <g transform="matrix(0.333985,0,0,0.334389,-437.81,-526.649)">
                <path d="M2649.73,2394.34L2656.83,2390.24" style="fill:none;stroke:rgb(0,254,126);stroke-width:9.32px;"/>
            </g>
        </g>
        <g transform="matrix(0.827545,0,0,0.885157,75.5,0)">
            <g transform="matrix(0.333985,0,0,0.334389,-312.515,-370.726)">
                <path d="M2649.73,2394.34L2656.83,2390.24" style="fill:none;stroke:rgb(0,254,126);stroke-width:9.32px;"/>
            </g>
        </g>
        <g transform="matrix(0.827545,0,0,0.885157,75.5,0)">
            <g transform="matrix(0.312203,1.7383e-17,-1.7362e-17,0.31258,-258.447,-406.025)">
                <path d="M2649.73,2394.34L2656.83,2390.24" style="fill:none;stroke:rgb(0,254,126);stroke-width:9.97px;"/>
            </g>
        </g>
        <g transform="matrix(0.827545,0,0,0.885157,75.5,0)">
            <g transform="matrix(0.312203,1.16384e-18,-1.16244e-18,0.31258,-375.666,-473.785)">
                <path d="M2649.73,2394.34L2656.83,2390.24" style="fill:none;stroke:rgb(0,254,126);stroke-width:9.97px;"/>
            </g>
        </g>
        <g transform="matrix(0.827545,0,0,0.885157,75.5,0)">
            <g transform="matrix(0.984014,0.568806,-5.46236e-17,1.13761,256.744,-910.724)">
                <path d="M317.005,1019.5C318.021,1019.5 318.933,1019.28 319.747,1018.88C319.832,1018.84 319.913,1018.79 319.992,1018.74C320.555,1018.36 321.135,1017.81 321.7,1017.06C321.781,1016.95 321.852,1016.83 321.912,1016.71C322.318,1015.9 322.535,1014.99 322.535,1013.97L322.535,948.302C322.535,947.454 322.336,946.601 321.912,945.753C321.851,945.631 321.78,945.516 321.699,945.408C321.134,944.656 320.555,944.106 319.992,943.731C319.914,943.679 319.834,943.632 319.75,943.59C318.936,943.182 318.023,942.966 317.005,942.966L197.671,942.966C196.654,942.966 195.741,943.182 194.927,943.59C193.967,944.07 193.246,944.791 192.766,945.751C192.34,946.6 192.142,947.453 192.142,948.302L192.142,1013.97C192.142,1014.99 192.358,1015.9 192.765,1016.71C193.246,1017.68 193.968,1018.4 194.929,1018.88C195.741,1019.28 196.654,1019.5 197.671,1019.5L317.005,1019.5Z" style="fill:none;stroke:rgb(0,254,126);stroke-width:2.2px;stroke-linecap:butt;stroke-miterlimit:2;"/>
            </g>
        </g>
        <g transform="matrix(0.827545,0,0,0.885157,75.5,0)">
            <g transform="matrix(0.236163,0.136514,-1.31097e-17,0.273028,-245.939,-1025.04)">
                <path d="M3448.82,3283.47L2952.76,3283.47L2952.76,3295.28C2952.76,3301.79 2958.05,3307.09 2964.57,3307.09L3437.01,3307.09C3443.53,3307.09 3448.82,3301.79 3448.82,3295.28L3448.82,3283.47Z" style="fill:none;stroke:rgb(0,254,126);stroke-width:9.17px;"/>
            </g>
        </g>
        <g transform="matrix(0.827545,0,0,0.885157,75.5,0)">
            <g transform="matrix(0.333985,0,0,0.334389,-437.81,-526.649)">
                <path d="M3109.29,3352.4C3104.44,3363.21 3097.68,3371.78 3089.4,3377.9L3089.33,3378.47L3034.03,3410.41" style="fill:none;stroke:rgb(0,254,126);stroke-width:9.32px;stroke-linecap:butt;stroke-miterlimit:2;"/>
            </g>
        </g>
        <g transform="matrix(0.827545,0,0,0.885157,75.5,0)">
            <g transform="matrix(0.216468,0.125129,-1.20164e-17,0.250258,-146.977,-873.43)">
                <path d="M3212.6,3971.2C3114.87,3971.2 3035.53,4050.54 3035.53,4148.27C3035.53,4246 3114.87,4325.34 3212.6,4325.34C3310.33,4325.34 3389.67,4246 3389.67,4148.27C3389.67,4050.54 3310.33,3971.2 3212.6,3971.2ZM3212.6,4023.46C3281.49,4023.46 3337.41,4079.38 3337.41,4148.27C3337.41,4217.16 3281.49,4273.08 3212.6,4273.08C3143.71,4273.08 3087.78,4217.16 3087.78,4148.27C3087.78,4079.38 3143.71,4023.46 3212.6,4023.46Z" style="fill:none;stroke:rgb(0,254,126);stroke-width:10px;stroke-linecap:butt;stroke-miterlimit:2;"/>
            </g>
        </g>
        <g transform="matrix(0.827545,0,0,0.885157,75.5,0)">
            <g transform="matrix(0.236163,0.136514,-1.31097e-17,0.273028,-184.271,-1107.04)">
                <path d="M3185.39,4657.88C3164.55,4679.74 3135.15,4693.38 3102.59,4693.38C3039.45,4693.38 2988.19,4642.11 2988.19,4578.97C2988.19,4544.47 3003.5,4513.51 3027.68,4492.53" style="fill:none;stroke:rgb(0,254,126);stroke-width:9.17px;"/>
            </g>
        </g>
        <g transform="matrix(0.827545,0,0,0.885157,75.5,0)">
            <g transform="matrix(0.474055,0,0,0.474628,-357.875,-138.4)">
                <path d="M1852.2,1388.1C1854.67,1386.68 1865.66,1380.33 1874.27,1375.36" style="fill:none;stroke:rgb(0,254,126);stroke-width:6.57px;"/>
            </g>
        </g>
        <g transform="matrix(0.827545,0,0,0.885157,75.5,0)">
            <g transform="matrix(0.333985,0,0,0.334389,-168.84,-682.126)">
                <path d="M2271.54,2362.95C2409.42,2237.68 2585.5,2206.2 2799.79,2268.52C2839.79,2280.16 2881.12,2295.05 2923.78,2313.22C3053.39,2362.63 3165.79,2430.27 3260.99,2515.62C3343.8,2589.51 3413.37,2676.27 3469.77,2775.8C3475.68,2786.24 3499.01,2834.14 3516.65,2881.58C3533.37,2926.51 3544.75,2971.23 3544.75,2971.23C3544.8,2971.41 3544.85,2971.6 3544.89,2971.78C3544.89,2971.78 3574.24,3096.48 3593.15,3205.46C3602.14,3257.24 3608.76,3305.47 3608.76,3335.09C3608.76,3463.11 3569.33,3537.42 3491.4,3559.05C3489.76,3559.61 3484.44,3561.08 3476.41,3559.93" style="fill:none;stroke:rgb(0,254,126);stroke-width:9.32px;stroke-linecap:butt;stroke-miterlimit:2;"/>
            </g>
        </g>
        <g transform="matrix(0.827545,0,0,0.885157,75.5,0)">
            <g transform="matrix(0.333985,0,0,0.334389,-167.671,-682.802)">
                <path d="M2370.23,2292.92C2496.22,2213.19 2649.09,2199.47 2828.85,2251.75C2868.85,2263.38 2910.18,2278.28 2952.84,2296.45C3082.45,2345.85 3194.85,2413.5 3290.05,2498.84C3372.86,2572.74 3442.43,2659.5 3498.82,2759.02C3504.74,2769.46 3528.07,2817.36 3545.71,2864.8C3562.43,2909.73 3573.81,2954.45 3573.81,2954.45C3573.86,2954.64 3573.9,2954.82 3573.95,2955C3573.95,2955 3603.3,3079.7 3622.21,3188.68C3631.19,3240.46 3637.82,3288.69 3637.82,3318.31C3637.82,3436.96 3603.95,3509.47 3536.95,3536.68" style="fill:none;stroke:rgb(0,254,126);stroke-width:9.32px;stroke-linecap:butt;stroke-miterlimit:2;"/>
            </g>
        </g>
        <g transform="matrix(0.827545,0,0,0.885157,75.5,0)">
            <g transform="matrix(0.333985,0,0,0.334389,-168.84,-682.126)">
                <path d="M2271.54,2362.95C2409.42,2237.68 2585.5,2206.2 2799.79,2268.52C2839.79,2280.16 2881.12,2295.05 2923.78,2313.22C3053.39,2362.63 3165.79,2430.27 3260.99,2515.62C3343.8,2589.51 3413.37,2676.27 3469.77,2775.8C3475.68,2786.24 3499.01,2834.14 3516.65,2881.58C3533.37,2926.51 3544.75,2971.23 3544.75,2971.23C3544.8,2971.41 3544.85,2971.6 3544.89,2971.78C3544.89,2971.78 3574.24,3096.48 3593.15,3205.46C3602.14,3257.24 3608.76,3305.47 3608.76,3335.09C3608.76,3463.11 3569.33,3537.42 3491.4,3559.05C3489.76,3559.61 3484.44,3561.08 3476.41,3559.93" style="fill:none;stroke:rgb(0,254,126);stroke-width:9.32px;stroke-linecap:butt;stroke-miterlimit:2;"/>
            </g>
        </g>
        <g transform="matrix(0.827545,0,0,0.885157,75.5,0)">
            <g transform="matrix(0.333985,0,0,0.334389,-437.81,-526.649)">
                <path d="M2485.29,2239.63L3173.74,1842.07C3293.02,1775.35 3435.76,1766.35 3601.9,1814.67C3641.48,1826.18 3682.37,1840.93 3724.58,1858.9C3724.72,1858.96 3724.85,1859.02 3724.99,1859.07C3853.21,1907.95 3964.42,1974.84 4058.6,2059.27C4058.61,2059.27 4058.62,2059.28 4058.62,2059.28C4140.5,2132.35 4209.28,2218.14 4265.04,2316.54C4270.86,2326.81 4293.78,2373.96 4311.15,2420.65C4327.63,2464.97 4338.87,2509.07 4338.88,2509.12C4338.91,2509.24 4338.94,2509.36 4338.97,2509.48C4339.26,2510.7 4368.33,2634.35 4387.09,2742.48C4395.94,2793.47 4402.53,2840.95 4402.53,2870.12C4402.53,2971.77 4377.7,3038.37 4326.11,3069.2L4326.16,3069.36L3599.51,3488.4L3599.62,3488.83L3599.33,3488.51L3599.2,3488.58C3627.21,3450.22 3641.19,3409.69 3641.19,3333.11C3641.19,3332.68 3640.76,3332.75 3641.19,3332.93C3644.5,3334.29 3650.5,3329.79 3657.48,3326.51C3672.05,3319.66 3673.14,3308.2 3673.62,3300.19C3673.91,3295.5 3673.51,3293.1 3673.07,3289.09C3671.26,3272.68 3666.08,3265.27 3656.21,3248.02C3655.7,3247.12 3654.33,3246.39 3654.12,3245.18C3652.56,3236.27 3650.91,3222.21 3649.54,3214.19C3647.93,3204.7 3648.1,3200.75 3641.76,3194.32C3640.68,3193.22 3639.36,3192.35 3638.04,3191.44C3632.77,3187.78 3625.26,3184.06 3625.26,3184.06L3577.45,2952.98C3577.4,2952.8 3577.36,2952.61 3577.31,2952.43C3577.31,2952.43 3565.93,2907.71 3549.21,2862.78C3531.57,2815.34 3508.24,2767.44 3502.33,2757C3445.93,2657.47 3376.36,2570.71 3293.55,2496.82C3198.35,2411.47 3085.95,2343.83 2956.34,2294.43C2913.68,2276.26 2872.35,2261.36 2832.35,2249.72C2702.68,2212.01 2586.99,2208.65 2485.29,2239.63Z" style="fill:none;stroke:rgb(0,254,126);stroke-width:9.32px;stroke-linecap:butt;stroke-miterlimit:2;"/>
            </g>
        </g>
        <g transform="matrix(0.827545,0,0,0.885157,75.5,0)">
            <g transform="matrix(0.333985,0,0,0.334389,-437.81,-526.649)">
                <path d="M3372.96,3455.84C3408.38,3476.3 3441.14,3495.21 3464.03,3508.42C3472.66,3513.4 3478.44,3511.53 3478.44,3511.53C3478.73,3511.41 3479.02,3511.31 3479.32,3511.23C3488.46,3508.71 3496.99,3505.37 3504.92,3501.2" style="fill:none;stroke:rgb(0,254,126);stroke-width:9.32px;stroke-linecap:butt;stroke-miterlimit:2;"/>
            </g>
        </g>
        <g transform="matrix(0.827545,0,0,0.885157,75.5,0)">
            <g transform="matrix(0.333985,0,0,0.334389,-437.81,-526.649)">
                <path d="M2205.43,2535.48C2204.34,2554.64 2209.45,2579.24 2220.5,2616.4C2238.74,2664.2 2283.64,2721.11 2344.32,2782.43C2441.84,2880.99 2579.52,2988.05 2722.9,3080.53L2801.5,3125.91" style="fill:none;stroke:rgb(0,254,126);stroke-width:9.32px;stroke-linecap:butt;stroke-miterlimit:2;"/>
            </g>
        </g>
        <g transform="matrix(0.827545,0,0,0.885157,75.5,0)">
            <g transform="matrix(0.333985,0,0,0.334389,-437.81,-526.649)">
                <path d="M2844.77,3072.56C2873.83,3053.19 2915.33,3054.52 2961.38,3081.11C3035.25,3123.76 3097.43,3217.92 3115.32,3307.09C3120.6,3310.14 3125.88,3313.19 3131.14,3316.23" style="fill:none;stroke:rgb(0,254,126);stroke-width:9.32px;stroke-linecap:butt;stroke-miterlimit:2;"/>
            </g>
        </g>
        <g transform="matrix(0.827545,0,0,0.885157,75.5,0)">
            <g transform="matrix(0.333985,0,0,0.334389,-437.81,-526.649)">
                <path d="M3145.05,3324.26C3222.34,3368.88 3296.82,3411.89 3359.05,3447.81" style="fill:none;stroke:rgb(0,254,126);stroke-width:9.32px;stroke-linecap:butt;stroke-miterlimit:2;"/>
            </g>
        </g>
        <g transform="matrix(0.827545,0,0,0.885157,75.5,0)">
            <g transform="matrix(0.333985,0,0,0.334389,-437.81,-526.649)">
                <path d="M3212.06,2780.58C3222.54,2772.59 3238.06,2772.66 3255.36,2782.65C3286.91,2800.86 3312.52,2845.22 3312.52,2881.65C3312.52,2901.62 3304.82,2915.09 3292.66,2920.18C3301.3,2913.6 3306.52,2901.56 3306.52,2885.11C3306.52,2848.68 3280.91,2804.32 3249.36,2786.11C3235.11,2777.89 3222.08,2776.39 3212.06,2780.58ZM3194.89,2865.33C3197.07,2869.98 3199.47,2874.58 3202.08,2879.1C3204.66,2883.57 3207.41,2887.93 3210.32,2892.17C3204.37,2883.77 3199.15,2874.7 3194.89,2865.33Z" style="fill:none;stroke:rgb(0,254,126);stroke-width:9.32px;"/>
            </g>
        </g>
        <g transform="matrix(0.827545,0,0,0.885157,75.5,0)">
            <g transform="matrix(0.333985,0,0,0.334389,-437.81,-526.649)">
                <path d="M3367.58,3458.95L3359.05,3454.03L3359.05,3441.56L3139.67,3314.9L3139.67,3327.37L3131.14,3322.45L3131.14,2723.28L3131.15,2722.84C3131.36,2647.82 3184.25,2617.43 3249.36,2655.03C3314.6,2692.7 3367.58,2784.44 3367.58,2859.78L3367.58,3458.95ZM3139.67,2727.79C3139.87,2658.18 3188.94,2629.99 3249.36,2664.87C3309.9,2699.82 3359.05,2784.95 3359.05,2854.86L3359.05,3429.74L3139.67,3303.09L3139.67,2727.79Z" style="fill:none;stroke:rgb(0,254,126);stroke-width:9.32px;"/>
            </g>
        </g>
        <g transform="matrix(0.827545,0,0,0.885157,75.5,0)">
            <g transform="matrix(0.333985,0,0,0.334389,-437.81,-526.649)">
                <path d="M3168.84,2645.14C3190.43,2630.83 3221.21,2631.85 3255.36,2651.56C3320.6,2689.23 3373.58,2780.98 3373.58,2856.32L3373.58,3455.48L3367.58,3458.95L3367.58,2859.78C3367.58,2784.44 3314.6,2692.7 3249.36,2655.03C3218.26,2637.07 3189.95,2634.62 3168.84,2645.14ZM3174.87,2655.58C3156.83,2667.66 3145.76,2691.35 3145.67,2724.33L3145.67,3299.62L3359.05,3422.82L3359.05,3429.74L3139.67,3303.09L3139.67,2727.79C3139.78,2691.3 3153.31,2666.18 3174.87,2655.58ZM3145.67,3318.36L3145.67,3323.9L3139.67,3327.37L3139.67,3314.9L3145.67,3318.36Z" style="fill:none;stroke:rgb(0,254,126);stroke-width:9.32px;"/>
            </g>
        </g>
        <g transform="matrix(0.827545,0,0,0.885157,75.5,0)">
            <g transform="matrix(0.333985,0,0,0.334389,-437.81,-526.649)">
                <path d="M3139.67,3303.09L3145.79,3299.56" style="fill:none;stroke:rgb(0,254,126);stroke-width:9.32px;"/>
            </g>
        </g>
        <g transform="matrix(0.827545,0,0,0.885157,75.5,0)">
            <g transform="matrix(0.333985,0,0,0.334389,-437.81,-526.649)">
                <path d="M3139.67,3303.09L3145.79,3299.56L3358.99,3422.65L3358.99,3429.53L3139.67,3303.09Z" style="fill:none;stroke:rgb(0,254,126);stroke-width:9.32px;"/>
            </g>
        </g>
        <g transform="matrix(0.827545,0,0,0.885157,75.5,0)">
            <g transform="matrix(0.203102,0.117403,-1.31097e-17,0.273028,-121.175,-957.643)">
                <rect x="3666.3" y="3633.07" width="128.579" height="13.929" style="fill:none;stroke:rgb(0,254,126);stroke-width:9.83px;"/>
            </g>
        </g>
        <g transform="matrix(0.827545,0,0,0.885157,75.5,0)">
            <g transform="matrix(0.236163,0.136514,-1.31097e-17,0.273028,-236.789,-1024.34)">
                <path d="M3764.17,3631.59C3764.17,3627.19 3761.08,3623.62 3757.27,3623.62L3730.92,3623.62C3727.11,3623.62 3724.02,3627.19 3724.02,3631.59L3724.02,3632.6" style="fill:none;stroke:rgb(0,254,126);stroke-width:9.17px;"/>
            </g>
        </g>
        <g transform="matrix(0.827545,0,0,0.885157,75.5,0)">
            <g transform="matrix(0.236163,0.136514,-1.31097e-17,0.273028,-236.789,-1024.34)">
                <path d="M3724.02,3647.54C3724.02,3651.94 3727.11,3655.51 3730.92,3655.51L3757.27,3655.51C3761.08,3655.51 3764.17,3651.94 3764.17,3647.54L3764.17,3631.59" style="fill:none;stroke:rgb(0,254,126);stroke-width:9.17px;"/>
            </g>
        </g>
        <g transform="matrix(0.827545,0,0,0.885157,75.5,0)">
            <g transform="matrix(0.333985,0,0,0.334389,-437.81,-526.649)">
                <path d="M3236.01,2993.96L3200.95,2973.72" style="fill:none;stroke:rgb(0,254,126);stroke-width:9.32px;"/>
            </g>
        </g>
        <g transform="matrix(0.827545,0,0,0.885157,75.5,0)">
            <g transform="matrix(0.236163,0.136514,-1.31097e-17,0.273028,-234.785,-1025.5)">
                <path d="M3763.64,3650.62C3763.98,3649.67 3764.17,3648.63 3764.17,3647.54L3764.17,3631.59C3764.17,3627.19 3761.08,3623.62 3757.27,3623.62L3730.92,3623.62C3729.59,3623.62 3728.35,3624.06 3727.29,3624.81" style="fill:none;stroke:rgb(0,254,126);stroke-width:9.17px;"/>
            </g>
        </g>
        <g transform="matrix(0.827545,0,0,0.885157,75.5,0)">
            <g transform="matrix(0.333985,0,0,0.334389,-437.81,-526.649)">
                <path d="M3192.82,2995.61C3192.82,2995.61 3193.4,2990.47 3193.78,2985.44" style="fill:none;stroke:rgb(0,254,126);stroke-width:9.32px;"/>
            </g>
        </g>
        <g transform="matrix(0.827545,0,0,0.885157,75.5,0)">
            <g transform="matrix(0.333985,0,0,0.334389,-437.81,-526.649)">
                <path d="M3193.92,2974.15C3193.56,2968.93 3192.82,2962.92 3192.82,2962.92L3174.37,2952.27C3174.37,2952.27 3171.42,2950.22 3170.6,2949.11C3169.68,2947.86 3168.84,2944.75 3168.84,2944.75" style="fill:none;stroke:rgb(0,254,126);stroke-width:9.32px;"/>
            </g>
        </g>
        <g transform="matrix(0.827545,0,0,0.885157,75.5,0)">
            <g transform="matrix(0.333985,0,0,0.334389,-437.81,-526.649)">
                <path d="M3162.61,2955.42C3162.61,2955.42 3162.17,2949.84 3166.57,2945.99C3170.42,2942.62 3175.78,2946.14 3175.78,2946.14L3203.14,2961.83C3203.14,2961.83 3204.12,2969.86 3204.47,2975.75" style="fill:none;stroke:rgb(0,254,126);stroke-width:9.32px;"/>
            </g>
        </g>
        <g transform="matrix(0.827545,0,0,0.885157,75.5,0)">
            <g transform="matrix(0.333985,0,0,0.334389,-437.81,-526.649)">
                <path d="M3203.74,2991.19C3203.48,2993.27 3203.13,2994.64 3203.13,2994.64L3192.82,2995.61L3171.58,2983.35C3171.58,2983.35 3167.14,2977.33 3164.19,2968.12C3162.76,2963.64 3162.61,2955.42 3162.61,2955.42" style="fill:none;stroke:rgb(0,254,126);stroke-width:9.32px;"/>
            </g>
        </g>
        <g transform="matrix(0.827545,0,0,0.885157,75.5,0)">
            <g transform="matrix(0.333985,0,0,0.334389,-437.81,-537.501)">
                <path d="M3192.82,2995.61L3203.13,2994.64" style="fill:none;stroke:rgb(0,254,126);stroke-width:9.32px;"/>
            </g>
        </g>
        <g transform="matrix(0.827545,0,0,0.885157,75.5,0)">
            <g transform="matrix(0.333985,0,0,0.334389,-437.81,-526.649)">
                <path d="M3236.64,2993.32L3243.48,2989.38" style="fill:none;stroke:rgb(0,254,126);stroke-width:9.32px;"/>
            </g>
        </g>
        <g transform="matrix(0.827545,0,0,0.885157,75.5,0)">
            <g transform="matrix(0.206562,0.0120046,0.0119901,0.333259,-66.2881,-568.712)">
                <path d="M3192.82,2995.61L3203.13,2994.64" style="fill:none;stroke:rgb(0,254,126);stroke-width:10.63px;"/>
            </g>
        </g>
        <g transform="matrix(0.827545,0,0,0.885157,75.5,0)">
            <g transform="matrix(0.333985,0,0,0.334389,-437.81,-526.649)">
                <path d="M3262.05,3030.38L3268.7,3026.54" style="fill:none;stroke:rgb(0,254,126);stroke-width:9.32px;"/>
            </g>
        </g>
        <g transform="matrix(0.827545,0,0,0.885157,75.5,0)">
            <g transform="matrix(0.333985,0,0,0.334389,-437.81,-526.649)">
                <path d="M3205.22,2768.73C3217.47,2759.75 3235.4,2759.97 3255.36,2771.5C3292.24,2792.79 3322.17,2844.64 3322.17,2887.22C3322.17,2910.27 3313.4,2925.91 3299.5,2932.03C3309.88,2924.42 3316.17,2910.21 3316.17,2890.69C3316.17,2848.11 3286.24,2796.25 3249.36,2774.96C3232.45,2765.2 3217,2763.55 3205.22,2768.73ZM3212.06,2780.58C3203.42,2787.16 3198.2,2799.2 3198.2,2815.65C3198.2,2852.07 3223.81,2896.43 3255.36,2914.65C3269.61,2922.87 3282.64,2924.37 3292.66,2920.18C3282.18,2928.16 3266.66,2928.1 3249.36,2918.11C3217.81,2899.9 3192.2,2855.54 3192.2,2819.11C3192.2,2799.13 3199.9,2785.66 3212.06,2780.58Z" style="fill:none;stroke:rgb(0,254,126);stroke-width:9.32px;"/>
            </g>
        </g>
        <g transform="matrix(0.827545,0,0,0.885157,75.5,0)">
            <g transform="matrix(0.236163,0.136514,-1.31097e-17,0.273028,-546.405,-1202.83)">
                <path d="M5055.12,3347.68C5107.27,3347.68 5149.61,3390.02 5149.61,3442.16C5149.61,3494.32 5107.27,3536.65 5055.12,3536.65C5002.97,3536.65 4960.63,3494.32 4960.63,3442.16C4960.63,3390.02 5002.97,3347.68 5055.12,3347.68ZM5055.12,3361.33C5099.73,3361.33 5135.95,3397.55 5135.95,3442.16C5135.95,3486.78 5099.73,3523 5055.12,3523C5010.5,3523 4974.28,3486.78 4974.28,3442.16C4974.28,3397.55 5010.5,3361.33 5055.12,3361.33Z" style="fill:none;stroke:rgb(0,254,126);stroke-width:9.17px;"/>
            </g>
        </g>
        <g transform="matrix(0.827545,0,0,0.885157,75.5,0)">
            <g transform="matrix(0.984014,0.568806,-5.46236e-17,1.13761,254.378,-909.354)">
                <path d="M313.463,1016.1C314.479,1016.1 315.391,1015.89 316.205,1015.48C316.289,1015.44 316.371,1015.39 316.449,1015.34C317.013,1014.96 317.592,1014.41 318.157,1013.66C318.238,1013.55 318.309,1013.44 318.369,1013.32C318.776,1012.5 318.993,1011.59 318.993,1010.57L318.993,960.612C318.993,959.764 318.794,958.911 318.369,958.063C318.309,957.942 318.237,957.826 318.156,957.718C317.592,956.966 317.012,956.417 316.449,956.041C316.372,955.989 316.291,955.942 316.208,955.9C315.393,955.492 314.48,955.276 313.463,955.276L201.388,955.276C200.371,955.276 199.458,955.492 198.644,955.9C197.684,956.381 196.963,957.102 196.483,958.062C196.058,958.91 195.859,959.764 195.859,960.612L195.859,1010.57C195.859,1011.59 196.075,1012.5 196.483,1013.32C196.963,1014.28 197.685,1015 198.646,1015.48C199.459,1015.89 200.371,1016.1 201.388,1016.1L313.463,1016.1ZM313.463,1011.6L201.388,1011.6C201.119,1011.6 200.874,1011.56 200.658,1011.46L200.658,1011.45C200.591,1011.42 200.542,1011.37 200.508,1011.3L200.506,1011.3C200.398,1011.09 200.359,1010.84 200.359,1010.57L200.359,960.612C200.359,960.433 200.416,960.257 200.506,960.078C200.506,960.077 200.507,960.076 200.507,960.075C200.541,960.008 200.591,959.958 200.658,959.924C200.659,959.924 200.66,959.923 200.661,959.923C200.876,959.815 201.12,959.776 201.388,959.776L313.463,959.776C313.68,959.776 313.881,959.802 314.064,959.869C314.183,959.967 314.299,960.093 314.417,960.239C314.465,960.363 314.493,960.487 314.493,960.612L314.493,1010.57C314.493,1010.78 314.469,1010.97 314.408,1011.15C314.293,1011.29 314.181,1011.41 314.066,1011.51C313.882,1011.58 313.68,1011.6 313.463,1011.6Z" style="fill:none;stroke:rgb(0,254,126);stroke-width:2.2px;stroke-linecap:butt;stroke-miterlimit:2;"/>
            </g>
        </g>
        <g transform="matrix(0.827545,0,0,0.885157,75.5,0)">
            <g transform="matrix(0.639295,0.369543,1.09569e-17,0.255448,-1255.09,-1319.91)">
                <path d="M2845.3,2469.37C2845.3,2467.22 2844.78,2465.48 2844.14,2465.48L2670.79,2465.48C2670.14,2465.48 2669.62,2467.22 2669.62,2469.37L2669.62,2692.39C2669.62,2694.54 2670.14,2696.28 2670.79,2696.28L2844.14,2696.28C2844.78,2696.28 2845.3,2694.54 2845.3,2692.39L2845.3,2469.37Z" style="fill:none;stroke:rgb(0,254,126);stroke-width:4.93px;"/>
            </g>
        </g>
        <g transform="matrix(0.827545,0,0,0.885157,75.5,0)">
            <g transform="matrix(0.333985,0,0,0.334389,-437.81,-526.649)">
                <path d="M2999.26,2826.2L2670.17,2636.2C2668.94,2635.49 2667.94,2633.58 2667.94,2631.94L2667.94,2464.32L2665.22,2462.74C2663.99,2462.03 2662.99,2462.79 2662.99,2464.43L2662.99,2634.8C2662.99,2636.44 2663.99,2638.35 2665.22,2639.06L2997.03,2830.63C2998.26,2831.34 2999.26,2830.59 2999.26,2828.95L2999.26,2826.2Z" style="fill:none;stroke:rgb(0,254,126);stroke-width:9.32px;"/>
            </g>
        </g>
        <g transform="matrix(0.827545,0,0,0.885157,75.5,0)">
            <g transform="matrix(0.333985,0,0,0.334389,-437.81,-526.649)">
                <path d="M3626.47,3196.6L3595.56,3214.45L3592.5,3216.41L3588.92,3216.21L3586.97,3214.42L3585.52,3213.59" style="fill:none;stroke:rgb(0,254,126);stroke-width:9.32px;stroke-linecap:butt;stroke-miterlimit:2;"/>
            </g>
        </g>
        <g transform="matrix(0.827545,0,0,0.885157,75.5,0)">
            <g transform="matrix(0.333985,0,0,0.334389,-437.81,-526.649)">
                <path d="M3641.19,3333.11C3638.82,3444.29 3604.98,3508.99 3540.34,3534.74" style="fill:none;stroke:rgb(0,254,126);stroke-width:9.32px;stroke-linecap:butt;stroke-miterlimit:2;"/>
            </g>
        </g>
        <g transform="matrix(0.827545,0,0,0.885157,75.5,0)">
            <g transform="matrix(0.333985,0,0,0.334389,-437.81,-526.649)">
                <path d="M3608.69,3344.28C3606.83,3466.67 3567.44,3537.94 3491.4,3559.05C3488.6,3560.01 3475.1,3563.6 3455.65,3552.37C3382.49,3510.13 3232.6,3423.59 3086.62,3339.31L3073.99,3332.01C3070.61,3256.34 3017.69,3167.12 2953,3129.77C2888.3,3092.42 2835.39,3120.54 2832.01,3192.31L2794.01,3170.37L2714.03,3124.19C2713.7,3124 2713.37,3123.8 2713.04,3123.59C2565.71,3028.6 2424.25,2918.29 2324.04,2817.02C2253.31,2745.53 2202.78,2677.38 2182.02,2621.82C2181.72,2621.03 2181.46,2620.24 2181.22,2619.45C2166.21,2569.21 2161.13,2537.65 2163.68,2512.83C2163.72,2512.37 2163.77,2511.92 2163.83,2511.46L2198.07,2531.23C2197.77,2532.98 2197.53,2534.77 2197.34,2536.61C2195.32,2556.31 2200.35,2581.64 2212.12,2621.24C2230.36,2669.04 2275.26,2725.95 2335.94,2787.27C2433.46,2885.83 2571.14,2992.89 2714.52,3085.37L2799.06,3134.18C2806.83,3104.39 2822.97,3083.33 2844.81,3072.53C2873.2,3058.5 2911.23,3061.83 2953,3085.95C3026.87,3128.6 3089.05,3222.76 3106.94,3311.93C3246.34,3392.42 3385.88,3472.98 3455.65,3513.26C3464.28,3518.24 3470.06,3516.36 3470.06,3516.36C3470.35,3516.25 3470.64,3516.15 3470.94,3516.07C3538.04,3497.59 3572.37,3434.49 3574.76,3327.69L3600.32,3342.44L3603.54,3344.4L3606.47,3344.97L3608.68,3344.29L3608.69,3344.28ZM3561.24,3199.57C3543.44,3095.47 3514.33,2972.24 3512.67,2965.23C3511.77,2961.75 3501.58,2922.56 3486.94,2883.19C3471.24,2840.99 3450.75,2798.33 3445.48,2789.05C3393.25,2696.87 3328.75,2616.62 3252.05,2548.18C3252.03,2548.16 3252.01,2548.14 3251.99,2548.13C3160.86,2466.43 3053.24,2402.21 2929.14,2354.94C2928.93,2354.86 2928.71,2354.77 2928.5,2354.68C2644.03,2233.44 2420.81,2262.56 2258.84,2442.06L2257.73,2444.61C2256.45,2446.16 2221.04,2423.41 2219.52,2421.63L2219.88,2416.39C2224.99,2410.19 2217.27,2419.58 2223.24,2412.34C2223.32,2412.23 2223.41,2412.14 2223.5,2412.04L2230.89,2403.83C2296.25,2331.39 2371.25,2282.61 2455.88,2257.48C2556.81,2227.52 2671.45,2231.2 2799.79,2268.52C2839.79,2280.16 2881.12,2295.05 2923.78,2313.22C3053.39,2362.63 3165.79,2430.27 3260.99,2515.62C3343.8,2589.51 3413.37,2676.27 3469.77,2775.8C3475.68,2786.24 3499.01,2834.14 3516.65,2881.58C3533.37,2926.51 3544.75,2971.23 3544.75,2971.23C3544.8,2971.41 3544.85,2971.6 3544.89,2971.78C3544.89,2971.78 3574.24,3096.48 3593.15,3205.46C3593.7,3208.64 3594.25,3211.8 3594.78,3214.95L3592.5,3216.41L3588.92,3216.21L3586.97,3214.42L3561.24,3199.57Z" style="fill:none;stroke:rgb(0,254,126);stroke-width:9.32px;stroke-linecap:butt;stroke-miterlimit:2;"/>
            </g>
        </g>
        <g transform="matrix(0.827545,0,0,0.885157,75.5,0)">
            <g transform="matrix(0.281685,0.0302324,0.0301959,0.316934,-394.702,-551.567)">
                <path d="M2215.85,2410.38L2195.85,2421.92" style="fill:none;stroke:rgb(0,254,126);stroke-width:9.41px;"/>
            </g>
        </g>
        <g transform="matrix(0.827545,0,0,0.885157,75.5,0)">
            <g transform="matrix(0.146955,0.0313821,0.0313443,0.18337,-71.8723,-180.998)">
                <path d="M2215.85,2410.38L2195.85,2421.92" style="fill:none;stroke:rgb(0,254,126);stroke-width:15.69px;"/>
            </g>
        </g>
        <g transform="matrix(0.827545,0,0,0.885157,75.5,0)">
            <g transform="matrix(0.333985,0,0,0.334389,-437.946,-526.388)">
                <path d="M2220.46,2415.71C2220.46,2415.71 2219.26,2417.47 2219.38,2419.29C2219.47,2420.54 2220.6,2421.95 2221.2,2422.24" style="fill:none;stroke:rgb(0,254,126);stroke-width:9.32px;"/>
            </g>
        </g>
        <g transform="matrix(0.827545,0,0,0.885157,75.5,0)">
            <g transform="matrix(0.333985,0,0,0.334389,-437.81,-526.649)">
                <path d="M2220.8,2423.02L2253.58,2442.48" style="fill:none;stroke:rgb(0,254,126);stroke-width:9.32px;"/>
            </g>
        </g>
        <g transform="matrix(0.827545,0,0,0.885157,75.5,0)">
            <g transform="matrix(0.333985,0,0,0.334389,-438.356,-527.766)">
                <path d="M2255.22,2445.82C2255.22,2445.82 2260.79,2448.13 2263.52,2447.28" style="fill:none;stroke:rgb(0,254,126);stroke-width:9.32px;"/>
            </g>
        </g>
        <g transform="matrix(0.827545,0,0,0.885157,75.5,0)">
            <g transform="matrix(0.236163,0.136514,-1.31097e-17,0.273028,-239.797,-1028.59)">
                <path d="M2294.62,3643.7C2295.19,3642.81 2297.39,3640.5 2299.61,3639.34C2302.23,3637.96 2304.88,3637.8 2304.88,3637.8L2307.24,3637.8" style="fill:none;stroke:rgb(0,254,126);stroke-width:9.17px;stroke-linecap:butt;stroke-miterlimit:2;"/>
            </g>
        </g>
        <g transform="matrix(0.827545,0,0,0.885157,75.5,0)">
            <g transform="matrix(0.236163,0.136514,-1.31097e-17,0.273028,-245.461,-1025.32)">
                <path d="M2304.47,3779.53L2232.28,3779.53C2232.28,3779.53 2230.03,3779.35 2228.92,3777.76C2227.94,3776.34 2228.07,3773.55 2228.31,3772.44C2236.31,3735.89 2258.59,3699.61 2294.62,3643.7C2295.19,3642.81 2297.39,3640.5 2299.61,3639.34C2302.23,3637.96 2304.88,3637.8 2304.88,3637.8L2372,3637.8L2372,3637.82C2372.67,3637.81 2373.34,3637.8 2374.02,3637.8C2413.13,3637.8 2444.88,3669.55 2444.88,3708.66C2444.88,3747.77 2413.13,3779.53 2374.02,3779.53C2373.34,3779.53 2372.67,3779.52 2372,3779.5L2372,3779.53L2304.47,3779.53" style="fill:none;stroke:rgb(0,254,126);stroke-width:9.17px;stroke-linecap:butt;stroke-miterlimit:2;"/>
            </g>
        </g>
        <g transform="matrix(0.827545,0,0,0.885157,75.5,0)">
            <g transform="matrix(0.333985,0,0,0.334389,-437.81,-526.649)">
                <path d="M2261.89,2443.94C2289.54,2459.91 2312,2498.8 2312,2530.74C2312,2548.84 2304.78,2560.85 2293.49,2564.95C2300.5,2559.04 2304.71,2548.77 2304.71,2534.94C2304.71,2503.01 2282.26,2464.12 2254.6,2448.15C2254.13,2447.87 2253.65,2447.61 2253.18,2447.35L2253.18,2447.33L2205.72,2419.92" style="fill:none;stroke:rgb(0,254,126);stroke-width:9.32px;stroke-linecap:butt;stroke-miterlimit:2;"/>
            </g>
        </g>
        <g transform="matrix(0.827545,0,0,0.885157,75.5,0)">
            <g transform="matrix(0.236163,0.136514,-1.31097e-17,0.273028,-241.991,-1027.33)">
                <path d="M2223.81,3755.77C2204.04,3740.81 2195.11,3714.32 2203.55,3689.59C2214.07,3658.74 2247.66,3642.24 2278.51,3652.77C2280.2,3653.35 2281.84,3653.99 2283.45,3654.7" style="fill:none;stroke:rgb(0,254,126);stroke-width:9.17px;"/>
            </g>
        </g>
        <g transform="matrix(0.827545,0,0,0.885157,75.5,0)">
            <g transform="matrix(0.236163,0.136514,-1.31097e-17,0.273028,-241.991,-1027.33)">
                <path d="M2273.67,3666.97C2250.65,3659.11 2225.6,3671.42 2217.74,3694.43C2211.83,3711.76 2217.35,3730.25 2230.26,3741.68" style="fill:none;stroke:rgb(0,254,126);stroke-width:9.17px;"/>
            </g>
        </g>
        <g transform="matrix(0.827545,0,0,0.885157,75.5,0)">
            <g transform="matrix(0.333985,0,0,0.334389,-437.81,-526.649)">
                <path d="M2157.15,2400.8C2167.91,2392.14 2185.88,2396.03 2202.7,2412.37C2203.89,2413.52 2205.05,2414.72 2206.19,2415.96" style="fill:none;stroke:rgb(0,254,126);stroke-width:9.32px;"/>
            </g>
        </g>
        <g transform="matrix(0.827545,0,0,0.885157,75.5,0)">
            <g transform="matrix(0.333985,0,0,0.334389,-437.81,-526.649)">
                <path d="M2200.95,2418.98C2199.82,2417.75 2198.66,2416.55 2197.46,2415.39C2183.14,2401.47 2167.98,2396.59 2157.15,2400.8" style="fill:none;stroke:rgb(0,254,126);stroke-width:9.32px;"/>
            </g>
        </g>
        <g transform="matrix(0.827545,0,0,0.885157,75.5,0)">
            <g transform="matrix(0.333985,0,0,0.334389,-437.81,-526.649)">
                <path d="M2163.34,2468.28C2154.21,2453.68 2150.31,2436.33 2154.49,2424.6C2156.51,2418.94 2160.13,2415.36 2164.7,2413.85C2162.59,2415.73 2160.89,2418.31 2159.73,2421.57C2155.82,2432.55 2158.98,2448.43 2166.87,2462.39" style="fill:none;stroke:rgb(0,254,126);stroke-width:9.32px;"/>
            </g>
        </g>
        <g transform="matrix(0.827545,0,0,0.885157,75.5,0)">
            <g transform="matrix(0.236163,0.136514,-1.31097e-17,0.273028,-243.722,-1026.32)">
                <path d="M4217.39,3642.7L4252.71,3642.7" style="fill:none;stroke:rgb(0,254,126);stroke-width:9.17px;stroke-linecap:butt;stroke-miterlimit:2;"/>
            </g>
        </g>
        <g transform="matrix(0.827545,0,0,0.885157,75.5,0)">
            <g transform="matrix(0.236163,0.136514,-1.31097e-17,0.273028,-243.722,-1026.32)">
                <path d="M4154.34,3658.85C4167.14,3646.19 4185.31,3637.8 4204.72,3637.8L4213.39,3637.8" style="fill:none;stroke:rgb(0,254,126);stroke-width:9.17px;stroke-linecap:butt;stroke-miterlimit:2;"/>
            </g>
        </g>
        <g transform="matrix(0.827545,0,0,0.885157,75.5,0)">
            <g transform="matrix(0.333985,0,0,0.334389,-437.81,-526.649)">
                <path d="M3518.68,3189.15L3511.56,3193.26" style="fill:none;stroke:rgb(0,254,126);stroke-width:9.32px;"/>
            </g>
        </g>
        <g transform="matrix(0.827545,0,0,0.885157,75.5,0)">
            <g transform="matrix(0.236163,0.136514,-1.31097e-17,0.273028,-246.04,-1024.98)">
                <path d="M4204.72,3779.53C4165.61,3779.53 4133.86,3747.77 4133.86,3708.66C4133.86,3669.55 4165.61,3637.8 4204.72,3637.8L4262.6,3637.8C4262.6,3637.8 4270.79,3639.37 4273.23,3641.34C4275.61,3643.26 4276.44,3645.69 4277.25,3649.61C4280.29,3664.37 4283.04,3678.78 4285.39,3692.58C4290.11,3720.31 4293.22,3745.54 4293.88,3766.06C4293.92,3767.28 4293.74,3773.17 4290.94,3775.95C4287.58,3779.31 4281.5,3779.53 4281.5,3779.53L4204.72,3779.53Z" style="fill:none;stroke:rgb(0,254,126);stroke-width:9.17px;stroke-linecap:butt;stroke-miterlimit:2;"/>
            </g>
        </g>
        <g transform="matrix(0.827545,0,0,0.885157,75.5,0)">
            <g transform="matrix(0.333985,0,0,0.334389,-437.81,-526.649)">
                <path d="M3562.94,3201.51C3562.94,3201.51 3560.38,3199.97 3560.44,3196.06" style="fill:none;stroke:rgb(0,254,126);stroke-width:9.32px;"/>
            </g>
        </g>
        <g transform="matrix(0.827545,0,0,0.885157,75.5,0)">
            <g transform="matrix(0.333985,0,0,0.334389,-437.81,-526.649)">
                <path d="M3625.49,3197.95C3625.49,3197.95 3626.61,3196.78 3626.86,3196.14C3627.1,3195.52 3626.99,3194.08 3626.99,3194.08" style="fill:none;stroke:rgb(0,254,126);stroke-width:9.32px;"/>
            </g>
        </g>
        <g transform="matrix(0.827545,0,0,0.885157,75.5,0)">
            <g transform="matrix(0.333985,0,0,0.334389,-437.81,-526.649)">
                <path d="M3608.69,3344.28L3630.39,3331.76" style="fill:none;stroke:rgb(0,254,126);stroke-width:9.32px;"/>
            </g>
        </g>
        <g transform="matrix(0.827545,0,0,0.885157,75.5,0)">
            <g transform="matrix(0.333985,0,0,0.334389,-437.81,-526.649)">
                <path d="M3625.49,3317.29L3636.03,3311.21" style="fill:none;stroke:rgb(0,254,126);stroke-width:9.32px;"/>
            </g>
        </g>
        <g transform="matrix(0.827545,0,0,0.885157,75.5,0)">
            <g transform="matrix(0.333985,0,0,0.334389,-437.81,-526.649)">
                <path d="M3614.23,3227.63L3625.24,3221.27" style="fill:none;stroke:rgb(0,254,126);stroke-width:9.32px;"/>
            </g>
        </g>
        <g transform="matrix(0.827545,0,0,0.885157,75.5,0)">
            <g transform="matrix(0.333985,0,0,0.334389,-437.81,-526.649)">
                <path d="M3650.92,3330.3L3662.95,3323.35" style="fill:none;stroke:rgb(0,254,126);stroke-width:9.32px;"/>
            </g>
        </g>
        <g transform="matrix(0.827545,0,0,0.885157,75.5,0)">
            <g transform="matrix(0.333985,0,0,0.334389,-437.81,-526.649)">
                <path d="M3614.23,3227.63C3624.79,3221.5 3614.22,3227.63 3624.81,3221.52C3625.16,3221.65 3625.51,3221.79 3625.86,3221.93C3648.67,3231.28 3669.87,3261.8 3673.19,3290.05C3675.54,3310.13 3668.22,3323.69 3655.6,3326.5C3661.41,3320.18 3664.19,3309.63 3662.61,3296.15C3659.3,3267.9 3638.09,3237.38 3615.28,3228.04C3615.02,3227.93 3614.76,3227.83 3614.49,3227.73L3614.23,3227.63ZM3625.35,3317.23C3635.98,3311.14 3635.92,3311.13 3635.92,3311.13C3635.92,3311.13 3636.2,3311.24 3636.34,3311.3C3640.58,3313.04 3644.49,3313.63 3647.94,3313.22C3646.53,3315.1 3643.97,3317.52 3640.17,3318.74C3636.1,3319.98 3631.2,3319.63 3625.76,3317.41C3625.69,3317.38 3625.62,3317.35 3625.56,3317.32L3625.35,3317.23Z" style="fill:none;stroke:rgb(0,254,126);stroke-width:9.32px;"/>
            </g>
        </g>
        <g transform="matrix(0.827545,0,0,0.885157,75.5,0)">
            <g transform="matrix(0.236163,0.136514,-1.31097e-17,0.273028,-240.879,-1027.97)">
                <path d="M4277.42,3650.45C4277.91,3650.37 4278.41,3650.29 4278.91,3650.22C4311.16,3645.53 4341.15,3667.92 4345.84,3700.17C4350.52,3732.43 4328.14,3762.42 4295.88,3767.1C4295.21,3767.2 4294.53,3767.29 4293.85,3767.36C4293.89,3766.77 4293.89,3766.32 4293.88,3766.06C4293.74,3761.7 4293.49,3757.12 4293.14,3752.34C4293.33,3752.32 4293.53,3752.29 4293.73,3752.26C4317.79,3748.76 4334.49,3726.39 4330.99,3702.33C4327.5,3678.27 4305.12,3661.57 4281.06,3665.06C4280.83,3665.1 4280.6,3665.13 4280.37,3665.17C4279.42,3660.31 4278.44,3655.4 4277.42,3650.45Z" style="fill:none;stroke:rgb(0,254,126);stroke-width:9.17px;"/>
            </g>
        </g>
        <g transform="matrix(0.827545,0,0,0.885157,75.5,0)">
            <g transform="matrix(0.342345,-0.197893,0.358814,0.207411,-523.695,-573.515)">
                <path d="M-19.287,3539.8C-19.287,3531.3 -25.552,3524.4 -33.269,3524.4L-178.892,3524.4C-186.608,3524.4 -192.873,3531.3 -192.873,3539.8L-192.873,3626.64C-192.873,3635.14 -186.608,3642.04 -178.892,3642.04L-33.269,3642.04C-25.552,3642.04 -19.287,3635.14 -19.287,3626.64L-19.287,3539.8Z" style="fill:none;stroke:rgb(0,254,126);stroke-width:6.51px;"/>
            </g>
        </g>
        <g transform="matrix(0.827545,0,0,0.885157,75.5,0)">
            <g transform="matrix(0.333985,0,0,0.334389,-437.81,-526.649)">
                <path d="M3361.05,2148.41L3494.36,2071.45C3501.72,2067.19 3514.6,2067.73 3523.1,2072.64L3609.25,2122.38L3616.97,2120.95L3616.97,2132.02C3617.03,2134.77 3615.39,2137.41 3612,2139.37L3473.06,2219.58C3465.7,2223.83 3452.82,2223.3 3444.32,2218.39L3357.48,2168.26C3352.81,2165.56 3350.42,2162.1 3350.45,2158.82L3350.45,2149.04L3361.05,2148.41Z" style="fill:none;stroke:rgb(0,254,126);stroke-width:9.32px;"/>
            </g>
        </g>
        <g transform="matrix(0.827545,0,0,0.885157,75.5,0)">
            <g transform="matrix(0.318657,-0.184199,0.333985,0.193059,-437.243,-523.891)">
                <path d="M-19.287,3539.8C-19.287,3531.3 -25.552,3524.4 -33.269,3524.4L-178.892,3524.4C-186.608,3524.4 -192.873,3531.3 -192.873,3539.8L-192.873,3626.64C-192.873,3635.14 -186.608,3642.04 -178.892,3642.04L-33.269,3642.04C-25.552,3642.04 -19.287,3635.14 -19.287,3626.64L-19.287,3539.8Z" style="fill:none;stroke:rgb(0,254,126);stroke-width:6.99px;"/>
            </g>
        </g>
        <g transform="matrix(0.827545,0,0,0.885157,75.5,0)">
            <g transform="matrix(0.887013,-0.519427,0.197877,1.14615,420.376,-572.449)">
                <path d="M195.144,1019.19C194.79,1018.43 194.484,1017.31 194.484,1016.38L194.484,950.711C194.484,949.863 194.683,949.009 195.108,948.161C195.589,947.201 196.31,946.48 197.27,945.999C198.083,945.591 198.996,945.375 200.013,945.375L319.348,945.375C320.328,945.375 321.211,945.576 322.002,945.961L321.912,945.753C321.851,945.631 321.78,945.516 321.699,945.408C321.134,944.656 320.555,944.106 319.992,943.731C319.914,943.679 319.834,943.632 319.75,943.59C318.936,943.182 318.023,942.966 317.005,942.966L197.671,942.966C196.654,942.966 195.741,943.182 194.927,943.59C193.967,944.07 193.246,944.791 192.766,945.751C192.34,946.6 192.142,947.453 192.142,948.302L192.142,1013.97C192.142,1014.99 192.358,1015.9 192.765,1016.71C193.246,1017.68 194.184,1018.71 195.144,1019.19Z" style="fill:none;stroke:rgb(0,254,126);stroke-width:3.58px;stroke-linecap:butt;stroke-miterlimit:2;"/>
            </g>
        </g>
        <g transform="matrix(0.827545,0,0,0.885157,75.5,0)">
            <g transform="matrix(0.334643,0.018208,0.026913,0.335197,-992.1,-890.274)">
                <path d="M5364.63,3393.3L5357.11,3388.96" style="fill:none;stroke:rgb(0,254,126);stroke-width:8.72px;"/>
            </g>
        </g>
        <g transform="matrix(0.827545,0,0,0.885157,75.5,0)">
            <g transform="matrix(0.334643,0.018208,0.026913,0.335197,-996.095,-889.598)">
                <path d="M5364.63,3393.3L5357.11,3388.96" style="fill:none;stroke:rgb(0,254,126);stroke-width:8.72px;"/>
            </g>
        </g>
        <g transform="matrix(0.827545,0,0,0.885157,75.5,0)">
            <g transform="matrix(0.334643,0.018208,0.026913,0.335197,-1101.57,-827.959)">
                <path d="M5364.63,3393.3L5357.11,3388.96" style="fill:none;stroke:rgb(0,254,126);stroke-width:8.72px;"/>
            </g>
        </g>
        <g transform="matrix(0.827545,0,0,0.885157,75.5,0)">
            <g transform="matrix(0.334643,0.018208,0.026913,0.335197,-992.185,-890.227)">
                <path d="M5030.24,3856.4L5030.36,3856.59L5030.67,3857.14C5032.32,3859.59 5034.56,3860.82 5037.39,3860.82C5039.78,3860.82 5042.4,3860.01 5045.23,3858.28L5377.87,3655.28C5380.7,3653.56 5383.17,3651.27 5385.31,3648.5C5385.53,3648.21 5385.74,3647.91 5385.95,3647.6C5387.4,3645.36 5388.84,3642.51 5390.18,3638.98C5390.37,3638.48 5390.53,3637.97 5390.66,3637.45C5391.53,3634 5391.85,3630.52 5391.52,3627.06L5370.66,3403.65C5370.39,3400.77 5369.56,3398.2 5368.11,3396.04C5367.9,3395.73 5367.67,3395.46 5367.41,3395.23C5365.6,3393.63 5363.81,3392.75 5362.12,3392.43C5361.89,3392.38 5361.65,3392.36 5361.4,3392.36L5361.14,3392.38C5358.81,3392.42 5356.28,3393.24 5353.55,3394.9L5020.91,3597.9C5018.08,3599.63 5015.6,3601.92 5013.47,3604.69C5010.94,3607.95 5009.16,3611.63 5008.13,3615.72C5007.21,3619.33 5006.93,3622.57 5007.2,3625.45L5028.06,3848.87C5028.35,3851.94 5029.08,3854.44 5030.24,3856.4Z" style="fill:none;stroke:rgb(0,254,126);stroke-width:8.72px;stroke-linecap:butt;stroke-miterlimit:2;"/>
            </g>
        </g>
        <g transform="matrix(0.827545,0,0,0.885157,75.5,0)">
            <g transform="matrix(0.212883,-0.124663,0.0474906,0.275076,0.456491,-127.978)">
                <path d="M3448.82,3283.47L2952.76,3283.47L2952.76,3295.28C2952.76,3301.79 2958.05,3307.09 2964.57,3307.09L3437.01,3307.09C3443.53,3307.09 3448.82,3301.79 3448.82,3295.28L3448.82,3283.47Z" style="fill:none;stroke:rgb(0,254,126);stroke-width:14.91px;"/>
            </g>
        </g>
        <g transform="matrix(0.827545,0,0,0.885157,75.5,0)">
            <g transform="matrix(0.333846,0.00964164,0.0354505,0.335553,-1018.98,-846.923)">
                <path d="M5028.05,3855.91L5019.48,3850.96" style="fill:none;stroke:rgb(0,254,126);stroke-width:8.74px;"/>
            </g>
        </g>
        <g transform="matrix(0.827545,0,0,0.885157,75.5,0)">
            <g transform="matrix(0.333846,0.00964164,0.0354505,0.335553,-1109.13,-898.746)">
                <path d="M5295.8,3985.94C5294.52,3983.86 5293.73,3981.15 5293.51,3977.78L5281.98,3807.46C5281.78,3804.57 5282.15,3801.34 5283.16,3797.75C5284.3,3793.69 5286.17,3790.06 5288.78,3786.86C5290.98,3784.14 5293.52,3781.92 5296.4,3780.26L5613.56,3597.66C5616.34,3596.06 5618.89,3595.31 5621.22,3595.31L5621.11,3595.13C5620.91,3594.82 5620.68,3594.54 5620.43,3594.31C5618.65,3592.66 5616.89,3591.73 5615.21,3591.37C5614.98,3591.32 5614.74,3591.29 5614.49,3591.28C5612.09,3591.22 5609.46,3591.97 5606.58,3593.63L5289.41,3776.23C5286.53,3777.89 5284,3780.11 5281.79,3782.83C5279.19,3786.03 5277.31,3789.66 5276.18,3793.72C5275.17,3797.3 5274.8,3800.54 5275,3803.43L5286.52,3973.75C5286.76,3977.22 5287.58,3979.97 5288.92,3982.08C5290.5,3984.58 5292.71,3985.86 5295.54,3985.94L5295.8,3985.94Z" style="fill:none;stroke:rgb(0,254,126);stroke-width:8.74px;stroke-linecap:butt;stroke-miterlimit:2;"/>
            </g>
        </g>
        <g transform="matrix(0.827545,0,0,0.885157,75.5,0)">
            <g transform="matrix(0.333846,0.00964164,0.0354505,0.335553,-1109.11,-898.555)">
                <path d="M5290.79,3984.24L5299.57,3989.31" style="fill:none;stroke:rgb(0,254,126);stroke-width:8.74px;"/>
            </g>
        </g>
        <g transform="matrix(0.827545,0,0,0.885157,75.5,0)">
            <g transform="matrix(0.333846,0.00964164,0.0354505,0.335553,-1014.15,-1027.4)">
                <path d="M5290.79,3984.24L5299.57,3989.31" style="fill:none;stroke:rgb(0,254,126);stroke-width:8.74px;"/>
            </g>
        </g>
        <g transform="matrix(0.827545,0,0,0.885157,75.5,0)">
            <g transform="matrix(0.887013,-0.519427,0.197877,1.14615,425.405,-569.485)">
                <path d="M313.463,1016.1C314.479,1016.1 315.391,1015.89 316.205,1015.48C316.289,1015.44 316.371,1015.39 316.449,1015.34C317.013,1014.96 317.592,1014.41 318.157,1013.66C318.238,1013.55 318.309,1013.44 318.369,1013.32C318.776,1012.5 318.993,1011.59 318.993,1010.57L318.993,960.612C318.993,959.764 318.794,958.911 318.369,958.063C318.309,957.942 318.237,957.826 318.156,957.718C317.592,956.966 317.012,956.417 316.449,956.041C316.372,955.989 316.291,955.942 316.208,955.9C315.393,955.492 314.48,955.276 313.463,955.276L201.388,955.276C200.371,955.276 199.458,955.492 198.644,955.9C197.684,956.381 196.963,957.102 196.483,958.062C196.058,958.91 195.859,959.764 195.859,960.612L195.859,1010.57C195.859,1011.59 196.075,1012.5 196.483,1013.32C196.963,1014.28 197.685,1015 198.646,1015.48C199.459,1015.89 200.371,1016.1 201.388,1016.1L313.463,1016.1Z" style="fill:none;stroke:rgb(0,254,126);stroke-width:3.58px;stroke-linecap:butt;stroke-miterlimit:2;"/>
            </g>
        </g>
        <g transform="matrix(0.827545,0,0,0.885157,75.5,0)">
            <g transform="matrix(0.333846,0.00964164,0.0354505,0.335553,-1109.13,-898.746)">
                <path d="M5611.85,3614.59L5614.6,3613C5615.22,3612.65 5615.79,3612.41 5616.32,3612.34C5616.68,3612.48 5617.04,3612.72 5617.41,3613.02C5617.57,3613.37 5617.68,3613.74 5617.71,3614.17L5629.24,3784.49C5629.28,3785.2 5629.26,3785.9 5629.13,3786.6C5628.84,3787.27 5628.55,3787.87 5628.24,3788.38C5627.74,3788.91 5627.17,3789.33 5626.56,3789.68L5309.39,3972.29C5308.63,3972.72 5307.93,3972.98 5307.29,3972.97C5307.1,3972.96 5306.94,3972.87 5306.83,3972.7C5306.83,3972.7 5306.83,3972.69 5306.82,3972.69C5306.47,3972.13 5306.3,3971.36 5306.24,3970.45L5306.02,3967.16L5620.43,3786.14C5621.04,3785.79 5621.61,3785.37 5622.11,3784.84C5622.42,3784.33 5622.71,3783.73 5623,3783.06C5623.13,3782.36 5623.15,3781.66 5623.11,3780.95L5611.85,3614.59Z" style="fill:none;stroke:rgb(0,254,126);stroke-width:8.74px;stroke-linecap:butt;stroke-miterlimit:2;"/>
            </g>
        </g>
        <g transform="matrix(0.827545,0,0,0.885157,75.5,0)">
            <g transform="matrix(0.887013,-0.519427,0.197877,1.14615,425.405,-569.485)">
                <path d="M313.463,1011.6L201.388,1011.6C201.119,1011.6 200.874,1011.56 200.658,1011.46L200.658,1011.45C200.591,1011.42 200.542,1011.37 200.508,1011.3L200.506,1011.3C200.398,1011.09 200.359,1010.84 200.359,1010.57L200.359,960.612C200.359,960.433 200.416,960.257 200.506,960.078C200.506,960.077 200.507,960.076 200.507,960.075C200.541,960.008 200.591,959.958 200.658,959.924C200.659,959.924 200.66,959.923 200.661,959.923C200.876,959.815 201.12,959.776 201.388,959.776L313.463,959.776C313.68,959.776 313.881,959.802 314.064,959.869C314.183,959.967 314.299,960.093 314.417,960.239C314.465,960.363 314.493,960.487 314.493,960.612L314.493,1010.57C314.493,1010.78 314.469,1010.97 314.408,1011.15C314.293,1011.29 314.181,1011.41 314.066,1011.51C313.882,1011.58 313.68,1011.6 313.463,1011.6Z" style="fill:none;stroke:rgb(0,254,126);stroke-width:3.58px;stroke-linecap:butt;stroke-miterlimit:2;"/>
            </g>
        </g>
        <g transform="matrix(0.827545,0,0,0.885157,75.5,0)">
            <g transform="matrix(0.216541,0.0678883,0.0678064,0.295194,-27.686,-110.007)">
                <path d="M2008.78,1672.05L2063.66,1640.37" style="fill:none;stroke:rgb(0,254,126);stroke-width:9.48px;"/>
            </g>
        </g>
        <g transform="matrix(0.827545,0,0,0.885157,75.5,0)">
            <g transform="matrix(0.333985,0,0,0.334389,-95.1277,54.4823)">
                <path d="M1459.25,501.739C1459.25,501.739 1429.55,510.467 1410.63,518.619C1359.1,540.819 1302.95,579.774 1302.95,579.774" style="fill:none;stroke:rgb(0,254,126);stroke-width:9.32px;"/>
            </g>
        </g>
        <g transform="matrix(0.827545,0,0,0.885157,75.5,0)">
            <g transform="matrix(0.236163,0.136514,-1.31097e-17,0.273028,-244.478,-1152.9)">
                <path d="M3438.51,4696.9C3417.61,4719.64 3387.62,4733.89 3354.33,4733.89C3291.19,4733.89 3239.93,4682.62 3239.93,4619.48C3239.93,4586.19 3254.17,4556.21 3276.91,4535.3" style="fill:none;stroke:rgb(0,254,126);stroke-width:9.17px;"/>
            </g>
        </g>
        <g transform="matrix(0.827545,0,0,0.885157,75.5,0)">
            <g transform="matrix(0.236163,0.136514,-1.31097e-17,0.273028,-244.478,-1152.9)">
                <path d="M3422.24,4680.63C3436.84,4664.44 3445.74,4642.99 3445.74,4619.48C3445.74,4569.03 3404.78,4528.08 3354.33,4528.08C3330.82,4528.08 3309.38,4536.97 3293.18,4551.58" style="fill:none;stroke:rgb(0,254,126);stroke-width:9.17px;"/>
            </g>
        </g>
        <g transform="matrix(0.827545,0,0,0.885157,75.5,0)">
            <g transform="matrix(0.236163,0.136514,-1.31097e-17,0.273028,-242.883,-1153.82)">
                <path d="M3270.15,4542.06C3291.06,4519.32 3321.04,4505.08 3354.33,4505.08C3417.47,4505.08 3468.74,4556.34 3468.74,4619.48C3468.74,4652.77 3454.49,4682.76 3431.75,4703.66C3450.52,4683.29 3461.98,4656.09 3461.98,4626.24C3461.98,4563.1 3410.72,4511.83 3347.58,4511.83C3317.72,4511.83 3290.52,4523.29 3270.15,4542.06Z" style="fill:none;stroke:rgb(0,254,126);stroke-width:9.17px;"/>
            </g>
        </g>
        <g transform="matrix(0.827545,0,0,0.885157,75.5,0)">
            <g transform="matrix(0.236163,0.136514,-1.31097e-17,0.273028,-242.883,-1153.82)">
                <path d="M3286.43,4558.33C3271.82,4574.52 3262.93,4595.97 3262.93,4619.48C3262.93,4669.93 3303.88,4710.89 3354.33,4710.89C3377.84,4710.89 3399.29,4701.99 3415.48,4687.38C3398.75,4705.96 3374.51,4717.64 3347.58,4717.64C3297.13,4717.64 3256.17,4676.68 3256.17,4626.24C3256.17,4599.3 3267.85,4575.07 3286.43,4558.33Z" style="fill:none;stroke:rgb(0,254,126);stroke-width:9.17px;"/>
            </g>
        </g>
        <g transform="matrix(0.827545,0,0,0.885157,75.5,0)">
            <g transform="matrix(0.236163,0.136514,-1.31097e-17,0.273028,-242.883,-1153.82)">
                <path d="M3415.48,4687.38C3398.75,4705.96 3374.51,4717.64 3347.58,4717.64C3297.13,4717.64 3256.17,4676.68 3256.17,4626.24C3256.17,4599.3 3267.85,4575.07 3286.43,4558.33" style="fill:none;stroke:rgb(0,254,126);stroke-width:9.17px;"/>
            </g>
        </g>
        <g transform="matrix(0.827545,0,0,0.885157,75.5,0)">
            <g transform="matrix(0.163497,0.0945093,-9.07595e-18,0.189019,0.109546,-629.045)">
                <path d="M3360.62,4581.78C3362.53,4583.18 3363.78,4585.44 3363.78,4587.99C3363.78,4592.23 3360.34,4595.67 3356.1,4595.67C3351.87,4595.67 3348.43,4592.23 3348.43,4587.99C3348.43,4584.55 3350.69,4581.64 3353.82,4580.66" style="fill:none;stroke:rgb(0,254,126);stroke-width:13.24px;"/>
            </g>
        </g>
        <g transform="matrix(0.827545,0,0,0.885157,75.5,0)">
            <g transform="matrix(0.163497,0.0945093,-9.07595e-18,0.189019,0.109546,-611.149)">
                <circle cx="3356.1" cy="4587.99" r="7.677" style="fill:none;stroke:rgb(0,254,126);stroke-width:13.24px;"/>
            </g>
        </g>
        <g transform="matrix(0.827545,0,0,0.885157,75.5,0)">
            <g transform="matrix(0.0817489,0.21095,-0.141593,0.0126619,930.796,-202.357)">
                <path d="M3361.81,4582.86C3363.03,4584.22 3363.78,4586.02 3363.78,4587.99C3363.78,4592.23 3360.34,4595.67 3356.1,4595.67C3351.87,4595.67 3348.43,4592.23 3348.43,4587.99C3348.43,4586.49 3348.86,4585.09 3349.6,4583.91" style="fill:none;stroke:rgb(0,254,126);stroke-width:18.51px;"/>
            </g>
        </g>
        <g transform="matrix(0.827545,0,0,0.885157,75.5,0)">
            <g transform="matrix(0.0817489,0.21095,-0.141593,0.0126619,917.39,-201.158)">
                <circle cx="3356.1" cy="4587.99" r="7.677" style="fill:none;stroke:rgb(0,254,126);stroke-width:18.51px;"/>
            </g>
        </g>
        <g transform="matrix(0.827545,0,0,0.885157,75.5,0)">
            <g transform="matrix(-0.0817489,0.116441,-0.141593,-0.176357,1479.51,990.992)">
                <circle cx="3356.1" cy="4587.99" r="7.677" style="fill:none;stroke:rgb(0,254,126);stroke-width:19.64px;"/>
            </g>
        </g>
        <g transform="matrix(0.827545,0,0,0.885157,75.5,0)">
            <g transform="matrix(-0.0817489,0.116441,-0.141593,-0.176357,1466.1,974.296)">
                <circle cx="3356.1" cy="4587.99" r="7.677" style="fill:none;stroke:rgb(0,254,126);stroke-width:19.64px;"/>
            </g>
        </g>
        <g transform="matrix(0.827545,0,0,0.885157,75.5,0)">
            <g transform="matrix(0.333985,0,0,0.334389,-378.073,-143.877)">
                <path d="M2795.82,2159.64C2789.87,2164.67 2780.79,2164.84 2770.62,2158.97C2752.72,2148.64 2738.18,2123.46 2738.18,2102.79C2738.18,2091.05 2742.87,2083.27 2750.2,2080.63M2750.2,2080.63C2755.78,2078.62 2762.88,2079.59 2770.62,2084.06C2788.52,2094.4 2803.06,2119.57 2803.06,2140.24C2803.06,2149.18 2800.34,2155.82 2795.82,2159.64" style="fill:none;stroke:rgb(0,254,126);stroke-width:9.32px;"/>
            </g>
        </g>
        <g transform="matrix(0.827545,0,0,0.885157,75.5,0)">
            <g transform="matrix(0.333985,0,0,0.334389,-378.073,-143.877)">
                <path d="M2795.82,2159.64C2790.24,2161.65 2783.13,2160.68 2775.4,2156.21C2757.49,2145.88 2742.96,2120.7 2742.96,2100.03C2742.96,2091.1 2745.67,2084.46 2750.2,2080.63" style="fill:none;stroke:rgb(0,254,126);stroke-width:9.32px;"/>
            </g>
        </g>
        <g transform="matrix(0.827545,0,0,0.885157,75.5,0)">
            <g transform="matrix(4.57274,0,0,4.27512,-300.519,-269.049)">
                <text x="46.37px" y="96.327px" style="font-family:'Helvetica';font-size:12.684px;fill:white;">download</text>
            </g>
        </g>
        <g transform="matrix(0.827545,0,0,0.885157,75.5,0)">
            <g transform="matrix(4.57274,0,0,4.27512,1054.85,-273.792)">
                <text x="46.37px" y="96.327px" style="font-family:'Helvetica';font-size:12.684px;fill:white;">upload</text>
            </g>
        </g>
    </g>
</svg>
