<svg width="100%" height="100%" viewBox="0 0 314 389" xmlns="http://www.w3.org/2000/svg" style="fill-rule:evenodd;clip-rule:evenodd;stroke-linejoin:round;stroke-miterlimit:2;">
    <g transform="matrix(1,0,0,1,-5597,-3930)">
        <g id="Artboard8" transform="matrix(0.488871,0,0,0.547789,2931.17,1840.73)">
            <rect x="5453.03" y="3814" width="641.716" height="708.303" style="fill:none;"/>
            <g id="noun-finger-print-589944.svg" transform="matrix(1.05532,0,0,0.941819,5755.11,4228.68)">
                <g transform="matrix(1,0,0,1,-350,-350)">
                    <g>
                        <path d="M511.88,470.75C504.005,470.75 497.88,464.625 497.88,456.75L497.88,250.25C497.88,224.875 490.88,200.375 477.755,178.5C476.005,175 475.13,171.5 476.005,168C476.88,164.5 479.505,161.875 482.13,159.25C483.88,158.375 486.505,157.5 489.13,157.5C493.505,157.5 497.88,160.125 500.505,164.5C516.255,190.75 524.13,220.5 524.13,250.25L524.13,456.75C525.88,465.5 519.755,470.75 511.88,470.75ZM219.63,317.63L219.63,250.255C219.63,213.505 234.505,178.505 260.755,151.38C287.005,125.13 322.005,110.255 359.63,110.255C385.005,110.255 409.505,117.255 431.38,129.505C433.13,130.38 435.755,131.255 438.38,131.255C442.755,131.255 448.005,128.63 449.755,124.255C451.505,120.755 452.38,117.255 451.505,113.755C450.63,110.255 448.005,107.63 445.38,105.005C420.005,89.255 390.255,81.38 359.63,81.38C267.755,81.38 193.38,155.755 193.38,247.63L193.38,315.005C193.38,322.88 199.505,329.005 207.38,329.005C213.505,331.63 219.63,325.505 219.63,317.63ZM469.01,457.63L469.01,382.38C469.01,374.505 462.885,368.38 455.01,368.38C447.135,368.38 441.01,374.505 441.01,382.38L441.01,457.63C441.01,465.505 447.135,471.63 455.01,471.63C462.885,470.755 469.01,465.505 469.01,457.63ZM275.63,364.005L275.63,307.13C275.63,299.255 269.505,293.13 261.63,293.13C253.755,293.13 247.63,299.255 247.63,307.13L247.63,364.005C247.63,371.88 253.755,378.005 261.63,378.005C269.505,378.005 275.63,371.88 275.63,364.005ZM469.01,317.63L469.01,251.13C469.01,189.88 419.135,140.88 358.76,140.88C297.51,140.88 248.51,190.755 248.51,251.13C248.51,259.005 254.635,265.13 262.51,265.13C270.385,265.13 276.51,259.005 276.51,251.13C276.51,205.63 314.135,168.005 359.635,168.005C405.135,168.005 442.76,205.63 442.76,251.13L442.76,317.63C442.76,325.505 448.885,331.63 456.76,331.63C462.885,331.63 469.01,325.505 469.01,317.63ZM410.385,453.25C413.885,451.5 415.635,448.875 417.385,445.375C418.26,441.875 418.26,438.375 416.51,434.875C413.885,430.5 409.51,427.875 404.26,427.875C401.635,427.875 399.885,428.75 398.135,429.625C385.885,435.75 372.76,439.25 359.635,439.25C335.135,439.25 312.385,428.75 296.635,409.5C294.01,406.875 290.51,405.125 286.135,405.125C282.635,405.125 280.01,406 277.385,408.625C274.76,411.25 273.01,413.875 273.01,418.25C273.01,421.75 273.885,425.25 276.51,427.875C297.51,452.375 328.135,467.25 360.51,467.25C377.135,466.375 394.635,462 410.385,453.25ZM411.26,296.63L411.26,260.755C411.26,231.88 387.635,208.255 358.76,208.255C329.885,208.255 306.26,231.88 306.26,260.755C306.26,268.63 312.385,274.755 320.26,274.755C328.135,274.755 334.26,268.63 334.26,260.755C334.26,246.755 345.635,235.38 359.635,235.38C373.635,235.38 385.01,246.755 385.01,260.755L385.01,296.63C385.01,300.13 386.76,303.63 389.385,306.255C392.01,308.88 395.51,310.63 399.01,310.63C405.135,309.755 411.26,303.63 411.26,296.63ZM411.26,347.38C411.26,339.505 405.135,333.38 397.26,333.38C389.385,333.38 383.26,339.505 383.26,347.38C383.26,361.38 371.885,372.755 357.885,372.755C343.885,372.755 332.51,361.38 332.51,347.38L332.51,310.63C332.51,302.755 326.385,296.63 318.51,296.63C310.635,296.63 306.26,302.755 306.26,310.63L306.26,347.38C306.26,376.255 329.885,399.88 358.76,399.88C387.635,399.88 411.26,376.255 411.26,347.38ZM219.64,459.38L219.64,378.005C219.64,370.13 213.515,364.005 205.64,364.005C197.765,364.005 191.64,370.13 191.64,378.005L191.64,459.38C191.64,467.255 197.765,473.38 205.64,473.38C213.515,473.38 219.64,467.255 219.64,459.38Z" style="fill:rgb(34,216,149);fill-rule:nonzero;"/>
                    </g>
                </g>
            </g>
        </g>
    </g>
</svg>
