<?xml version="1.0" encoding="UTF-8" standalone="no"?>
<!DOCTYPE svg PUBLIC "-//W3C//DTD SVG 1.1//EN" "http://www.w3.org/Graphics/SVG/1.1/DTD/svg11.dtd">
<svg width="100%" height="100%" viewBox="0 0 504 801" version="1.1" xmlns="http://www.w3.org/2000/svg" xmlns:xlink="http://www.w3.org/1999/xlink" xml:space="preserve" xmlns:serif="http://www.serif.com/" style="fill-rule:evenodd;clip-rule:evenodd;stroke-linecap:round;stroke-linejoin:round;stroke-miterlimit:1.5;">
    <path d="M16.688,734.341c0.736,8.285 1.035,36.727 -0.109,44.506c-0.14,0.949 0.954,2.163 1.914,2.151c9.935,-0.126 49.847,4.963 60.218,0.574c4.525,-1.915 3.734,-9.366 4.459,-10.777c0.535,-1.042 5.635,-4.206 5.987,-7.768c0.308,-3.118 -0.349,-4.976 -2.523,-7.322c-0.89,-0.961 5.001,-3.889 5.1,-7.315c0.083,-2.902 -3.286,-6.52 -3.03,-8.934c0.324,-3.057 3.543,-6.845 1.822,-10.387c-1.204,-2.478 -3.364,-5.898 -7.485,-7.067c-5.199,-1.476 -19.753,0.182 -24.1,-0.27c-1.043,-0.109 -2.234,-1.428 -1.979,-2.445c0.99,-3.936 6.733,-15.263 7.918,-21.172c1.127,-5.616 -1.912,-13.228 -5.054,-14.875c-2.48,-1.3 -6.598,-0.43 -8.186,1.876c-2.394,3.474 -0.23,15.419 -6.174,18.968c-9.94,5.935 -20.917,18.207 -21.48,25.058c-0.24,2.91 -7.556,2.291 -7.298,5.199Z" style="fill:#fff;stroke:#000;stroke-width:3px;"/>
    <rect x="1.5" y="1.5" width="500.151" height="797.765" style="fill:none;stroke:#000;stroke-width:3px;"/>
    <circle cx="53.344" cy="746.513" r="37.5" style="fill:none;stroke:#ff0056;stroke-width:0.73px;"/>
</svg>
