<?xml version="1.0" encoding="UTF-8" standalone="no"?>
<!DOCTYPE svg PUBLIC "-//W3C//DTD SVG 1.1//EN" "http://www.w3.org/Graphics/SVG/1.1/DTD/svg11.dtd">
<svg width="100%" height="100%" viewBox="0 0 504 801" version="1.1" xmlns="http://www.w3.org/2000/svg" xmlns:xlink="http://www.w3.org/1999/xlink" xml:space="preserve" xmlns:serif="http://www.serif.com/" style="fill-rule:evenodd;clip-rule:evenodd;stroke-linecap:round;stroke-linejoin:round;stroke-miterlimit:1.5;">
    <path d="M24.132,737.056c0.536,6.044 0.755,26.796 -0.08,32.471c-0.102,0.693 0.696,1.578 1.396,1.569c7.249,-0.091 36.37,3.621 43.936,0.419c3.301,-1.397 2.724,-6.833 3.253,-7.863c0.391,-0.76 4.112,-3.068 4.368,-5.667c0.225,-2.275 -0.254,-3.63 -1.84,-5.342c-0.65,-0.701 3.649,-2.838 3.721,-5.337c0.06,-2.118 -2.398,-4.758 -2.211,-6.518c0.236,-2.231 2.585,-4.995 1.329,-7.579c-0.878,-1.808 -2.454,-4.303 -5.461,-5.156c-3.793,-1.077 -14.412,0.133 -17.583,-0.197c-0.761,-0.08 -1.63,-1.042 -1.444,-1.784c0.722,-2.872 4.912,-11.136 5.777,-15.447c0.822,-4.098 -1.395,-9.652 -3.687,-10.853c-1.81,-0.948 -4.814,-0.314 -5.973,1.368c-1.746,2.535 -0.168,11.251 -4.505,13.84c-7.252,4.33 -15.261,13.284 -15.672,18.282c-0.174,2.123 -5.513,1.672 -5.324,3.794Z" style="fill:#fff;stroke:#000;stroke-width:3px;"/>
    <rect x="1.5" y="1.5" width="500.151" height="797.765" style="fill:none;stroke:#000;stroke-width:3px;"/>
    <circle cx="51.653" cy="735.815" r="1" style="fill:none;stroke:#063342;stroke-width:0.61px;"/>
</svg>
